<?xml version="1.0" encoding="utf-8"?>
<!-- Generator: Adobe Illustrator 16.0.0, SVG Export Plug-In . SVG Version: 6.00 Build 0)  -->
<!DOCTYPE svg PUBLIC "-//W3C//DTD SVG 1.1//EN" "http://www.w3.org/Graphics/SVG/1.1/DTD/svg11.dtd">
<svg version="1.1" id="Capa_1" xmlns="http://www.w3.org/2000/svg" xmlns:xlink="http://www.w3.org/1999/xlink" x="0px" y="0px"
	 width="800px" height="800px" viewBox="0 0 800 800" enable-background="new 0 0 800 800" xml:space="preserve">
<g>
	<g opacity="0.5">
		<path fill="#AA5F47" d="M282.899,689.258c-0.269-0.373-2.425-6.098-2.425-6.098l-5.593-0.434l-3.437,0.932l-2.358,5.848
			l-8.49,2.273l-3.74,8.119c0,0-2.426,4.572-2.527,4.852c-0.101,0.281-3.639,2.334-4.548,2.334s-24.663,1.307-24.663,1.307H-8.046
			v15.479c0,0,404.252,12.174,539.306,14.178c16.654,0.248,57.496-1.9,81.031-4.049c12.32-1.125,19.336-2.693,24.914-5.826
			c1.361-0.766,7.869-2.967,7.869-2.967l9.242-6.15c0,0-129.758-1.367-131.461-2.605c-4.918-3.566-10.213-6.643-15.607-9.549
			c-2.92-1.572-6.004-2.832-8.707-4.748c-3.375-2.389-3.201-5.438-3.396-9.057c-0.1-1.854-0.195-3.777-0.814-5.559
			c-0.623-1.801-1.938-3.264-3.08-4.801c-1.279-1.723-3.711-2.051-5.791-2.258c-2.83-0.281-5.668-0.447-8.488-0.816
			c-0.65-0.084-2.188-0.043-2.703-0.346c-0.268-0.154-0.395-0.75-0.713-0.979c-0.764-0.553-2.107-0.59-3.018-0.768
			c-1.705-0.324-3.438-0.516-5.18-0.377c-1.775,0.139-3.428,0.73-5.182,0.961c-3.162,0.416-6.789-0.375-9.859-1.049
			c-7.006-1.541-14.367-1.285-21.535-1.023c-4.49,0.162-9.088,0.063-13.549,0.578c-3.816,0.443-6.268,3.408-9.674,4.705
			c-1.246,0.475-2.635,0.535-3.855,1.072c-1.262,0.555-3.464,1.715-3.627,3.133c-0.103,0.895,0.125,2.1,0.177,3.021
			c0.069,1.182,0.092,2.359,0.148,3.541c0.016,0.352,0.258,1.35,0.063,1.666c0,0,1.903,10.045-20.048,13.885
			c-10.127,1.771-20.566,0.697-30.693,2.74c-5.467,1.104-13.886,1.619-21.236,1.619c-7.061,0-23.439-1.07-24.113-1.07
			s-7.479-1.057-8.02-1.555c-0.539-0.498-3.637-4.293-3.705-4.668L282.899,689.258z"/>
	</g>
	<path opacity="0.7" fill="#C89A43" d="M737.416,894.992H127.09V726.9c0,0,61.194-9.875,167.465-6.99
		c3.275-2.291,4.012-2.666,8.26-1.799c4.441,0.906,10.924-0.654,14.321-1.715c3.399-1.061,10.868,0.389,12.2,0.461
		c1.334,0.072,8.668-1.348,10.478-3.066c1.812-1.719,2.901-36.324,4.067-38.461c1.165-2.131,8.484-5.082,8.484-5.082l17.939,3.824
		c0,0-3.312,42.227,1.19,45.523c4.503,3.297,26.319,7.27,51.713,8.629l-8.641-0.406c2.715,0.277,5.443,0.564,8.191,0.861
		c48.227,5.203,92.795,6.836,132.316,6.418c21.414-1.123,73.549-3.986,77.785-5.494c5.342-1.9,14.881-4.182,16.982-8.188
		c2.104-4.002,3.816-1.902,6.295-1.9c2.482,0.004,3.342-2.283,4.105-2.762c0.764-0.477,4.389-2.666,5.627-3.332
		c1.24-0.666,2.635-25.742,1.492-29.271c-1.139-3.529,2.498-21.264,2.498-21.264s3.719-0.758,5.246-2.094
		c1.529-1.332,6.332-3.361,6.332-3.361l-0.254-3.496l9.283-0.818l1.781-1.971c0,0,2.672,0.131,3.814,0.83
		c1.145,0.701,16.914,0.715,16.914,0.715l0.566,2.988l5.344-0.379c0,0,4.566,10.115,4.559,18.125
		c-0.008,8.012,0.059,31.342,7.172,38.215s104.67,20.846,104.67,20.846v162.637L737.416,894.992"/>
	<path fill="#C89A43" d="M42.45,829.957c0,0,393.621-81.307,791.857-64.521v125.879H42.45V829.957z"/>
	<g>
		<path fill="#C89A43" d="M764.137,769.297c-2.266,1.59-9.98,5.598-9.98,5.598l7.832,65.664h58.881l-3.184-40.855l15.127-9.682
			c0,0-19.969-40.539-22.994-42.959s3.629-10.891,3.629-10.891l-8.469-7.26l12.102-15.73l9.68-16.941c0,0-9.076-12.102-12.1-12.102
			c-3.025,0-12.705-6.654-12.705-6.654l-3.025-6.051l21.777-16.939l3.633-15.732l-13.916-3.629l-19.359,7.26l14.52-15.73
			c0,0-4.844-10.893-16.641-10.893l-22.99,15.127v8.168l3.934,7.563l7.867,0.607l-12.102,3.629l-7.26,12.705l8.469,17.545
			l15.732-1.209l0.604,7.865l-13.311,3.631l-3.025,17.697l8.469,8.016h11.498l-7.26,5.748l5.445,8.471l-13.916,6.051l1.209,13.916
			C772.307,751.299,766.809,767.43,764.137,769.297"/>
		<path fill="#BE9141" d="M814.256,671.891l-21.078-1.781l5.748-10.893l-17.254,4.834l-4.242-23l10.869-8.49l-7.295-1.248
			l-8.549-5.605l-6.387-5.986h-0.701v7.131l4.227,7.564l8.012,0.604l-12.027,3.629l-7.225,12.707l8.492,17.545l15.736-1.209
			l0.611,7.865l31.453-3.631C814.525,671.926,814.396,671.912,814.256,671.891"/>
		<path fill="#BE9141" d="M762.063,840.559c0.992-1.604,2.129-8.906,7.068-10.002c5.443-1.207,12.707-3.404,16.787-11.496
			c1.906-3.783,6.58-6.125,15.658-5.52c9.074,0.604,16.408-8.396,16.408-8.396l-0.299-5.441c0,0-26.32-1.816-28.742-1.816
			c-2.42,0-13.311-3.023-13.311-3.023l-3.025-10.287l14.221-3.936v-19.664c0,0-1.061-13.916-1.061-16.334
			c0-2.422,2.57-6.654,2.57-6.654l16.641-9.076l-14.221,1.211l-1.814-8.473l15.127-6.049l-15.127-0.607l-3.025-14.52l-2.719-12.703
			l-13.311,3.629l-3.027,17.697l8.473,8.016h11.494l-7.26,5.748l5.445,8.473l-13.914,6.047l1.207,13.918
			c0,0-5.531,16.082-8.17,17.998c-1.246,0.908-9.98,5.598-9.98,5.598l7.832,65.664H762.063z"/>
		<polygon fill="#C4934B" points="777.43,641.051 824.34,626.551 778.828,648.406 		"/>
		<polygon fill="#C4934B" points="785.012,683.914 826.76,684.178 786.828,692.309 		"/>
		<polygon fill="#C4934B" points="786.828,780.641 832.813,790.02 825.246,776.102 786.52,775.498 		"/>
		<polygon fill="#AB7F39" points="776.846,632.752 765.953,626.852 769.887,634.416 777.754,635.02 765.652,638.65 788.299,632.563 
					"/>
		<polygon fill="#AB7F39" points="764.594,663.154 784.105,664.967 798.93,659.221 782.594,667.691 766.861,668.9 		"/>
		<polygon fill="#AB7F39" points="775.031,705.211 786.828,705.211 804.068,703.543 788.943,702.861 766.861,697.078 		"/>
		<polygon fill="#AB7F39" points="785.014,719.119 804.98,716.699 782.744,715.338 		"/>
		<polygon fill="#AB7F39" points="771.898,751.299 785.096,752.055 785.096,746.154 770.479,737.383 		"/>
		<polygon fill="#AB7F39" points="754.156,774.895 786.828,780.641 764.137,769.297 		"/>
		<path fill="#C4934B" d="M785.096,752.055l24.313-4.992c0,0-1.871-1.363-0.057-5.898l-24.256,4.99V752.055z"/>
		<path fill="#CCA96A" d="M788.643,619.137l7.26,1.361l9.682-6.049c0,0-4.844-10.891-16.643-10.891l-22.988,15.125l6.352,6.295
			L788.643,619.137z"/>
		<polygon fill="#CCA96A" points="777.43,641.051 791.064,630.18 810.424,622.92 824.34,626.551 		"/>
		<polygon fill="#CCA96A" points="783.197,675.557 814.453,671.889 815.471,672.059 817.797,673.816 822.221,677.674 
			826.76,684.027 813.146,677.221 		"/>
		<polygon fill="#CCA96A" points="788.338,737.988 804.979,728.912 813.447,736.172 		"/>
		<polygon fill="#CCA96A" points="785.92,752.055 809.818,747.063 814.395,754.096 825.852,776.102 786.52,775.498 		"/>
	</g>
	<path fill="#4A8335" d="M384.635,760.813l-0.168-8.166c0,0-2.217-1.436-2.555-3.172c-0.338-1.74-0.084-3.477,0.894-3.072
		c0.979,0.404,0.827,1.807,1.62,2.6l-0.531-9.584c0,0-0.203-3.545,1.746-3.545c1.948,0,1.859,2.836,1.656,6.43
		c1.006-1.029,0.799-2.824,2.038-3.348c1.241-0.525,1.561,1.729,1.133,3.984c-0.427,2.256-3.167,3.801-3.167,3.801l-0.71,14.072
		H384.635z"/>
	<path fill="#5C9F3E" d="M343.354,793.531l1.129-27.332c0,0,25.209-12.311,27.493-39.076c1.01-11.809,1.094-20.949-5.984-20.559
		c-10.191,0.566-5.448,30.836-21.243,35.24l3.559-64.15c0,0,1.354-23.717-11.689-23.717c-13.045,0-11.69,23.717-11.69,23.717
		l3.558,64.15c-5.309-5.311-11.223-22.252-17.775-24.961c-6.551-2.709-8.242,8.922-5.986,20.557
		c2.26,11.631,24.027,28.799,24.027,28.799l1.129,27.332"/>
	<path fill="#5C9F3E" d="M414.34,760.359l0.09-2.184c0,0,2.014-0.984,2.199-3.125c0.08-0.943,0.088-1.676-0.48-1.643
		c-0.814,0.045-0.436,2.465-1.699,2.816l0.287-5.129c0,0,0.107-1.896-0.936-1.896s-0.936,1.896-0.936,1.896l0.285,5.129
		c-0.424-0.426-0.896-1.779-1.42-1.996c-0.525-0.217-0.658,0.715-0.479,1.645s1.92,2.303,1.92,2.303l0.092,2.184"/>
	<path fill="#4A8335" d="M265.016,795.16c0-20.381-5.001-86.273,5.336-86.273s5.336,65.893,5.336,86.273H265.016z"/>
	<path fill="#5C9F3E" d="M255.116,795.16c0-9.342-5-39.545,5.337-39.545s5.337,30.203,5.337,39.545H255.116z"/>
	<path fill="#5C9F3E" d="M275.141,795.16c0-12.52-5-52.998,5.338-52.998c10.334,0,5.337,40.479,5.337,52.998H275.141z"/>
	<path fill="#5C9F3E" d="M715.455,758.889c0-10.85-7.344-45.918,7.836-45.918s7.838,35.068,7.838,45.918H715.455z"/>
	<path fill="#4A8335" d="M704.904,758.889c0-7.348-7.346-31.104,7.836-31.104c15.18,0,7.838,23.756,7.838,31.104H704.904z"/>
	<path fill="#4A8335" d="M440.637,761.902c-0.291,0.479-0.588,0.943-0.891,1.393c0.129-2.445-0.012-4.451-0.012-4.451
		c-0.424,1.875-0.977,3.637-1.551,5.201c0.316-2.385,0.34-4.34,0.34-4.34c-0.158,0.502-0.324,0.992-0.498,1.473
		c0-1.4-0.066-2.359-0.066-2.359c-0.258,1.133-0.559,2.219-0.883,3.25c-0.037-1.918-0.199-3.342-0.199-3.342
		c-0.27,1.486-0.621,2.904-1.006,4.217c-0.404-2.26-0.932-4.006-0.932-4.006c-0.002,2.066-0.176,4.039-0.418,5.783
		c-0.697-3.154-1.912-6.039-1.912-6.039c0.066,0.641,0.117,1.271,0.154,1.893c-0.219,1.518-0.514,2.959-0.838,4.273
		c-0.844-3.164-2.225-6.059-2.225-6.059c0.229,1.494,0.361,2.949,0.426,4.313c-0.842-2.855-2.014-5.307-2.014-5.307
		c0.246,1.598,0.379,3.158,0.438,4.604c-0.777-2.328-1.648-4.146-1.648-4.146c0.053,0.336,0.1,0.676,0.143,1.01
		c-0.088,0.574-0.363,2.506-0.432,4.734c-0.365-1.746-0.678-3.736-0.818-5.832c0,0-0.592,2.584-0.801,5.51
		c-0.418-1.018-0.818-2.1-1.174-3.23c0,0,0.027,2.021,0.355,4.461c-0.545-0.668-1.086-1.369-1.611-2.107c0,0,0.09,0.27,0.26,0.725
		c-0.484-0.674-0.965-1.379-1.428-2.119c0,0,0.066,0.242,0.193,0.65c-0.279-0.58-0.553-1.186-0.811-1.805
		c0,0,1.141,11.066,5.186,12.246c0.561,0.16,0.986,0.25,1.313,0.287c0.188,0.133,0.387,0.246,0.594,0.326
		c1.145,0.449,1.742,0.525,2.018,0.412c0.15,0.033,0.299,0.059,0.449,0.066c1.279,0.078,1.869-0.049,2.074-0.26
		c0.32,0.006,0.732-0.021,1.268-0.092c0.656-0.09,1.277-0.43,1.859-0.941c0.309-0.094,0.699-0.25,1.197-0.496
		c1.775-0.871,2.545-3.783,2.861-6.627C440.266,763.33,440.637,761.902,440.637,761.902 M431.834,772.258
		c0.025-0.023,0.049-0.049,0.072-0.076c0,0.004,0,0.01-0.002,0.012c-0.021,0.023-0.041,0.049-0.064,0.068
		C431.838,772.26,431.836,772.258,431.834,772.258"/>
	<path fill="#4A8335" d="M606.438,751.209c-0.307,0.469-0.617,0.924-0.936,1.363c0.209-2.443,0.135-4.451,0.135-4.451
		c-0.486,1.861-1.094,3.604-1.719,5.148c0.395-2.373,0.48-4.326,0.48-4.326c-0.172,0.494-0.355,0.979-0.545,1.455
		c0.045-1.398,0.008-2.361,0.008-2.361c-0.291,1.123-0.627,2.201-0.986,3.219c0.025-1.918-0.088-3.344-0.088-3.344
		c-0.318,1.473-0.719,2.883-1.146,4.178c-0.332-2.268-0.797-4.033-0.797-4.033c-0.072,2.066-0.313,4.029-0.609,5.766
		c-0.594-3.174-1.715-6.098-1.715-6.098c0.045,0.641,0.078,1.275,0.092,1.893c-0.266,1.514-0.609,2.945-0.979,4.246
		c-0.738-3.189-2.023-6.127-2.023-6.127c0.18,1.502,0.264,2.959,0.285,4.326c-0.75-2.885-1.84-5.373-1.84-5.373
		c0.195,1.605,0.277,3.168,0.289,4.617c-0.705-2.354-1.512-4.201-1.512-4.201c0.043,0.34,0.076,0.68,0.109,1.016
		c-0.107,0.57-0.447,2.492-0.59,4.719c-0.307-1.756-0.553-3.756-0.627-5.855c0,0-0.678,2.563-0.979,5.479
		c-0.385-1.031-0.75-2.127-1.066-3.268c0,0-0.043,2.021,0.207,4.469c-0.523-0.684-1.039-1.4-1.541-2.156c0,0,0.082,0.273,0.236,0.73
		c-0.461-0.688-0.918-1.41-1.357-2.162c0,0,0.059,0.244,0.172,0.656c-0.26-0.592-0.512-1.205-0.75-1.83
		c0,0,0.773,11.098,4.779,12.406c0.553,0.182,0.977,0.283,1.301,0.332c0.184,0.139,0.379,0.258,0.584,0.348
		c1.127,0.484,1.723,0.582,2.006,0.479c0.146,0.037,0.293,0.066,0.441,0.078c1.275,0.121,1.871,0.012,2.084-0.191
		c0.32,0.018,0.732,0.004,1.27-0.049c0.658-0.066,1.291-0.387,1.891-0.879c0.311-0.084,0.705-0.23,1.211-0.457
		c1.807-0.814,2.672-3.697,3.078-6.527C606.021,752.625,606.438,751.209,606.438,751.209 M597.301,761.268
		c0.025-0.025,0.049-0.049,0.072-0.074c0,0.004,0,0.008,0,0.014c-0.023,0.021-0.045,0.043-0.068,0.064
		C597.303,761.271,597.301,761.27,597.301,761.268"/>
	<path fill="#47112E" d="M404.424,757.479c-0.068,0.102-0.137,0.201-0.203,0.297c0.045-0.533,0.027-0.971,0.027-0.971
		c-0.105,0.406-0.238,0.787-0.373,1.123c0.086-0.52,0.104-0.943,0.104-0.943c-0.037,0.109-0.078,0.213-0.117,0.318
		c0.008-0.307,0.002-0.516,0.002-0.516c-0.064,0.244-0.139,0.479-0.217,0.701c0.006-0.42-0.02-0.729-0.02-0.729
		c-0.068,0.32-0.156,0.627-0.248,0.91c-0.072-0.494-0.176-0.879-0.176-0.879c-0.014,0.451-0.066,0.879-0.131,1.256
		c-0.131-0.693-0.375-1.33-0.375-1.33c0.012,0.141,0.016,0.279,0.021,0.414c-0.059,0.33-0.133,0.643-0.215,0.926
		c-0.16-0.695-0.441-1.334-0.441-1.334c0.041,0.326,0.059,0.643,0.063,0.941c-0.162-0.629-0.4-1.172-0.4-1.172
		c0.043,0.35,0.061,0.691,0.063,1.006c-0.154-0.512-0.328-0.914-0.328-0.914c0.008,0.074,0.016,0.148,0.021,0.221
		c-0.021,0.123-0.098,0.543-0.127,1.029c-0.066-0.383-0.121-0.818-0.137-1.277c0,0-0.146,0.559-0.215,1.195
		c-0.082-0.225-0.162-0.463-0.231-0.713c0,0-0.009,0.441,0.044,0.973c-0.111-0.148-0.225-0.305-0.334-0.469
		c0,0,0.017,0.061,0.052,0.16c-0.101-0.152-0.202-0.307-0.296-0.473c0,0,0.011,0.055,0.037,0.145
		c-0.057-0.129-0.111-0.264-0.166-0.4c0,0,0.172,2.418,1.042,2.705c0.121,0.039,0.213,0.061,0.285,0.072
		c0.039,0.029,0.082,0.057,0.129,0.076c0.242,0.105,0.373,0.127,0.436,0.102c0.031,0.01,0.063,0.016,0.096,0.02
		c0.279,0.025,0.408,0.004,0.455-0.041c0.07,0.004,0.158,0,0.277-0.012c0.141-0.016,0.281-0.084,0.41-0.191
		c0.068-0.02,0.154-0.051,0.264-0.1c0.395-0.178,0.582-0.807,0.672-1.424C404.332,757.785,404.424,757.479,404.424,757.479
		 M402.432,759.672c0.006-0.006,0.012-0.012,0.016-0.018v0.002c-0.004,0.006-0.008,0.01-0.014,0.016
		C402.434,759.672,402.434,759.672,402.432,759.672"/>
	<path fill="#5C9F3E" d="M461.627,772.604l-0.459-22.314c0,0-6.057-3.918-6.979-8.666c-0.924-4.748-0.23-9.498,2.443-8.389
		c2.676,1.105,2.258,4.932,4.426,7.098l-1.453-26.186c0,0-0.551-9.682,4.771-9.682c5.326,0,5.08,7.74,4.529,17.563
		c2.744-2.813,2.182-7.713,5.568-9.146c3.387-1.436,4.262,4.725,3.092,10.889c-1.168,6.162-8.654,10.387-8.654,10.387l-1.936,38.447
		H461.627z"/>
	<g>
		<path fill="#37002B" d="M228.814,793.346c-0.291,0.479-0.587,0.941-0.888,1.391c0.127-2.447-0.014-4.451-0.014-4.451
			c-0.422,1.875-0.976,3.637-1.551,5.201c0.316-2.385,0.34-4.34,0.34-4.34c-0.157,0.5-0.324,0.992-0.496,1.473
			c0-1.4-0.068-2.359-0.068-2.359c-0.255,1.131-0.557,2.219-0.883,3.25c-0.036-1.916-0.197-3.342-0.197-3.342
			c-0.27,1.486-0.623,2.904-1.008,4.215c-0.404-2.258-0.931-4.002-0.931-4.002c-0.001,2.064-0.176,4.037-0.418,5.781
			c-0.698-3.154-1.913-6.039-1.913-6.039c0.068,0.639,0.119,1.271,0.154,1.891c-0.218,1.52-0.513,2.961-0.839,4.273
			c-0.842-3.16-2.224-6.057-2.224-6.057c0.229,1.494,0.361,2.949,0.426,4.313c-0.842-2.855-2.014-5.307-2.014-5.307
			c0.247,1.598,0.379,3.158,0.438,4.604c-0.78-2.33-1.649-4.148-1.649-4.148c0.053,0.34,0.1,0.678,0.143,1.012
			c-0.088,0.572-0.363,2.506-0.432,4.734c-0.365-1.746-0.679-3.736-0.818-5.832c0,0-0.594,2.584-0.799,5.508
			c-0.418-1.016-0.82-2.098-1.175-3.229c0,0,0.025,2.021,0.354,4.459c-0.545-0.666-1.086-1.367-1.612-2.105
			c0,0,0.092,0.27,0.262,0.725c-0.484-0.674-0.966-1.379-1.429-2.117c0,0,0.067,0.24,0.192,0.648
			c-0.278-0.58-0.551-1.184-0.809-1.803c0,0,1.141,11.066,5.186,12.244c0.559,0.162,0.985,0.25,1.312,0.285
			c0.188,0.135,0.388,0.248,0.596,0.33c1.143,0.447,1.74,0.523,2.018,0.41c0.149,0.033,0.297,0.059,0.447,0.066
			c1.278,0.076,1.87-0.049,2.076-0.262c0.319,0.01,0.732-0.02,1.266-0.09c0.656-0.09,1.278-0.428,1.861-0.941
			c0.309-0.094,0.699-0.252,1.195-0.494c1.777-0.873,2.546-3.785,2.861-6.627C228.444,794.773,228.814,793.346,228.814,793.346
			 M220.013,803.699c0.024-0.023,0.048-0.051,0.071-0.076c0,0.004,0,0.01,0,0.014c-0.023,0.021-0.043,0.047-0.065,0.066
			C220.017,803.701,220.016,803.699,220.013,803.699"/>
		<path fill="#C89A43" d="M-9.14,713.688l3.561,2.1l-4.662,9.523c0,0,2.367,1.672,3.035,6.912c0.67,5.236,6.557,26.285,6.557,26.285
			l5.916,4.193l-5.713,3.52l-1.813,41.246h223.328l1.997-2.279c0,0,2.708-11.578,3.952-13.15c1.246-1.574,1.277-2.781-2.213-7.689
			c0,0,1.039-9.209-3.375-9.324c-4.416-0.113-24.639,5.393-24.195,3.799c0.443-1.596-1.852-37.4-2.172-40.623
			c-0.316-3.219-1.646-14.098-1.994-16.115c-0.352-2.016-4.612-8.15-7.78-9.838c-3.171-1.689-5.332-11.385-6.043-15.016
			c-0.71-3.633,0.309-12.043-3.221-15.348c-3.53-3.301-9.478-6.266-9.478-6.266l-6.536,4.252l-10.589,5.752
			c-8.74-3.84-16.529,2.389-16.529,2.389l-4.908,3.486c0,0-3.129-3.293-3.088-4.898s-2.141-10.496-2.141-10.496
			s-3.252,1.521-3.305,3.529c-0.05,2.006-1.348,5.588-1.348,5.588c-6.875,1.832-7.43,7.842-7.43,7.842l-1.678,34.098l-5.342,51.672
			l-2.789-0.873c0,0,1.439-24.865,1.543-28.877c0.104-4.016-0.195-8.041-0.195-8.041l-2.677-5.287
			c0.558-21.676,1.227-32.1,1.227-32.1c-3.982-1.309-4.899,3.086-4.899,3.086l-0.648,9.623l-3.416,7.945l-0.083-12.453
			c0.585-7.215-5.804-8.584-5.804-8.584c-1.801-8.078-4.324-3.727-4.324-3.727l-1.224,16.438l-2.933,4.744
			c0,0-0.341,13.244-0.392,15.252c-0.052,2.006,1.997,16.117-3.818,7.934c-5.814-8.18-7.285-29.104-7.285-29.104
			c-0.999-8.059-4.507-12.164-4.507-12.164l-15.007,5.641c0,0-6.677,9.869-9.427,7.387c-2.748-2.479-3.416-7.717-3.416-7.717
			l6.627-7.863l0.238-24.895c-6.299-4.98-4.365-17.785-4.365-17.785c1.883-10.797-1.77-9.283-1.77-9.283
			c-4.486,2.695-20.151,2.695-20.151,2.695l-9.735,3.77l-12.35,11.73l-0.959,6c-2.449,1.545-1.717,4.373-1.717,4.373l-0.557,21.676
			L-9.14,713.688z"/>
		<path fill="#AB7F39" d="M9.458,649.736c-3.674,2.316-17.383,4.373-17.383,4.373l-0.957,6l16.527-2.387L9.458,649.736z"/>
		<polygon fill="#AB7F39" points="5.474,664.094 -10.652,666.49 -11.158,686.158 -9.142,701.475 6.235,697.045 		"/>
		<path fill="#AB7F39" d="M5.977,719.293l-16.219,6.018c0,0,2.367,1.672,3.035,6.912c0.67,5.236,6.557,26.285,6.557,26.285
			l17.125-10.027C11.331,745.537,5.977,719.293,5.977,719.293"/>
		<polygon fill="#C4934B" points="5.474,664.094 40.445,662.982 40.208,687.877 6.235,697.045 		"/>
		<path fill="#C4934B" d="M5.977,719.293l31.02-3.623c0,0-9.418,6.99-8.749,27.891l-11.772,4.92c0,0-3.953-2.512-7.276-13.842
			L5.977,719.293z"/>
		<path fill="#C4934B" d="M14.16,638.611c0,0-1.533,12.813,10.468,14.727l11.207,1.492l-28.189,2.893l1.812-7.986L14.16,638.611z"/>
		<path fill="#CCA96A" d="M7.645,657.723l-2.171,6.371l34.972-1.111c0,0-3.524-3.572-4.213-8.008L7.645,657.723z"/>
		<path fill="#CCA96A" d="M7.347,712.902l-1.37,6.391l31.02-3.623c-2.748-2.477-3.416-7.717-3.416-7.717l6.626-7.863l-33.972,9.168
			L7.347,712.902z"/>
		<path fill="#CCA96A" d="M17.885,649.951c0,0,3.881,5.322,17.949,4.881l0.376-0.146c-0.835-4.805-0.13-9.488-0.13-9.488
			c1.883-10.795-1.77-9.283-1.77-9.283c-4.486,2.697-20.151,2.697-20.151,2.697l-0.269,0.104
			C14.102,642.021,14.908,647.666,17.885,649.951"/>
		<path fill="#AB7F39" d="M11.945,807.467c2.429-3.309,5.987-8.203,6.465-9.133c0.915-1.785,15.592-28.521,15.685-32.131
			c0.092-3.613,4.733-12.33,7.163-13.07c2.428-0.74,3.139-12.771,3.139-12.771l15.992-28.508
			c-22.682,7.451-23.392,3.816-23.392,3.816c-4.103,3.377-6.088,8.93-7.238,13.27c-1.923,7.248-1.511,14.623-1.511,14.623
			l-2.655,9.57l-7.718,3.416l-4.918,3.891l-7.69,2.262l-5.715,3.52l-1.811,41.246H11.945z"/>
		<polygon fill="#CCA96A" points="16.475,748.48 17.875,756.549 25.592,753.133 28.248,743.561 		"/>
		<path fill="#CCA96A" d="M61.357,721.115l-1.904,11.6c0,0,8.406,11.824,15.443,13.148c-0.468-0.406-1.019-1.031-1.675-1.953
			c-5.813-8.18-7.285-29.104-7.285-29.104c-0.084-0.674-0.191-1.314-0.308-1.936l-0.041-0.082L61.357,721.115z"/>
		<polygon fill="#C89A43" points="7.347,700.689 31.12,697.684 6.674,703.418 		"/>
		<path fill="#AB7F39" d="M74.272,749.963l-5.301,3.076l-12.326,0.354l10.484,37.555l10.641-36.479l2.854-6.752l1.954-8.385
			l-0.308-19.287l2.521-4.354l1.121-12.422c-1.801-8.078-4.324-3.727-4.324-3.727l-1.224,16.438l-2.934,4.744
			c0,0-0.34,13.244-0.392,15.252c-0.037,1.498,1.093,9.74-0.751,10.416l0.073,0.41L74.272,749.963z"/>
		<path fill="#C4934B" d="M96.726,807.467l-12.75-44.402l3.983-14.355l0.031-16.869l-0.33-18.484l-1.748-10.086l-1.121,12.424
			l-2.521,4.352l0.307,19.287c0,0-1.019,8.406-4.805,15.137l-10.633,36.674L56.52,753.121l4.837-32.006l4.229-8.326
			c0,0-0.648-6.041-4.158-10.146l-1.039,9.211l-15.993,28.508c0,0-0.571,11.766-3.14,12.771c-1.678,0.656-5.415,4.949-7.162,13.07
			l-7.529,16.945l-8.438,15.713l-6.227,8.605H96.726z"/>
		<polygon fill="#AB7F39" points="91.799,724.307 88.055,734.52 87.961,748.709 83.977,763.064 88.279,778.033 93.034,754.459 
			94.628,739.238 95.74,727.219 95.215,716.361 		"/>
		<path fill="#CCA96A" d="M89.926,719.037c0.771,1.223,1.873,5.27,1.873,5.27l-0.083-12.453c0.585-7.217-5.804-8.584-5.804-8.584
			l1.697,12.094C87.61,715.363,89.154,717.813,89.926,719.037"/>
		<path fill="#CCA96A" d="M99.488,735.752l-1.345,6.389l2.709,35.814l0.027-0.229c0.141-2.455,1.433-24.855,1.529-28.646
			c0.104-4.016-0.195-8.041-0.195-8.041l-2.676-5.287c0.557-21.676,1.225-32.1,1.225-32.1c-2.48-0.814-3.771,0.582-4.391,1.754
			l2.182,2.205L99.488,735.752z"/>
		<path fill="#AB7F39" d="M110.674,807.467l5.184-39.967l1.727-22.852l4.627-36.961l-4.107-22.469
			c-6.875,1.832-7.43,7.842-7.43,7.842l-1.678,34.096l-5.342,51.674l-5.727,28.637H110.674z"/>
		<polygon fill="#C4934B" points="122.211,707.688 147.282,711.543 141.808,737.105 117.657,744.449 		"/>
		<path fill="#CCA96A" d="M125.915,681.643c1.996,0.451,7.133,3.797,9.89,5.875c2.761,2.08,11.478,11.814,11.478,11.814
			l-8.574-15.354l-10.723-4.695c0,0-3.129-3.293-3.088-4.896c0.041-1.605-2.141-10.498-2.141-10.498s-3.252,1.523-3.305,3.531
			c-0.051,2.006-1.348,5.588-1.348,5.588S123.918,681.188,125.915,681.643"/>
		<path fill="#AB7F39" d="M147.282,711.543l-5.474,25.563l-4.779,8.846l1.392,8.467l0.644,27.068c0,0,2.884,7.564,13.608,12.258
			l-1.07-20.912c0,0-2.666-5.691,7.533-11.857c10.201-6.162,5.773-21.539,5.773-21.539l-5.453-22.23l-13.172-18.813l-5.882-13.711
			c-4.442,0.877-7.509,3.328-7.509,3.328l-4.908,3.486l10.723,4.695L147.282,711.543z"/>
		<path fill="#C4934B" d="M160.772,759.813l34.816-10.754c0,0,0.082-0.088,0.215-0.234c-0.344-5.373-0.639-9.611-0.74-10.625
			c-0.318-3.221-1.646-14.098-1.995-16.115c-0.351-2.018-4.611-8.15-7.78-9.838l-25.83,4.959L160.772,759.813z"/>
		<path fill="#CCA96A" d="M189.196,794.682l35.609-10.334c0,0,1.039-9.211-3.375-9.324c-4.416-0.113-24.639,5.393-24.195,3.799
			c0,0-6.587,6.256-7.42,7.441C188.983,787.445,189.196,794.682,189.196,794.682"/>
		<path fill="#C4934B" d="M221.069,807.467l1.997-2.277c0,0,0.599-2.553,1.361-5.426c0.86-3.242,1.931-6.893,2.591-7.727
			c1.246-1.574,1.276-2.779-2.213-7.689l-35.562,10.32c-0.017-0.002-0.03-0.006-0.044-0.008l0.615-8.396l7.42-7.441l-45.993-7.607
			l1.433,22.529c-0.654-0.398-3.199-1.68-3.832-2.039c-7.06-3.996-9.778-10.221-9.778-10.221l-0.646-27.066l-21.619-0.082
			l-0.771,11.559l-5.257,41.572H221.069z"/>
		<path fill="#CCA96A" d="M146.282,698.393l13.174,18.813l25.833-4.959c-3.173-1.689-5.333-11.385-6.043-15.016
			c-0.71-3.633,0.309-12.043-3.221-15.346c-3.53-3.303-9.479-6.268-9.479-6.268l-6.534,4.25l-10.589,5.754
			c-3.258-1.43-6.38-1.463-9.02-0.939L146.282,698.393z"/>
		<polyline fill="#CCA96A" points="160.772,759.813 196.344,758.717 196.78,765.287 159.135,760.973 		"/>
		<polygon fill="#CCA96A" points="117.383,744.643 137.03,745.951 137.552,749.045 		"/>
	</g>
	<g>
		<g>
			<path fill="#A88A22" d="M745.504,748.752c0,0,14.781-13.332,30.949,5.375c0,0,0.297,0.5,0.277,0.873
				c-0.025,0.543-0.514,0.887-1.857-0.4c0,0-10.078-11.717-24.486-1.676C750.387,752.924,745.77,751.828,745.504,748.752"/>
			<path fill="#95791F" d="M749.338,752.223l1.352,0.496c14.246-9.67,24.184,1.881,24.184,1.881c1.344,1.287,1.834,0.943,1.857,0.4
				c0-0.008-0.002-0.02,0-0.027c-1.246-1.447-3.619-3.299-8.068-5.48C757.15,743.846,749.338,752.223,749.338,752.223"/>
			<path fill="#C1A450" d="M772.551,750.207l0.012-0.016c-14.57-12.697-27.059-1.439-27.059-1.439
				c0.057,0.654,0.311,1.219,0.676,1.703C748.941,748.281,760.457,740.453,772.551,750.207"/>
			<path fill="#FDFBF1" d="M737.373,744.721c0,0-7.818-0.232-9.982,5.027c0,0-10.318-0.414-8.232,10.729
				c0,0,1.234,5.316,7.574,4.207c0,0,1.447,11.787,13.484,7.648c0,0,11.125,13.059,29.441,9.285c0,0,1.965-0.348-0.221-2.35
				c-1.057-0.967,1.432-0.238,2.84-0.627c1.408-0.391,1.916-1.93-0.912-4.357c-2.828-2.424-5.148-7.033-5.219-9.402
				c-0.072-2.371-3.238-3.771-5.996-4.467c-2.758-0.697-4.066-2.766-3.994-6.439C756.227,750.529,748.568,738.596,737.373,744.721"
				/>
			<path fill="#DDD4B3" d="M742.705,769.313c-3.545-0.033-7.357-2.713-3.346-4.52c4.008-1.807,2.207-4.535,2.207-4.535
				c-1.916-2.766-4.969-3.949-7.197-3.193c-3.717,1.262-6.338,6.268-6.338,6.268s1.785-3.678-2.582-5.973
				c-3.994-2.098-6.215-0.164-6.564,0.18c-0.014,0.877,0.07,1.852,0.273,2.938c0,0,1.232,5.316,7.574,4.205
				c0,0,1.447,11.787,13.484,7.65c0,0,9.34,10.959,24.992,9.893C749.395,781.975,742.705,769.313,742.705,769.313"/>
			<path fill="#DDD4B3" d="M730.002,750.467c0,0,0.668-4.615,7.371-5.746c0,0-7.818-0.232-9.982,5.027
				C727.391,749.748,728.801,749.789,730.002,750.467"/>
			<path fill="#46462C" d="M732.945,759.441c0,0-2.926,3.506-1.182,6.494c1.746,2.99,3.797,4.607,6.588,4.111
				c2.264-0.402,1.242-2.48-0.674-4.285c-1.494-1.408,3.439-2.648,1.244-5.865c-0.848-1.24-1.785-1.881-2.721-1.9
				C734.5,757.957,732.945,759.441,732.945,759.441"/>
			<path fill="#46462C" d="M755.43,767.391c0,0,0.381,1.24,1.441,2.967c2.17,3.527,6.238,9.051,9.109,9.904
				c4.271,1.266,1.234-1.158,0.072-4.104c0,0,3.637,2.342,4.793,1.867c1.15-0.473-2.363-4.053-2.838-5.205
				c-0.473-1.15-2.123-4.166-2.797-6.611c-0.779-2.818-3.564-6.014-5.049-2.379C758.678,767.467,755.59,763.889,755.43,767.391"/>
			<path fill="#DDD4B3" d="M740.943,752.654c0,0,5.383-0.359,6.42,3.826c0,0,1.182,5.475,9.854,8.086c0,0,1.58-0.049-0.646-1.494
				s-7.859-3.018-8.174-8.1c0,0,0.115-3.592,2.24-4.527c0,0-2.176,0.988-2.725,3.512
				C747.912,753.957,743.764,751.879,740.943,752.654"/>
			<path fill="#C7BB9A" d="M740.084,771.113c-10.887,2.92-12.555-7.875-12.555-7.875c-5.105,1.072-7.498-1.195-7.961-1.703
				c0.74,1.488,2.668,3.934,7.164,3.148c0,0,1.447,11.785,13.482,7.648c0,0,6.27,7.357,17.145,9.432
				C746.693,779.086,740.084,771.113,740.084,771.113"/>
			<path fill="#A88A22" d="M707.203,775.355c0,0-0.504-17.668,15.588-17.313c0,0,6.723,1.164,4.395,7.172
				c0,0-17.529-2.926-18.279,9.664C708.906,774.879,708.033,777.744,707.203,775.355"/>
			<path fill="#95791F" d="M708.113,776.25c0.455-0.264,0.793-1.371,0.793-1.371c0.75-12.59,18.277-9.664,18.277-9.664
				c0.479-1.234,0.57-2.262,0.422-3.119c-1.852-0.242-4.682-0.102-8.998,1.004C707.563,765.928,708.102,776.029,708.113,776.25"/>
			<path fill="#C1A450" d="M725.414,759.334l0.256-0.092c-1.346-0.932-2.877-1.199-2.877-1.199
				c-10.82-0.238-14.133,7.662-15.146,12.871C708.576,768.072,712.748,758.184,725.414,759.334"/>
			<path fill="#DDD4B3" d="M760.125,760.49l-0.006,0.055c-0.004-0.002-0.008-0.004-0.01-0.006c-2.695-0.887-4.045-2.826-3.973-6.502
				c0.02-1.078-0.707-3.023-2.072-4.953c0.25,1,0.941,4.08,0.977,7.412C755.086,760.566,760.125,760.49,760.125,760.49"/>
		</g>
	</g>
</g>
<path opacity="0.7" fill="#EFD3A2" d="M657.703,214.781c1.227-1.608,2.875-2.872,4.787-3.625c-0.014-0.261-0.041-0.517-0.041-0.782
	c0-9.112,7.387-16.498,16.5-16.498c8.082,0,14.793,5.814,16.211,13.485c4.348,0.877,7.775,4.281,8.695,8.613h0.002
	c0,0,4.207,11.87,35.102,11.87H571.75c5.164-0.003,69.75-0.293,85.951-13.063H657.703z"/>
<path opacity="0.7" fill="#EFD3A2" d="M234.948,182.251c-2.179,0-4.129,0.956-5.471,2.466c-0.677,0.39-6.264,3.375-12.936,0.051
	c-1.674-2.511-4.529-4.166-7.772-4.166c-0.981,0-1.928,0.154-2.817,0.435c-1.451-3.274-4.723-5.56-8.535-5.56
	c-0.625,0-1.235,0.064-1.826,0.181c-1.617-5.45-6.661-9.426-12.635-9.426c-7.28,0-13.183,5.9-13.183,13.181
	c0,0.66,0.05,1.308,0.144,1.942c-2.041,0.587-3.713,2.026-4.621,3.909c-2.063,1.235-17.475,8.612-91.451,8.612h241.654
	c0,0-61.543-2.829-74.061-7.685C240.216,183.85,237.771,182.251,234.948,182.251"/>
<path opacity="0.7" fill="#EFD3A2" d="M244.537,537.045c-2.179,0-4.129,0.957-5.471,2.467c-0.677,0.39-6.264,3.375-12.936,0.051
	c-1.674-2.512-4.529-4.166-7.772-4.166c-0.981,0-1.928,0.154-2.817,0.435c-1.451-3.274-4.723-5.56-8.535-5.56
	c-0.625,0-1.235,0.064-1.826,0.181c-1.617-5.45-6.661-9.426-12.635-9.426c-7.28,0-13.183,5.899-13.183,13.181
	c0,0.66,0.05,1.309,0.144,1.942c-2.041,0.587-3.713,2.026-4.621,3.909c-2.063,1.234-17.475,8.611-91.451,8.611h241.654
	c0,0-61.543-2.828-74.061-7.685C249.806,538.645,247.36,537.045,244.537,537.045"/>
<path opacity="0.7" fill="#EFD3A2" d="M439.703,444.781c1.227-1.608,2.875-2.873,4.787-3.625c-0.014-0.262-0.041-0.518-0.041-0.782
	c0-9.112,7.387-16.498,16.5-16.498c8.082,0,14.793,5.813,16.211,13.485c4.348,0.877,7.775,4.28,8.695,8.612h0.002
	c0,0,4.207,11.87,35.102,11.87H353.75c5.164-0.003,69.75-0.293,85.951-13.063H439.703z"/>
<path opacity="0.7" fill="#EFD3A2" d="M215.045,105.329c1.227-1.608,2.875-2.873,4.787-3.625c-0.014-0.262-0.041-0.518-0.041-0.782
	c0-9.112,7.387-16.498,16.5-16.498c8.082,0,14.793,5.813,16.211,13.485c4.348,0.877,7.775,4.28,8.695,8.612h0.002
	c0,0,4.207,11.87,35.102,11.87H129.092c5.164-0.003,69.75-0.293,85.951-13.063H215.045z"/>
<g>
	<polygon fill="#BE0411" points="367.911,-6.726 368.34,33.035 397.412,51.396 432.604,29.464 465.754,49.865 500.943,29.464 
		534.605,51.396 569.289,28.955 603.457,50.885 637.631,29.464 670.779,50.885 705.463,29.975 740.141,50.885 773.293,28.445 
		807.977,50.885 826.914,38.552 826.914,-6.726 	"/>
	<polygon fill="#BE0411" points="-37.931,-6.726 -39.502,9.301 -39.502,34.505 -12.759,51.396 22.432,29.464 55.583,49.865 
		90.774,29.464 124.435,51.396 159.119,28.955 193.289,50.885 227.461,29.464 260.61,50.885 295.292,29.975 329.974,50.885 
		363.125,28.445 397.808,50.885 419.736,36.604 420.135,-6.726 	"/>
	<polygon fill="#801723" points="328.77,48.071 294.671,26.651 260.575,48.071 226.473,26.651 192.38,48.071 158.287,26.651 
		124.195,48.071 90.101,26.651 56.009,48.071 21.917,26.651 -12.18,48.071 -39.503,30.905 -39.503,36.327 -12.18,53.494 
		21.917,32.073 56.009,53.494 90.101,32.073 124.195,53.494 158.287,32.073 192.38,53.494 226.473,32.073 260.575,53.494 
		294.671,32.073 328.77,53.494 362.871,32.073 396.978,53.494 424.645,36.307 422.203,32.421 396.978,48.071 362.871,26.651 	"/>
	<polygon fill="#801723" points="739.41,48.071 705.311,26.651 671.213,48.071 637.113,26.651 603.02,48.071 568.926,26.651 
		534.834,48.071 500.742,26.651 466.65,48.071 432.559,26.651 398.46,48.071 367.005,28.836 364.562,32.722 398.46,53.494 
		432.559,32.073 466.65,53.494 500.742,32.073 534.834,53.494 568.926,32.073 603.02,53.494 637.113,32.073 671.213,53.494 
		705.311,32.073 739.41,53.494 773.51,32.073 807.617,53.494 826.914,40.858 826.914,35.386 807.617,48.071 773.51,26.651 	"/>
	<g>
		<g>
			<path fill="#FFFFFF" d="M-2.75,30.137c-0.675-1.07-0.353-2.494,0.717-3.166c1.073-0.674,2.495-0.354,3.169,0.718
				c0.672,1.071,0.352,2.494-0.721,3.168c-0.384,0.244-0.812,0.351-1.224,0.351C-1.574,31.208-2.323,30.826-2.75,30.137
				 M8.601,22.992c-0.674-1.07-0.352-2.494,0.732-3.167c1.074-0.673,2.481-0.353,3.169,0.734c0.656,1.072,0.337,2.479-0.731,3.152
				c-0.383,0.245-0.798,0.351-1.21,0.351C9.794,24.063,9.043,23.681,8.601,22.992"/>
			<path fill="#FFFFFF" d="M21.913,16.933c-0.598,0-1.192-0.245-1.622-0.673c-0.427-0.428-0.673-1.023-0.673-1.622
				c0-0.611,0.246-1.209,0.673-1.636c0.856-0.844,2.386-0.844,3.245,0c0.428,0.427,0.673,1.025,0.673,1.636
				c0,0.598-0.245,1.194-0.673,1.622C23.105,16.688,22.525,16.933,21.913,16.933"/>
			<path fill="#FFFFFF" d="M43.426,30.858c-1.073-0.674-1.394-2.097-0.721-3.169c0.672-1.07,2.08-1.392,3.168-0.718
				c1.071,0.672,1.393,2.097,0.72,3.166c-0.444,0.689-1.195,1.072-1.944,1.072C44.221,31.208,43.808,31.086,43.426,30.858
				 M32.058,23.712c-1.073-0.674-1.393-2.082-0.72-3.153c0.671-1.087,2.094-1.408,3.167-0.734c1.07,0.674,1.393,2.096,0.718,3.167
				c-0.443,0.689-1.177,1.071-1.942,1.071C32.869,24.063,32.441,23.957,32.058,23.712"/>
			<path fill="#FFFFFF" d="M56.018,38.354c-0.611,0-1.208-0.244-1.637-0.672c-0.431-0.428-0.657-1.025-0.657-1.623
				c0-0.612,0.227-1.209,0.657-1.622c0.855-0.857,2.403-0.857,3.258,0c0.416,0.413,0.656,1.009,0.656,1.622
				c0,0.597-0.24,1.194-0.656,1.623C57.211,38.109,56.614,38.354,56.018,38.354"/>
			<path fill="#FFFFFF" d="M65.427,30.137c-0.673-1.07-0.35-2.494,0.719-3.166c1.088-0.674,2.495-0.354,3.169,0.718
				c0.672,1.071,0.352,2.494-0.721,3.168c-0.383,0.244-0.81,0.351-1.221,0.351C66.608,31.208,65.873,30.826,65.427,30.137
				 M76.796,22.992c-0.675-1.07-0.352-2.494,0.719-3.167c1.072-0.673,2.494-0.353,3.167,0.734c0.672,1.072,0.353,2.479-0.719,3.152
				c-0.384,0.245-0.811,0.351-1.224,0.351C77.974,24.063,77.223,23.681,76.796,22.992"/>
			<path fill="#FFFFFF" d="M90.092,16.933c-0.596,0-1.177-0.245-1.622-0.673c-0.428-0.428-0.673-1.023-0.673-1.622
				c0-0.611,0.261-1.194,0.673-1.621c0.856-0.859,2.401-0.859,3.26,0c0.413,0.427,0.657,1.01,0.657,1.621
				c0,0.598-0.229,1.194-0.657,1.622C91.299,16.688,90.705,16.933,90.092,16.933"/>
			<path fill="#FFFFFF" d="M111.606,30.858c-1.073-0.674-1.393-2.097-0.72-3.169c0.672-1.07,2.095-1.392,3.167-0.718
				c1.07,0.672,1.394,2.097,0.717,3.166c-0.426,0.689-1.177,1.072-1.942,1.072C112.416,31.208,111.988,31.086,111.606,30.858
				 M100.25,23.712c-1.085-0.674-1.408-2.082-0.732-3.167c0.671-1.072,2.096-1.393,3.167-0.72c1.071,0.674,1.39,2.096,0.719,3.167
				c-0.43,0.689-1.178,1.071-1.943,1.071C101.047,24.063,100.617,23.957,100.25,23.712"/>
			<path fill="#FFFFFF" d="M124.195,38.354c-0.593,0-1.19-0.244-1.618-0.672c-0.432-0.428-0.674-1.025-0.674-1.623
				c0-0.612,0.242-1.194,0.674-1.622c0.855-0.857,2.385-0.872,3.241,0c0.43,0.428,0.673,1.009,0.673,1.622
				c0,0.597-0.243,1.194-0.673,1.623C125.391,38.109,124.794,38.354,124.195,38.354"/>
			<path fill="#FFFFFF" d="M133.621,30.137c-0.671-1.07-0.352-2.494,0.72-3.166c1.07-0.674,2.494-0.354,3.171,0.718
				c0.67,1.071,0.333,2.494-0.722,3.168c-0.381,0.244-0.81,0.351-1.225,0.351C134.798,31.208,134.052,30.826,133.621,30.137
				 M144.974,22.992c-0.672-1.07-0.352-2.494,0.721-3.167c1.084-0.673,2.492-0.353,3.167,0.72c0.673,1.086,0.352,2.493-0.72,3.167
				c-0.383,0.245-0.795,0.351-1.225,0.351C146.17,24.063,145.418,23.681,144.974,22.992"/>
			<path fill="#FFFFFF" d="M158.287,16.933c-0.611,0-1.193-0.245-1.622-0.673c-0.427-0.428-0.672-1.023-0.672-1.622
				c0-0.611,0.245-1.194,0.672-1.636c0.857-0.844,2.389-0.844,3.243,0c0.43,0.442,0.674,1.025,0.674,1.636
				c0,0.598-0.244,1.194-0.674,1.622C159.479,16.688,158.897,16.933,158.287,16.933"/>
			<path fill="#FFFFFF" d="M179.798,30.858c-1.084-0.674-1.408-2.097-0.732-3.169c0.688-1.07,2.096-1.392,3.166-0.718
				c1.07,0.672,1.391,2.097,0.719,3.166c-0.428,0.689-1.178,1.072-1.941,1.072C180.597,31.208,180.166,31.086,179.798,30.858
				 M168.429,23.712c-1.069-0.674-1.393-2.082-0.715-3.153c0.67-1.087,2.078-1.408,3.162-0.734c1.074,0.674,1.393,2.096,0.721,3.167
				c-0.441,0.689-1.191,1.071-1.941,1.071C169.226,24.063,168.812,23.957,168.429,23.712"/>
			<path fill="#FFFFFF" d="M192.377,38.339c-0.599,0-1.192-0.23-1.626-0.658c-0.426-0.428-0.67-1.025-0.67-1.623
				c0-0.612,0.244-1.194,0.67-1.621c0.859-0.857,2.389-0.857,3.248-0.016c0.427,0.442,0.672,1.024,0.672,1.636
				c0,0.597-0.245,1.195-0.672,1.623C193.568,38.109,192.989,38.339,192.377,38.339"/>
			<path fill="#FFFFFF" d="M201.801,30.137c-0.672-1.07-0.353-2.494,0.72-3.166c1.069-0.674,2.494-0.354,3.166,0.718
				c0.675,1.071,0.352,2.494-0.717,3.168c-0.383,0.244-0.813,0.351-1.227,0.351C202.978,31.208,202.229,30.826,201.801,30.137
				 M213.169,22.992c-0.674-1.07-0.353-2.494,0.721-3.167c1.068-0.673,2.492-0.353,3.166,0.72c0.674,1.086,0.352,2.493-0.719,3.167
				c-0.384,0.245-0.811,0.351-1.225,0.351C214.346,24.063,213.596,23.681,213.169,22.992"/>
			<path fill="#FFFFFF" d="M226.464,16.933c-0.594,0-1.191-0.245-1.619-0.673c-0.415-0.428-0.66-1.023-0.66-1.622
				c0-0.611,0.245-1.209,0.66-1.636c0.855-0.844,2.4-0.844,3.257,0c0.413,0.427,0.657,1.025,0.657,1.636
				c0,0.598-0.244,1.194-0.657,1.622C227.674,16.688,227.076,16.933,226.464,16.933"/>
			<path fill="#FFFFFF" d="M247.978,30.858c-1.068-0.674-1.393-2.097-0.721-3.169c0.676-1.07,2.099-1.392,3.17-0.718
				c1.07,0.672,1.391,2.08,0.718,3.166c-0.427,0.689-1.177,1.072-1.94,1.072C248.79,31.208,248.361,31.101,247.978,30.858
				 M236.625,23.712c-1.085-0.674-1.406-2.082-0.734-3.167c0.676-1.072,2.098-1.393,3.166-0.72c1.074,0.674,1.395,2.096,0.723,3.167
				c-0.432,0.689-1.179,1.071-1.943,1.071C237.419,24.063,236.994,23.957,236.625,23.712"/>
			<path fill="#FFFFFF" d="M260.572,38.354c-0.599,0-1.195-0.244-1.625-0.672c-0.426-0.428-0.67-1.025-0.67-1.623
				c0-0.612,0.244-1.194,0.67-1.622c0.859-0.857,2.389-0.857,3.248,0c0.427,0.428,0.672,1.009,0.672,1.622
				c0,0.597-0.245,1.194-0.672,1.623C261.763,38.109,261.168,38.354,260.572,38.354"/>
			<path fill="#FFFFFF" d="M269.998,30.137c-0.676-1.07-0.354-2.494,0.717-3.166c1.072-0.674,2.495-0.354,3.168,0.718
				c0.674,1.071,0.352,2.494-0.718,3.168c-0.382,0.244-0.813,0.351-1.226,0.351C271.175,31.208,270.425,30.826,269.998,30.137
				 M281.365,22.992c-0.673-1.07-0.354-2.494,0.72-3.167c1.071-0.673,2.493-0.353,3.165,0.72c0.675,1.086,0.354,2.493-0.717,3.167
				c-0.385,0.245-0.814,0.351-1.226,0.351C282.541,24.063,281.793,23.681,281.365,22.992"/>
			<path fill="#FFFFFF" d="M294.673,16.933c-0.607,0-1.19-0.245-1.617-0.673c-0.432-0.428-0.677-1.023-0.677-1.622
				c0-0.611,0.245-1.194,0.677-1.636c0.84-0.844,2.384-0.844,3.24,0c0.429,0.427,0.674,1.025,0.674,1.636
				c0,0.598-0.245,1.194-0.674,1.622C295.871,16.688,295.271,16.933,294.673,16.933"/>
			<path fill="#FFFFFF" d="M316.188,30.858c-1.084-0.674-1.405-2.097-0.735-3.169c0.69-1.07,2.098-1.392,3.17-0.718
				c1.07,0.672,1.405,2.08,0.717,3.166c-0.43,0.689-1.176,1.072-1.939,1.072C316.984,31.208,316.556,31.101,316.188,30.858
				 M304.82,23.712c-1.072-0.674-1.393-2.082-0.72-3.167c0.677-1.072,2.083-1.393,3.153-0.72c1.084,0.674,1.407,2.096,0.734,3.167
				c-0.445,0.689-1.195,1.071-1.945,1.071C305.615,24.063,305.203,23.957,304.82,23.712"/>
			<path fill="#FFFFFF" d="M328.767,38.354c-0.599,0-1.196-0.244-1.625-0.672c-0.426-0.428-0.67-1.025-0.67-1.623
				c0-0.612,0.244-1.194,0.67-1.637c0.859-0.841,2.403-0.841,3.244,0c0.43,0.443,0.676,1.025,0.676,1.637
				c0,0.597-0.246,1.179-0.676,1.623C329.958,38.109,329.375,38.354,328.767,38.354"/>
			<path fill="#FFFFFF" d="M338.193,30.137c-0.676-1.07-0.354-2.494,0.731-3.166c1.073-0.674,2.479-0.354,3.153,0.718
				c0.672,1.071,0.352,2.494-0.721,3.168c-0.383,0.229-0.795,0.351-1.223,0.351C339.37,31.208,338.633,30.826,338.193,30.137
				 M349.559,22.992c-0.677-1.07-0.353-2.494,0.718-3.167c1.074-0.673,2.496-0.353,3.167,0.734c0.676,1.072,0.354,2.479-0.717,3.152
				c-0.384,0.245-0.813,0.351-1.225,0.351C350.736,24.063,350.003,23.681,349.559,22.992"/>
			<path fill="#FFFFFF" d="M362.871,16.933c-0.598,0-1.192-0.245-1.623-0.673c-0.428-0.428-0.673-1.023-0.673-1.622
				c0-0.611,0.245-1.209,0.673-1.621c0.858-0.859,2.388-0.859,3.244,0c0.428,0.412,0.673,1.01,0.673,1.621
				c0,0.598-0.245,1.194-0.673,1.622C364.066,16.688,363.467,16.933,362.871,16.933"/>
			<path fill="#FFFFFF" d="M384.382,30.858c-1.07-0.674-1.391-2.097-0.72-3.169c0.675-1.07,2.099-1.392,3.17-0.718
				c1.068,0.672,1.391,2.097,0.718,3.166c-0.43,0.689-1.181,1.072-1.945,1.072C385.193,31.208,384.766,31.101,384.382,30.858
				 M373.015,23.712c-1.072-0.674-1.391-2.082-0.72-3.153c0.673-1.087,2.099-1.408,3.169-0.734c1.068,0.674,1.392,2.096,0.718,3.167
				c-0.43,0.689-1.179,1.071-1.944,1.071C373.825,24.063,373.398,23.957,373.015,23.712"/>
			<path fill="#FFFFFF" d="M396.978,38.354c-0.6,0-1.196-0.244-1.625-0.672c-0.428-0.428-0.671-1.025-0.671-1.623
				c0-0.612,0.243-1.194,0.671-1.622c0.858-0.857,2.388-0.857,3.244-0.016c0.43,0.443,0.675,1.025,0.675,1.637
				c0,0.597-0.245,1.194-0.675,1.623C398.168,38.109,397.571,38.354,396.978,38.354"/>
			<path fill="#FFFFFF" d="M406.402,30.137c-0.676-1.07-0.354-2.494,0.717-3.166c1.072-0.674,2.494-0.354,3.168,0.718
				c0.672,1.071,0.354,2.494-0.721,3.168c-0.381,0.244-0.809,0.351-1.223,0.351C407.58,31.208,406.844,30.826,406.402,30.137
				 M417.77,22.992c-0.676-1.07-0.352-2.494,0.717-3.167c1.072-0.673,2.498-0.353,3.168,0.72c0.674,1.086,0.354,2.493-0.717,3.167
				c-0.383,0.245-0.797,0.351-1.225,0.351C418.947,24.063,418.211,23.681,417.77,22.992"/>
			<path fill="#FFFFFF" d="M433.758,16.933c-0.607,0-1.207-0.245-1.621-0.673c-0.43-0.428-0.674-1.023-0.674-1.622
				c0-0.611,0.244-1.209,0.674-1.636c0.842-0.844,2.371-0.844,3.242,0c0.43,0.427,0.674,1.025,0.674,1.636
				c0,0.598-0.244,1.194-0.674,1.622C434.953,16.688,434.355,16.933,433.758,16.933"/>
			<path fill="#FFFFFF" d="M455.258,30.858c-1.072-0.674-1.395-2.097-0.721-3.169c0.674-1.07,2.098-1.392,3.166-0.718
				c1.072,0.672,1.393,2.097,0.721,3.166c-0.432,0.689-1.178,1.072-1.943,1.072C456.066,31.208,455.639,31.086,455.258,30.858
				 M443.904,23.712c-1.09-0.674-1.408-2.082-0.734-3.153c0.67-1.087,2.096-1.408,3.166-0.734c1.07,0.674,1.393,2.096,0.721,3.167
				c-0.432,0.689-1.18,1.071-1.945,1.071C444.699,24.063,444.271,23.957,443.904,23.712"/>
			<path fill="#FFFFFF" d="M467.848,38.354c-0.598,0-1.195-0.244-1.621-0.672c-0.428-0.428-0.672-1.025-0.672-1.623
				c0-0.612,0.244-1.209,0.672-1.637c0.857-0.841,2.387-0.841,3.242,0c0.43,0.443,0.674,1.025,0.674,1.637
				c0,0.597-0.244,1.194-0.674,1.623C469.041,38.109,468.443,38.354,467.848,38.354"/>
			<path fill="#FFFFFF" d="M477.273,30.137c-0.674-1.07-0.352-2.494,0.717-3.166c1.074-0.674,2.496-0.354,3.17,0.718
				c0.67,1.071,0.352,2.494-0.721,3.168c-0.383,0.244-0.813,0.351-1.223,0.351C478.451,31.208,477.701,30.826,477.273,30.137
				 M488.625,22.992c-0.674-1.07-0.352-2.494,0.734-3.167c1.072-0.673,2.48-0.353,3.168,0.734c0.656,1.072,0.336,2.479-0.732,3.152
				c-0.383,0.245-0.797,0.351-1.209,0.351C489.818,24.063,489.068,23.681,488.625,22.992"/>
			<path fill="#FFFFFF" d="M501.938,16.933c-0.598,0-1.193-0.245-1.623-0.673c-0.426-0.428-0.672-1.023-0.672-1.622
				c0-0.611,0.246-1.209,0.672-1.636c0.857-0.844,2.387-0.844,3.246,0c0.428,0.427,0.672,1.025,0.672,1.636
				c0,0.598-0.244,1.194-0.672,1.622C503.129,16.688,502.549,16.933,501.938,16.933"/>
			<path fill="#FFFFFF" d="M523.451,30.858c-1.074-0.674-1.395-2.097-0.721-3.169c0.672-1.07,2.08-1.392,3.166-0.718
				c1.072,0.672,1.393,2.097,0.721,3.166c-0.445,0.689-1.195,1.072-1.943,1.072C524.244,31.208,523.832,31.086,523.451,30.858
				 M512.082,23.712c-1.072-0.674-1.393-2.082-0.719-3.153c0.67-1.087,2.094-1.408,3.166-0.734c1.072,0.674,1.393,2.096,0.719,3.167
				c-0.443,0.689-1.176,1.071-1.943,1.071C512.893,24.063,512.465,23.957,512.082,23.712"/>
			<path fill="#FFFFFF" d="M536.041,38.354c-0.609,0-1.207-0.244-1.637-0.672c-0.43-0.428-0.656-1.025-0.656-1.623
				c0-0.612,0.227-1.209,0.656-1.622c0.855-0.857,2.404-0.857,3.258,0c0.416,0.413,0.656,1.009,0.656,1.622
				c0,0.597-0.24,1.194-0.656,1.623C537.234,38.109,536.639,38.354,536.041,38.354"/>
			<path fill="#FFFFFF" d="M545.451,30.137c-0.672-1.07-0.352-2.494,0.719-3.166c1.088-0.674,2.494-0.354,3.168,0.718
				c0.672,1.071,0.352,2.494-0.721,3.168c-0.383,0.244-0.809,0.351-1.221,0.351C546.631,31.208,545.896,30.826,545.451,30.137
				 M556.82,22.992c-0.674-1.07-0.352-2.494,0.719-3.167c1.072-0.673,2.494-0.353,3.166,0.734c0.674,1.072,0.354,2.479-0.719,3.152
				c-0.383,0.245-0.811,0.351-1.223,0.351C557.998,24.063,557.246,23.681,556.82,22.992"/>
			<path fill="#FFFFFF" d="M570.117,16.933c-0.598,0-1.178-0.245-1.623-0.673c-0.428-0.428-0.674-1.023-0.674-1.622
				c0-0.611,0.262-1.194,0.674-1.621c0.857-0.859,2.402-0.859,3.26,0c0.412,0.427,0.658,1.01,0.658,1.621
				c0,0.598-0.23,1.194-0.658,1.622C571.322,16.688,570.729,16.933,570.117,16.933"/>
			<path fill="#FFFFFF" d="M591.631,30.858c-1.076-0.674-1.395-2.097-0.721-3.169c0.672-1.07,2.094-1.392,3.166-0.718
				c1.07,0.672,1.393,2.097,0.717,3.166c-0.426,0.689-1.178,1.072-1.941,1.072C592.439,31.208,592.012,31.086,591.631,30.858
				 M580.273,23.712c-1.084-0.674-1.408-2.082-0.73-3.167c0.67-1.072,2.094-1.393,3.166-0.72c1.07,0.674,1.389,2.096,0.717,3.167
				c-0.428,0.689-1.176,1.071-1.941,1.071C581.072,24.063,580.641,23.957,580.273,23.712"/>
			<path fill="#FFFFFF" d="M604.219,38.354c-0.594,0-1.191-0.244-1.619-0.672c-0.43-0.428-0.674-1.025-0.674-1.623
				c0-0.612,0.244-1.194,0.674-1.622c0.855-0.857,2.385-0.872,3.242,0c0.428,0.428,0.672,1.009,0.672,1.622
				c0,0.597-0.244,1.194-0.672,1.623C605.414,38.109,604.816,38.354,604.219,38.354"/>
			<path fill="#FFFFFF" d="M613.645,30.137c-0.672-1.07-0.352-2.494,0.719-3.166c1.07-0.674,2.494-0.354,3.17,0.718
				c0.672,1.071,0.336,2.494-0.721,3.168c-0.381,0.244-0.811,0.351-1.225,0.351C614.822,31.208,614.076,30.826,613.645,30.137
				 M624.998,22.992c-0.672-1.07-0.352-2.494,0.721-3.167c1.084-0.673,2.492-0.353,3.166,0.72c0.674,1.086,0.352,2.493-0.719,3.167
				c-0.383,0.245-0.795,0.351-1.225,0.351C626.193,24.063,625.441,23.681,624.998,22.992"/>
			<path fill="#FFFFFF" d="M638.311,16.933c-0.611,0-1.193-0.245-1.623-0.673c-0.426-0.428-0.672-1.023-0.672-1.622
				c0-0.611,0.246-1.194,0.672-1.636c0.857-0.844,2.389-0.844,3.244,0c0.43,0.442,0.674,1.025,0.674,1.636
				c0,0.598-0.244,1.194-0.674,1.622C639.502,16.688,638.92,16.933,638.311,16.933"/>
			<path fill="#FFFFFF" d="M659.822,30.858c-1.084-0.674-1.408-2.097-0.734-3.169c0.689-1.07,2.098-1.392,3.168-0.718
				c1.07,0.672,1.391,2.097,0.719,3.166c-0.428,0.689-1.178,1.072-1.941,1.072C660.619,31.208,660.189,31.086,659.822,30.858
				 M648.453,23.712c-1.068-0.674-1.393-2.082-0.717-3.153c0.672-1.087,2.08-1.408,3.164-0.734c1.074,0.674,1.393,2.096,0.721,3.167
				c-0.443,0.689-1.191,1.071-1.941,1.071C649.248,24.063,648.836,23.957,648.453,23.712"/>
			<path fill="#FFFFFF" d="M672.4,38.339c-0.598,0-1.193-0.23-1.625-0.658c-0.426-0.428-0.67-1.025-0.67-1.623
				c0-0.612,0.244-1.194,0.67-1.621c0.859-0.857,2.389-0.857,3.248-0.016c0.426,0.442,0.672,1.024,0.672,1.636
				c0,0.597-0.246,1.195-0.672,1.623C673.592,38.109,673.012,38.339,672.4,38.339"/>
			<path fill="#FFFFFF" d="M681.824,30.137c-0.672-1.07-0.352-2.494,0.721-3.166c1.07-0.674,2.494-0.354,3.166,0.718
				c0.674,1.071,0.352,2.494-0.717,3.168c-0.383,0.244-0.814,0.351-1.227,0.351C683.002,31.208,682.252,30.826,681.824,30.137
				 M693.193,22.992c-0.674-1.07-0.354-2.494,0.721-3.167c1.068-0.673,2.492-0.353,3.166,0.72c0.674,1.086,0.352,2.493-0.721,3.167
				c-0.381,0.245-0.809,0.351-1.223,0.351C694.371,24.063,693.619,23.681,693.193,22.992"/>
			<path fill="#FFFFFF" d="M706.486,16.933c-0.592,0-1.191-0.245-1.617-0.673c-0.416-0.428-0.66-1.023-0.66-1.622
				c0-0.611,0.244-1.209,0.66-1.636c0.855-0.844,2.4-0.844,3.256,0c0.414,0.427,0.658,1.025,0.658,1.636
				c0,0.598-0.244,1.194-0.658,1.622C707.697,16.688,707.1,16.933,706.486,16.933"/>
			<path fill="#FFFFFF" d="M728.002,30.858c-1.07-0.674-1.391-2.097-0.721-3.169c0.676-1.07,2.1-1.392,3.17-0.718
				c1.07,0.672,1.391,2.08,0.719,3.166c-0.428,0.689-1.178,1.072-1.941,1.072C728.813,31.208,728.385,31.101,728.002,30.858
				 M716.648,23.712c-1.086-0.674-1.406-2.082-0.734-3.167c0.674-1.072,2.098-1.393,3.166-0.72c1.074,0.674,1.395,2.096,0.723,3.167
				c-0.432,0.689-1.178,1.071-1.945,1.071C717.443,24.063,717.018,23.957,716.648,23.712"/>
			<path fill="#FFFFFF" d="M740.596,38.354c-0.598,0-1.195-0.244-1.625-0.672c-0.426-0.428-0.67-1.025-0.67-1.623
				c0-0.612,0.244-1.194,0.67-1.622c0.859-0.857,2.389-0.857,3.248,0c0.426,0.428,0.672,1.009,0.672,1.622
				c0,0.597-0.246,1.194-0.672,1.623C741.787,38.109,741.191,38.354,740.596,38.354"/>
			<path fill="#FFFFFF" d="M750.021,30.137c-0.676-1.07-0.354-2.494,0.717-3.166c1.072-0.674,2.494-0.354,3.168,0.718
				s0.352,2.494-0.717,3.168c-0.383,0.244-0.814,0.351-1.227,0.351C751.197,31.208,750.449,30.826,750.021,30.137 M761.389,22.992
				c-0.674-1.07-0.354-2.494,0.721-3.167c1.07-0.673,2.492-0.353,3.162,0.72c0.676,1.086,0.355,2.493-0.717,3.167
				c-0.383,0.245-0.813,0.351-1.223,0.351C762.564,24.063,761.816,23.681,761.389,22.992"/>
			<path fill="#FFFFFF" d="M774.697,16.933c-0.609,0-1.191-0.245-1.617-0.673c-0.432-0.428-0.676-1.023-0.676-1.622
				c0-0.611,0.244-1.194,0.676-1.636c0.838-0.844,2.385-0.844,3.24,0c0.428,0.427,0.672,1.025,0.672,1.636
				c0,0.598-0.244,1.194-0.672,1.622C775.895,16.688,775.295,16.933,774.697,16.933"/>
			<path fill="#FFFFFF" d="M796.211,30.858c-1.084-0.674-1.404-2.097-0.734-3.169c0.691-1.07,2.098-1.392,3.17-0.718
				c1.07,0.672,1.404,2.08,0.717,3.166c-0.43,0.689-1.176,1.072-1.941,1.072C797.008,31.208,796.578,31.101,796.211,30.858
				 M784.844,23.712c-1.072-0.674-1.393-2.082-0.719-3.167c0.676-1.072,2.082-1.393,3.152-0.72c1.084,0.674,1.406,2.096,0.732,3.167
				c-0.443,0.689-1.193,1.071-1.943,1.071C785.639,24.063,785.227,23.957,784.844,23.712"/>
		</g>
		<polyline fill="none" stroke="#8E1525" stroke-width="3.242" stroke-miterlimit="10" points="-44.14,53.841 -10.046,75.262 
			24.048,53.841 58.142,75.262 92.237,53.841 126.332,75.262 160.421,53.841 194.513,75.262 228.609,53.841 262.708,75.262 
			296.806,53.841 330.904,75.262 365.003,53.841 399.109,75.262 		"/>
		<polyline fill="none" stroke="#8E1525" stroke-width="3.242" stroke-miterlimit="10" points="364.271,53.841 398.366,75.262 
			432.459,53.841 466.553,75.262 500.646,53.841 534.742,75.262 568.832,53.841 602.924,75.262 637.02,53.841 671.117,75.262 
			705.217,53.841 739.314,75.262 773.414,53.841 807.52,75.262 830.416,55.521 		"/>
		
			<polyline fill="none" stroke="#211915" stroke-width="3.242" stroke-linecap="round" stroke-miterlimit="10" stroke-dasharray="0,5.403" points="
			-39.503,44.01 -10.046,62.519 24.048,41.097 58.142,62.519 92.237,41.097 126.332,62.519 160.421,41.097 194.513,62.519 
			228.609,41.097 262.708,62.519 296.806,41.097 330.904,62.519 365.003,41.097 399.109,62.519 433.213,41.097 		"/>
		
			<polyline fill="none" stroke="#211915" stroke-width="3.242" stroke-linecap="round" stroke-miterlimit="10" stroke-dasharray="0,5.403" points="
			435.414,41.097 469.508,62.519 503.602,41.097 537.695,62.519 571.785,41.097 605.877,62.519 639.973,41.097 674.07,62.519 
			708.17,41.097 742.268,62.519 776.367,41.097 810.473,62.519 830.416,47.39 		"/>
	</g>
</g>
</svg>
