<?xml version="1.0" encoding="utf-8"?>
<!-- Generator: Adobe Illustrator 16.0.0, SVG Export Plug-In . SVG Version: 6.00 Build 0)  -->
<!DOCTYPE svg PUBLIC "-//W3C//DTD SVG 1.1//EN" "http://www.w3.org/Graphics/SVG/1.1/DTD/svg11.dtd">
<svg version="1.1" id="Layer_1" xmlns="http://www.w3.org/2000/svg" xmlns:xlink="http://www.w3.org/1999/xlink" x="0px" y="0px"
	 width="51.49px" height="54px" viewBox="-9.937 0 51.49 54" enable-background="new -9.937 0 51.49 54" xml:space="preserve">
<title>cocteles</title>
<desc>Created with Sketch.</desc>
<g>
	<g>
		<path fill="#F75641" d="M2.827,19.5H36.31c2.31,0,3.69,1.898,3.69,4.373v13.439c0,2.475-1.381,5.188-3.69,5.188H13.643
			l-8.175,4.889L7.277,42.5h-4.45C0.516,42.5-2,39.786-2,37.312V23.873C-2,21.398,0.516,19.5,2.827,19.5z"/>
	</g>
	<g>
		<path fill="#43E88E" d="M28.314,11.5H-5.167C-7.478,11.5-9,12.498-9,14.973v13.439c0,2.475,1.522,5.088,3.833,5.088H17.5
			l8.174,4.889l-1.81-4.889h4.45c2.313,0,5.686-2.613,5.686-5.088V14.973C34,12.498,30.627,11.5,28.314,11.5z"/>
		<g>
			<path d="M0.801,19.976v0.42c0,0.527-0.203,0.979-0.61,1.356c-0.406,0.377-0.896,0.565-1.47,0.565H-4.46v-7.554h3.182
				c0.574,0,1.064,0.188,1.47,0.563c0.407,0.375,0.61,0.828,0.61,1.359v0.403c0,0.565-0.237,1.046-0.712,1.444
				C0.564,18.938,0.801,19.419,0.801,19.976z M-0.264,17.077v-0.392c0-0.265-0.102-0.493-0.306-0.682s-0.449-0.284-0.733-0.284
				H-3.42v2.313h2.117c0.28,0,0.524-0.094,0.73-0.282C-0.367,17.563-0.264,17.338-0.264,17.077z M-0.264,20.396v-0.398
				c0-0.265-0.102-0.492-0.306-0.682s-0.449-0.285-0.733-0.285h-2.105v2.319h2.105c0.28,0,0.524-0.094,0.73-0.281
				C-0.367,20.883-0.264,20.658-0.264,20.396z"/>
			<path d="M3.222,22.318v-7.077c0-0.129,0.052-0.241,0.155-0.335c0.104-0.095,0.225-0.142,0.365-0.142
				c0.141,0,0.262,0.047,0.365,0.142C4.21,15,4.262,15.112,4.262,15.241v6.122h3.677c0.145,0,0.27,0.046,0.375,0.14
				c0.105,0.093,0.158,0.206,0.158,0.338c0,0.133-0.052,0.246-0.158,0.338c-0.105,0.093-0.23,0.139-0.375,0.139H3.222z"/>
			<path d="M14.73,15.463l1.146,2.143c0.161,0.292,0.241,0.608,0.241,0.949c0,0.333-0.081,0.648-0.241,0.943l-1.146,2.12
				c-0.244,0.466-0.656,0.699-1.238,0.699c-0.277,0-0.525-0.066-0.746-0.199c-0.221-0.133-0.387-0.299-0.499-0.5l-1.151-2.12
				c-0.153-0.276-0.229-0.591-0.229-0.943c0-0.353,0.076-0.669,0.229-0.949l1.151-2.143c0.26-0.466,0.675-0.699,1.245-0.699
				C14.07,14.764,14.482,14.997,14.73,15.463z M13.146,15.94l-1.077,2.012c-0.099,0.201-0.149,0.398-0.149,0.591
				c0,0.208,0.05,0.408,0.149,0.597l1.108,2.035c0.058,0.125,0.163,0.188,0.316,0.188c0.132,0,0.233-0.063,0.303-0.188l1.114-2.035
				c0.103-0.201,0.155-0.4,0.155-0.597c0-0.208-0.052-0.405-0.155-0.591L13.82,15.94c-0.07-0.148-0.18-0.222-0.328-0.222
				C13.343,15.719,13.228,15.792,13.146,15.94z"/>
			<path d="M21.552,14.764h1.728c0.145,0,0.268,0.046,0.368,0.139c0.102,0.093,0.151,0.206,0.151,0.338
				c0,0.14-0.055,0.257-0.164,0.35s-0.229,0.139-0.356,0.139h-1.649c-0.161-0.002-0.302,0.067-0.421,0.208l-1.459,1.724
				c-0.123,0.137-0.185,0.326-0.184,0.569v2.644c0,0.136,0.05,0.252,0.151,0.347s0.224,0.142,0.368,0.142h2.117
				c0.141,0,0.262-0.047,0.365-0.142s0.154-0.207,0.154-0.335v-1.034h-1.077c-0.148,0-0.272-0.046-0.371-0.139
				c-0.099-0.093-0.148-0.206-0.148-0.338s0.05-0.245,0.148-0.338c0.099-0.093,0.223-0.139,0.371-0.139h2.117v1.989
				c0,0.395-0.152,0.731-0.458,1.012c-0.306,0.28-0.673,0.42-1.102,0.42h-2.117c-0.434,0-0.804-0.14-1.111-0.42
				c-0.308-0.281-0.461-0.618-0.461-1.012v-2.643c0-0.474,0.138-0.873,0.415-1.199l1.536-1.791c0.111-0.136,0.267-0.252,0.467-0.347
				S21.338,14.764,21.552,14.764z"/>
		</g>
	</g>
</g>
</svg>
