<?xml version="1.0" encoding="utf-8"?>
<!-- Generator: Adobe Illustrator 16.0.0, SVG Export Plug-In . SVG Version: 6.00 Build 0)  -->
<!DOCTYPE svg PUBLIC "-//W3C//DTD SVG 1.1//EN" "http://www.w3.org/Graphics/SVG/1.1/DTD/svg11.dtd">
<svg version="1.1" id="Capa_1" xmlns="http://www.w3.org/2000/svg" xmlns:xlink="http://www.w3.org/1999/xlink" x="0px" y="0px"
	 width="832.5px" height="195.66px" viewBox="0 0 832.5 195.66" enable-background="new 0 0 832.5 195.66" xml:space="preserve">
<g>
	<g opacity="0.5">
		<path fill="#AA5F47" d="M280.11,85.699c-0.269-0.373-2.425-6.098-2.425-6.098l-5.593-0.434l-3.437,0.932l-2.358,5.848l-8.49,2.273
			l-3.74,8.119c0,0-2.426,4.572-2.527,4.852c-0.101,0.281-3.639,2.334-4.548,2.334s-24.663,1.307-24.663,1.307H-10.835v15.479
			c0,0,404.252,12.174,539.306,14.178c16.654,0.248,57.496-1.9,81.031-4.049c12.32-1.125,19.336-2.693,24.914-5.826
			c1.361-0.766,7.869-2.967,7.869-2.967l9.242-6.15c0,0-129.758-1.367-131.461-2.605c-4.918-3.566-10.213-6.643-15.607-9.549
			c-2.92-1.572-6.004-2.832-8.707-4.748c-3.375-2.389-3.201-5.438-3.396-9.057c-0.1-1.854-0.195-3.777-0.814-5.559
			c-0.623-1.801-1.938-3.264-3.08-4.801c-1.279-1.723-3.711-2.051-5.791-2.258c-2.83-0.281-5.668-0.447-8.488-0.816
			c-0.65-0.084-2.188-0.043-2.703-0.346c-0.268-0.154-0.395-0.75-0.713-0.979c-0.764-0.553-2.107-0.59-3.018-0.768
			c-1.705-0.324-3.438-0.516-5.18-0.377c-1.775,0.139-3.428,0.73-5.182,0.961c-3.162,0.416-6.789-0.375-9.859-1.049
			c-7.006-1.541-14.367-1.285-21.535-1.023c-4.49,0.162-9.088,0.063-13.549,0.578c-3.816,0.443-6.268,3.408-9.674,4.705
			c-1.246,0.475-2.635,0.535-3.855,1.072c-1.262,0.555-3.464,1.715-3.627,3.133c-0.103,0.895,0.125,2.1,0.177,3.021
			c0.069,1.182,0.092,2.359,0.148,3.541c0.016,0.352,0.258,1.35,0.063,1.666c0,0,1.903,10.045-20.048,13.885
			c-10.127,1.771-20.566,0.697-30.693,2.74c-5.467,1.104-13.886,1.619-21.236,1.619c-7.061,0-23.439-1.07-24.113-1.07
			s-7.479-1.057-8.02-1.555c-0.539-0.498-3.637-4.293-3.705-4.668L280.11,85.699z"/>
	</g>
	<path opacity="0.7" fill="#C89A43" d="M734.627,291.434H124.301V123.342c0,0,61.194-9.875,167.465-6.99
		c3.275-2.291,4.012-2.666,8.26-1.799c4.441,0.906,10.924-0.654,14.321-1.715c3.399-1.061,10.868,0.389,12.2,0.461
		c1.334,0.072,8.668-1.348,10.478-3.066c1.812-1.719,2.901-36.324,4.067-38.461c1.165-2.131,8.484-5.082,8.484-5.082l17.939,3.824
		c0,0-3.312,42.227,1.19,45.523c4.503,3.297,26.319,7.27,51.713,8.629l-8.641-0.406c2.715,0.277,5.443,0.564,8.191,0.861
		c48.227,5.203,92.795,6.836,132.316,6.418c21.414-1.123,73.549-3.986,77.785-5.494c5.342-1.9,14.881-4.182,16.982-8.188
		c2.104-4.002,3.816-1.902,6.295-1.9c2.482,0.004,3.342-2.283,4.105-2.762c0.764-0.477,4.389-2.666,5.627-3.332
		c1.24-0.666,2.635-25.742,1.492-29.271c-1.139-3.529,2.498-21.264,2.498-21.264s3.719-0.758,5.246-2.094
		c1.529-1.332,6.332-3.361,6.332-3.361l-0.254-3.496l9.283-0.818l1.781-1.971c0,0,2.672,0.131,3.814,0.83
		c1.145,0.701,16.914,0.715,16.914,0.715l0.566,2.988l5.344-0.379c0,0,4.566,10.115,4.559,18.125
		c-0.008,8.012,0.059,31.342,7.172,38.215s104.67,20.846,104.67,20.846v162.637L734.627,291.434"/>
	<path fill="#C89A43" d="M39.661,226.398c0,0,393.621-81.307,791.857-64.521v125.879H39.661V226.398z"/>
	<g>
		<path fill="#C89A43" d="M761.348,165.738c-2.266,1.59-9.98,5.598-9.98,5.598L759.199,237h58.881l-3.184-40.855l15.127-9.682
			c0,0-19.969-40.539-22.994-42.959s3.629-10.891,3.629-10.891l-8.469-7.26l12.102-15.73l9.68-16.941c0,0-9.076-12.102-12.1-12.102
			c-3.025,0-12.705-6.654-12.705-6.654l-3.025-6.051l21.777-16.939l3.633-15.732l-13.916-3.629l-19.359,7.26l14.52-15.73
			c0,0-4.844-10.893-16.641-10.893l-22.99,15.127v8.168l3.934,7.563l7.867,0.607l-12.102,3.629l-7.26,12.705l8.469,17.545
			l15.732-1.209l0.604,7.865l-13.311,3.631l-3.025,17.697l8.469,8.016h11.498l-7.26,5.748l5.445,8.471l-13.916,6.051l1.209,13.916
			C769.518,147.74,764.02,163.871,761.348,165.738"/>
		<path fill="#BE9141" d="M811.467,68.332l-21.078-1.781l5.748-10.893l-17.254,4.834l-4.242-23l10.869-8.49l-7.295-1.248
			l-8.549-5.605l-6.387-5.986h-0.701v7.131l4.227,7.564l8.012,0.604l-12.027,3.629l-7.225,12.707l8.492,17.545l15.736-1.209
			l0.611,7.865l31.453-3.631C811.736,68.367,811.607,68.354,811.467,68.332"/>
		<path fill="#BE9141" d="M759.273,237c0.992-1.604,2.129-8.906,7.068-10.002c5.443-1.207,12.707-3.404,16.787-11.496
			c1.906-3.783,6.58-6.125,15.658-5.52c9.074,0.604,16.408-8.396,16.408-8.396l-0.299-5.441c0,0-26.32-1.816-28.742-1.816
			c-2.42,0-13.311-3.023-13.311-3.023l-3.025-10.287l14.221-3.936v-19.664c0,0-1.061-13.916-1.061-16.334
			c0-2.422,2.57-6.654,2.57-6.654l16.641-9.076l-14.221,1.211l-1.814-8.473l15.127-6.049l-15.127-0.607l-3.025-14.52l-2.719-12.703
			L767.1,87.842l-3.027,17.697l8.473,8.016h11.494l-7.26,5.748l5.445,8.473l-13.914,6.047l1.207,13.918
			c0,0-5.531,16.082-8.17,17.998c-1.246,0.908-9.98,5.598-9.98,5.598L759.199,237H759.273z"/>
		<polygon fill="#C4934B" points="774.641,37.492 821.551,22.992 776.039,44.848 		"/>
		<polygon fill="#C4934B" points="782.223,80.355 823.971,80.619 784.039,88.75 		"/>
		<polygon fill="#C4934B" points="784.039,177.082 830.023,186.461 822.457,172.543 783.73,171.939 		"/>
		<polygon fill="#AB7F39" points="774.057,29.193 763.164,23.293 767.098,30.857 774.965,31.461 762.863,35.092 785.51,29.004 		"/>
		<polygon fill="#AB7F39" points="761.805,59.596 781.316,61.408 796.141,55.662 779.805,64.133 764.072,65.342 		"/>
		<polygon fill="#AB7F39" points="772.242,101.652 784.039,101.652 801.279,99.984 786.154,99.303 764.072,93.52 		"/>
		<polygon fill="#AB7F39" points="782.225,115.561 802.191,113.141 779.955,111.779 		"/>
		<polygon fill="#AB7F39" points="769.109,147.74 782.307,148.496 782.307,142.596 767.689,133.824 		"/>
		<polygon fill="#AB7F39" points="751.367,171.336 784.039,177.082 761.348,165.738 		"/>
		<path fill="#C4934B" d="M782.307,148.496l24.313-4.992c0,0-1.871-1.363-0.057-5.898l-24.256,4.99V148.496z"/>
		<path fill="#CCA96A" d="M785.854,15.578l7.26,1.361l9.682-6.049c0,0-4.844-10.891-16.643-10.891l-22.988,15.125l6.352,6.295
			L785.854,15.578z"/>
		<polygon fill="#CCA96A" points="774.641,37.492 788.275,26.621 807.635,19.361 821.551,22.992 		"/>
		<polygon fill="#CCA96A" points="780.408,71.998 811.664,68.33 812.682,68.5 815.008,70.258 819.432,74.115 823.971,80.469 
			810.357,73.662 		"/>
		<polygon fill="#CCA96A" points="785.549,134.43 802.189,125.354 810.658,132.613 		"/>
		<polygon fill="#CCA96A" points="783.131,148.496 807.029,143.504 811.605,150.537 823.063,172.543 783.73,171.939 		"/>
	</g>
	<path fill="#4A8335" d="M381.846,157.254l-0.168-8.166c0,0-2.217-1.436-2.555-3.172c-0.338-1.74-0.084-3.477,0.894-3.072
		c0.979,0.404,0.827,1.807,1.62,2.6l-0.531-9.584c0,0-0.203-3.545,1.746-3.545c1.948,0,1.859,2.836,1.656,6.43
		c1.006-1.029,0.799-2.824,2.038-3.348c1.241-0.525,1.561,1.729,1.133,3.984c-0.427,2.256-3.167,3.801-3.167,3.801l-0.71,14.072
		H381.846z"/>
	<path fill="#5C9F3E" d="M340.565,189.973l1.129-27.332c0,0,25.209-12.311,27.493-39.076c1.01-11.809,1.094-20.949-5.984-20.559
		c-10.191,0.566-5.448,30.836-21.243,35.24l3.559-64.15c0,0,1.354-23.717-11.689-23.717c-13.045,0-11.69,23.717-11.69,23.717
		l3.558,64.15c-5.309-5.311-11.223-22.252-17.775-24.961c-6.551-2.709-8.242,8.922-5.986,20.557
		c2.26,11.631,24.027,28.799,24.027,28.799l1.129,27.332"/>
	<path fill="#5C9F3E" d="M411.551,156.801l0.09-2.184c0,0,2.014-0.984,2.199-3.125c0.08-0.943,0.088-1.676-0.48-1.643
		c-0.814,0.045-0.436,2.465-1.699,2.816l0.287-5.129c0,0,0.107-1.896-0.936-1.896s-0.936,1.896-0.936,1.896l0.285,5.129
		c-0.424-0.426-0.896-1.779-1.42-1.996c-0.525-0.217-0.658,0.715-0.479,1.645s1.92,2.303,1.92,2.303l0.092,2.184"/>
	<path fill="#4A8335" d="M262.227,191.602c0-20.381-5.001-86.273,5.336-86.273s5.336,65.893,5.336,86.273H262.227z"/>
	<path fill="#5C9F3E" d="M252.327,191.602c0-9.342-5-39.545,5.337-39.545S263,182.26,263,191.602H252.327z"/>
	<path fill="#5C9F3E" d="M272.352,191.602c0-12.52-5-52.998,5.338-52.998c10.334,0,5.337,40.479,5.337,52.998H272.352z"/>
	<path fill="#5C9F3E" d="M712.666,155.33c0-10.85-7.344-45.918,7.836-45.918s7.838,35.068,7.838,45.918H712.666z"/>
	<path fill="#4A8335" d="M702.115,155.33c0-7.348-7.346-31.104,7.836-31.104c15.18,0,7.838,23.756,7.838,31.104H702.115z"/>
	<path fill="#4A8335" d="M437.848,158.344c-0.291,0.479-0.588,0.943-0.891,1.393c0.129-2.445-0.012-4.451-0.012-4.451
		c-0.424,1.875-0.977,3.637-1.551,5.201c0.316-2.385,0.34-4.34,0.34-4.34c-0.158,0.502-0.324,0.992-0.498,1.473
		c0-1.4-0.066-2.359-0.066-2.359c-0.258,1.133-0.559,2.219-0.883,3.25c-0.037-1.918-0.199-3.342-0.199-3.342
		c-0.27,1.486-0.621,2.904-1.006,4.217c-0.404-2.26-0.932-4.006-0.932-4.006c-0.002,2.066-0.176,4.039-0.418,5.783
		c-0.697-3.154-1.912-6.039-1.912-6.039c0.066,0.641,0.117,1.271,0.154,1.893c-0.219,1.518-0.514,2.959-0.838,4.273
		c-0.844-3.164-2.225-6.059-2.225-6.059c0.229,1.494,0.361,2.949,0.426,4.313c-0.842-2.855-2.014-5.307-2.014-5.307
		c0.246,1.598,0.379,3.158,0.438,4.604c-0.777-2.328-1.648-4.146-1.648-4.146c0.053,0.336,0.1,0.676,0.143,1.01
		c-0.088,0.574-0.363,2.506-0.432,4.734c-0.365-1.746-0.678-3.736-0.818-5.832c0,0-0.592,2.584-0.801,5.51
		c-0.418-1.018-0.818-2.1-1.174-3.23c0,0,0.027,2.021,0.355,4.461c-0.545-0.668-1.086-1.369-1.611-2.107c0,0,0.09,0.27,0.26,0.725
		c-0.484-0.674-0.965-1.379-1.428-2.119c0,0,0.066,0.242,0.193,0.65c-0.279-0.58-0.553-1.186-0.811-1.805
		c0,0,1.141,11.066,5.186,12.246c0.561,0.16,0.986,0.25,1.313,0.287c0.188,0.133,0.387,0.246,0.594,0.326
		c1.145,0.449,1.742,0.525,2.018,0.412c0.15,0.033,0.299,0.059,0.449,0.066c1.279,0.078,1.869-0.049,2.074-0.26
		c0.32,0.006,0.732-0.021,1.268-0.092c0.656-0.09,1.277-0.43,1.859-0.941c0.309-0.094,0.699-0.25,1.197-0.496
		c1.775-0.871,2.545-3.783,2.861-6.627C437.477,159.771,437.848,158.344,437.848,158.344 M429.045,168.699
		c0.025-0.023,0.049-0.049,0.072-0.076c0,0.004,0,0.01-0.002,0.012c-0.021,0.023-0.041,0.049-0.064,0.068
		C429.049,168.701,429.047,168.699,429.045,168.699"/>
	<path fill="#4A8335" d="M603.648,147.65c-0.307,0.469-0.617,0.924-0.936,1.363c0.209-2.443,0.135-4.451,0.135-4.451
		c-0.486,1.861-1.094,3.604-1.719,5.148c0.395-2.373,0.48-4.326,0.48-4.326c-0.172,0.494-0.355,0.979-0.545,1.455
		c0.045-1.398,0.008-2.361,0.008-2.361c-0.291,1.123-0.627,2.201-0.986,3.219c0.025-1.918-0.088-3.344-0.088-3.344
		c-0.318,1.473-0.719,2.883-1.146,4.178c-0.332-2.268-0.797-4.033-0.797-4.033c-0.072,2.066-0.313,4.029-0.609,5.766
		c-0.594-3.174-1.715-6.098-1.715-6.098c0.045,0.641,0.078,1.275,0.092,1.893c-0.266,1.514-0.609,2.945-0.979,4.246
		c-0.738-3.189-2.023-6.127-2.023-6.127c0.18,1.502,0.264,2.959,0.285,4.326c-0.75-2.885-1.84-5.373-1.84-5.373
		c0.195,1.605,0.277,3.168,0.289,4.617c-0.705-2.354-1.512-4.201-1.512-4.201c0.043,0.34,0.076,0.68,0.109,1.016
		c-0.107,0.57-0.447,2.492-0.59,4.719c-0.307-1.756-0.553-3.756-0.627-5.855c0,0-0.678,2.563-0.979,5.479
		c-0.385-1.031-0.75-2.127-1.066-3.268c0,0-0.043,2.021,0.207,4.469c-0.523-0.684-1.039-1.4-1.541-2.156c0,0,0.082,0.273,0.236,0.73
		c-0.461-0.688-0.918-1.41-1.357-2.162c0,0,0.059,0.244,0.172,0.656c-0.26-0.592-0.512-1.205-0.75-1.83
		c0,0,0.773,11.098,4.779,12.406c0.553,0.182,0.977,0.283,1.301,0.332c0.184,0.139,0.379,0.258,0.584,0.348
		c1.127,0.484,1.723,0.582,2.006,0.479c0.146,0.037,0.293,0.066,0.441,0.078c1.275,0.121,1.871,0.012,2.084-0.191
		c0.32,0.018,0.732,0.004,1.27-0.049c0.658-0.066,1.291-0.387,1.891-0.879c0.311-0.084,0.705-0.23,1.211-0.457
		c1.807-0.814,2.672-3.697,3.078-6.527C603.232,149.066,603.648,147.65,603.648,147.65 M594.512,157.709
		c0.025-0.025,0.049-0.049,0.072-0.074c0,0.004,0,0.008,0,0.014c-0.023,0.021-0.045,0.043-0.068,0.064
		C594.514,157.713,594.512,157.711,594.512,157.709"/>
	<path fill="#47112E" d="M401.635,153.92c-0.068,0.102-0.137,0.201-0.203,0.297c0.045-0.533,0.027-0.971,0.027-0.971
		c-0.105,0.406-0.238,0.787-0.373,1.123c0.086-0.52,0.104-0.943,0.104-0.943c-0.037,0.109-0.078,0.213-0.117,0.318
		c0.008-0.307,0.002-0.516,0.002-0.516c-0.064,0.244-0.139,0.479-0.217,0.701c0.006-0.42-0.02-0.729-0.02-0.729
		c-0.068,0.32-0.156,0.627-0.248,0.91c-0.072-0.494-0.176-0.879-0.176-0.879c-0.014,0.451-0.066,0.879-0.131,1.256
		c-0.131-0.693-0.375-1.33-0.375-1.33c0.012,0.141,0.016,0.279,0.021,0.414c-0.059,0.33-0.133,0.643-0.215,0.926
		c-0.16-0.695-0.441-1.334-0.441-1.334c0.041,0.326,0.059,0.643,0.063,0.941c-0.162-0.629-0.4-1.172-0.4-1.172
		c0.043,0.35,0.061,0.691,0.063,1.006c-0.154-0.512-0.328-0.914-0.328-0.914c0.008,0.074,0.016,0.148,0.021,0.221
		c-0.021,0.123-0.098,0.543-0.127,1.029c-0.066-0.383-0.121-0.818-0.137-1.277c0,0-0.146,0.559-0.215,1.195
		c-0.082-0.225-0.162-0.463-0.231-0.713c0,0-0.009,0.441,0.044,0.973c-0.111-0.148-0.225-0.305-0.334-0.469
		c0,0,0.017,0.061,0.052,0.16c-0.101-0.152-0.202-0.307-0.296-0.473c0,0,0.011,0.055,0.037,0.145
		c-0.057-0.129-0.111-0.264-0.166-0.4c0,0,0.172,2.418,1.042,2.705c0.121,0.039,0.213,0.061,0.285,0.072
		c0.039,0.029,0.082,0.057,0.129,0.076c0.242,0.105,0.373,0.127,0.436,0.102c0.031,0.01,0.063,0.016,0.096,0.02
		c0.279,0.025,0.408,0.004,0.455-0.041c0.07,0.004,0.158,0,0.277-0.012c0.141-0.016,0.281-0.084,0.41-0.191
		c0.068-0.02,0.154-0.051,0.264-0.1c0.395-0.178,0.582-0.807,0.672-1.424C401.543,154.227,401.635,153.92,401.635,153.92
		 M399.643,156.113c0.006-0.006,0.012-0.012,0.016-0.018v0.002c-0.004,0.006-0.008,0.01-0.014,0.016
		C399.645,156.113,399.645,156.113,399.643,156.113"/>
	<path fill="#5C9F3E" d="M458.838,169.045l-0.459-22.314c0,0-6.057-3.918-6.979-8.666c-0.924-4.748-0.23-9.498,2.443-8.389
		c2.676,1.105,2.258,4.932,4.426,7.098l-1.453-26.186c0,0-0.551-9.682,4.771-9.682c5.326,0,5.08,7.74,4.529,17.563
		c2.744-2.813,2.182-7.713,5.568-9.146c3.387-1.436,4.262,4.725,3.092,10.889c-1.168,6.162-8.654,10.387-8.654,10.387l-1.936,38.447
		H458.838z"/>
	<g>
		<path fill="#37002B" d="M226.025,189.787c-0.291,0.479-0.587,0.941-0.888,1.391c0.127-2.447-0.014-4.451-0.014-4.451
			c-0.422,1.875-0.976,3.637-1.551,5.201c0.316-2.385,0.34-4.34,0.34-4.34c-0.157,0.5-0.324,0.992-0.496,1.473
			c0-1.4-0.068-2.359-0.068-2.359c-0.255,1.131-0.557,2.219-0.883,3.25c-0.036-1.916-0.197-3.342-0.197-3.342
			c-0.27,1.486-0.623,2.904-1.008,4.215c-0.404-2.258-0.931-4.002-0.931-4.002c-0.001,2.064-0.176,4.037-0.418,5.781
			c-0.698-3.154-1.913-6.039-1.913-6.039c0.068,0.639,0.119,1.271,0.154,1.891c-0.218,1.52-0.513,2.961-0.839,4.273
			c-0.842-3.16-2.224-6.057-2.224-6.057c0.229,1.494,0.361,2.949,0.426,4.313c-0.842-2.855-2.014-5.307-2.014-5.307
			c0.247,1.598,0.379,3.158,0.438,4.604c-0.78-2.33-1.649-4.148-1.649-4.148c0.053,0.34,0.1,0.678,0.143,1.012
			c-0.088,0.572-0.363,2.506-0.432,4.734c-0.365-1.746-0.679-3.736-0.818-5.832c0,0-0.594,2.584-0.799,5.508
			c-0.418-1.016-0.82-2.098-1.175-3.229c0,0,0.025,2.021,0.354,4.459c-0.545-0.666-1.086-1.367-1.612-2.105
			c0,0,0.092,0.27,0.262,0.725c-0.484-0.674-0.966-1.379-1.429-2.117c0,0,0.067,0.24,0.192,0.648
			c-0.278-0.58-0.551-1.184-0.809-1.803c0,0,1.141,11.066,5.186,12.244c0.559,0.162,0.985,0.25,1.312,0.285
			c0.188,0.135,0.388,0.248,0.596,0.33c1.143,0.447,1.74,0.523,2.018,0.41c0.149,0.033,0.297,0.059,0.447,0.066
			c1.278,0.076,1.87-0.049,2.076-0.262c0.319,0.01,0.732-0.02,1.266-0.09c0.656-0.09,1.278-0.428,1.861-0.941
			c0.309-0.094,0.699-0.252,1.195-0.494c1.777-0.873,2.546-3.785,2.861-6.627C225.655,191.215,226.025,189.787,226.025,189.787
			 M217.224,200.141c0.024-0.023,0.048-0.051,0.071-0.076c0,0.004,0,0.01,0,0.014c-0.023,0.021-0.043,0.047-0.065,0.066
			C217.228,200.143,217.227,200.141,217.224,200.141"/>
		<path fill="#C89A43" d="M-11.929,110.129l3.561,2.1l-4.662,9.523c0,0,2.367,1.672,3.035,6.912
			c0.67,5.236,6.557,26.285,6.557,26.285l5.916,4.193l-5.713,3.52l-1.813,41.246H218.28l1.997-2.279c0,0,2.708-11.578,3.952-13.15
			c1.246-1.574,1.277-2.781-2.213-7.689c0,0,1.039-9.209-3.375-9.324c-4.416-0.113-24.639,5.393-24.195,3.799
			c0.443-1.596-1.852-37.4-2.172-40.623c-0.316-3.219-1.646-14.098-1.994-16.115c-0.352-2.016-4.612-8.15-7.78-9.838
			c-3.171-1.689-5.332-11.385-6.043-15.016c-0.71-3.633,0.309-12.043-3.221-15.348c-3.53-3.301-9.478-6.266-9.478-6.266
			l-6.536,4.252l-10.589,5.752c-8.74-3.84-16.529,2.389-16.529,2.389l-4.908,3.486c0,0-3.129-3.293-3.088-4.898
			s-2.141-10.496-2.141-10.496s-3.252,1.521-3.305,3.529c-0.05,2.006-1.348,5.588-1.348,5.588c-6.875,1.832-7.43,7.842-7.43,7.842
			l-1.678,34.098l-5.342,51.672l-2.789-0.873c0,0,1.439-24.865,1.543-28.877c0.104-4.016-0.195-8.041-0.195-8.041l-2.677-5.287
			c0.558-21.676,1.227-32.1,1.227-32.1c-3.982-1.309-4.899,3.086-4.899,3.086l-0.648,9.623l-3.416,7.945l-0.083-12.453
			c0.585-7.215-5.804-8.584-5.804-8.584c-1.801-8.078-4.324-3.727-4.324-3.727l-1.224,16.438l-2.933,4.744
			c0,0-0.341,13.244-0.392,15.252c-0.052,2.006,1.997,16.117-3.818,7.934c-5.814-8.18-7.285-29.104-7.285-29.104
			c-0.999-8.059-4.507-12.164-4.507-12.164l-15.007,5.641c0,0-6.677,9.869-9.427,7.387c-2.748-2.479-3.416-7.717-3.416-7.717
			l6.627-7.863l0.238-24.895c-6.299-4.98-4.365-17.785-4.365-17.785c1.883-10.797-1.77-9.283-1.77-9.283
			c-4.486,2.695-20.151,2.695-20.151,2.695l-9.735,3.77l-12.35,11.73l-0.959,6c-2.449,1.545-1.717,4.373-1.717,4.373l-0.557,21.676
			L-11.929,110.129z"/>
		<path fill="#AB7F39" d="M6.668,46.178c-3.674,2.316-17.383,4.373-17.383,4.373l-0.957,6l16.527-2.387L6.668,46.178z"/>
		<polygon fill="#AB7F39" points="2.685,60.535 -13.441,62.932 -13.947,82.6 -11.931,97.916 3.446,93.486 		"/>
		<path fill="#AB7F39" d="M3.188,115.734l-16.219,6.018c0,0,2.367,1.672,3.035,6.912c0.67,5.236,6.557,26.285,6.557,26.285
			l17.125-10.027C8.542,141.979,3.188,115.734,3.188,115.734"/>
		<polygon fill="#C4934B" points="2.685,60.535 37.656,59.424 37.418,84.318 3.446,93.486 		"/>
		<path fill="#C4934B" d="M3.188,115.734l31.02-3.623c0,0-9.418,6.99-8.749,27.891l-11.772,4.92c0,0-3.953-2.512-7.276-13.842
			L3.188,115.734z"/>
		<path fill="#C4934B" d="M11.371,35.053c0,0-1.533,12.813,10.468,14.727l11.207,1.492L4.856,54.164l1.812-7.986L11.371,35.053z"/>
		<path fill="#CCA96A" d="M4.856,54.164l-2.171,6.371l34.972-1.111c0,0-3.524-3.572-4.213-8.008L4.856,54.164z"/>
		<path fill="#CCA96A" d="M4.558,109.344l-1.37,6.391l31.02-3.623c-2.748-2.477-3.416-7.717-3.416-7.717l6.626-7.863l-33.972,9.168
			L4.558,109.344z"/>
		<path fill="#CCA96A" d="M15.096,46.393c0,0,3.881,5.322,17.949,4.881l0.376-0.146c-0.835-4.805-0.13-9.488-0.13-9.488
			c1.883-10.795-1.77-9.283-1.77-9.283c-4.486,2.697-20.151,2.697-20.151,2.697l-0.269,0.104
			C11.313,38.463,12.119,44.107,15.096,46.393"/>
		<path fill="#AB7F39" d="M9.156,203.908c2.429-3.309,5.987-8.203,6.465-9.133c0.915-1.785,15.592-28.521,15.685-32.131
			c0.092-3.613,4.733-12.33,7.163-13.07c2.428-0.74,3.139-12.771,3.139-12.771l15.992-28.508
			c-22.682,7.451-23.392,3.816-23.392,3.816c-4.103,3.377-6.088,8.93-7.238,13.27c-1.923,7.248-1.511,14.623-1.511,14.623
			l-2.655,9.57l-7.718,3.416l-4.918,3.891l-7.69,2.262l-5.715,3.52l-1.811,41.246H9.156z"/>
		<polygon fill="#CCA96A" points="13.686,144.922 15.085,152.99 22.803,149.574 25.458,140.002 		"/>
		<path fill="#CCA96A" d="M58.568,117.557l-1.904,11.6c0,0,8.406,11.824,15.443,13.148c-0.468-0.406-1.019-1.031-1.675-1.953
			c-5.813-8.18-7.285-29.104-7.285-29.104c-0.084-0.674-0.191-1.314-0.308-1.936l-0.041-0.082L58.568,117.557z"/>
		<polygon fill="#C89A43" points="4.558,97.131 28.331,94.125 3.885,99.859 		"/>
		<path fill="#AB7F39" d="M71.483,146.404l-5.301,3.076l-12.326,0.354l10.484,37.555l10.641-36.479l2.854-6.752l1.954-8.385
			l-0.308-19.287l2.521-4.354l1.121-12.422c-1.801-8.078-4.324-3.727-4.324-3.727l-1.224,16.438l-2.934,4.744
			c0,0-0.34,13.244-0.392,15.252c-0.037,1.498,1.093,9.74-0.751,10.416l0.073,0.41L71.483,146.404z"/>
		<path fill="#C4934B" d="M93.937,203.908l-12.75-44.402l3.983-14.355l0.031-16.869l-0.33-18.484l-1.748-10.086l-1.121,12.424
			l-2.521,4.352l0.307,19.287c0,0-1.019,8.406-4.805,15.137L64.35,187.584l-10.619-38.021l4.837-32.006l4.229-8.326
			c0,0-0.648-6.041-4.158-10.146l-1.039,9.211l-15.993,28.508c0,0-0.571,11.766-3.14,12.771c-1.678,0.656-5.415,4.949-7.162,13.07
			l-7.529,16.945l-8.438,15.713l-6.227,8.605H93.937z"/>
		<polygon fill="#AB7F39" points="89.01,120.748 85.266,130.961 85.172,145.15 81.188,159.506 85.49,174.475 90.245,150.9 
			91.839,135.68 92.951,123.66 92.426,112.803 		"/>
		<path fill="#CCA96A" d="M87.137,115.479c0.771,1.223,1.873,5.27,1.873,5.27l-0.083-12.453c0.585-7.217-5.804-8.584-5.804-8.584
			l1.697,12.094C84.821,111.805,86.365,114.254,87.137,115.479"/>
		<path fill="#CCA96A" d="M96.699,132.193l-1.345,6.389l2.709,35.814l0.027-0.229c0.141-2.455,1.433-24.855,1.529-28.646
			c0.104-4.016-0.195-8.041-0.195-8.041l-2.676-5.287c0.557-21.676,1.225-32.1,1.225-32.1c-2.48-0.814-3.771,0.582-4.391,1.754
			l2.182,2.205L96.699,132.193z"/>
		<path fill="#AB7F39" d="M107.885,203.908l5.184-39.967l1.727-22.852l4.627-36.961l-4.107-22.469
			c-6.875,1.832-7.43,7.842-7.43,7.842l-1.678,34.096l-5.342,51.674l-5.727,28.637H107.885z"/>
		<polygon fill="#C4934B" points="119.422,104.129 144.493,107.984 139.019,133.547 114.868,140.891 		"/>
		<path fill="#CCA96A" d="M123.125,78.084c1.996,0.451,7.133,3.797,9.89,5.875c2.761,2.08,11.478,11.814,11.478,11.814
			l-8.574-15.354l-10.723-4.695c0,0-3.129-3.293-3.088-4.896c0.041-1.605-2.141-10.498-2.141-10.498s-3.252,1.523-3.305,3.531
			c-0.051,2.006-1.348,5.588-1.348,5.588S121.129,77.629,123.125,78.084"/>
		<path fill="#AB7F39" d="M144.493,107.984l-5.474,25.563l-4.779,8.846l1.392,8.467l0.644,27.068c0,0,2.884,7.564,13.608,12.258
			l-1.07-20.912c0,0-2.666-5.691,7.533-11.857c10.201-6.162,5.773-21.539,5.773-21.539l-5.453-22.23l-13.172-18.813l-5.882-13.711
			c-4.442,0.877-7.509,3.328-7.509,3.328l-4.908,3.486l10.723,4.695L144.493,107.984z"/>
		<path fill="#C4934B" d="M157.983,156.254l34.816-10.754c0,0,0.082-0.088,0.215-0.234c-0.344-5.373-0.639-9.611-0.74-10.625
			c-0.318-3.221-1.646-14.098-1.995-16.115c-0.351-2.018-4.611-8.15-7.78-9.838l-25.83,4.959L157.983,156.254z"/>
		<path fill="#CCA96A" d="M186.407,191.123l35.609-10.334c0,0,1.039-9.211-3.375-9.324c-4.416-0.113-24.639,5.393-24.195,3.799
			c0,0-6.587,6.256-7.42,7.441C186.194,183.887,186.407,191.123,186.407,191.123"/>
		<path fill="#C4934B" d="M218.28,203.908l1.997-2.277c0,0,0.599-2.553,1.361-5.426c0.86-3.242,1.931-6.893,2.591-7.727
			c1.246-1.574,1.276-2.779-2.213-7.689l-35.562,10.32c-0.017-0.002-0.03-0.006-0.044-0.008l0.615-8.396l7.42-7.441l-45.993-7.607
			l1.433,22.529c-0.654-0.398-3.199-1.68-3.832-2.039c-7.06-3.996-9.778-10.221-9.778-10.221l-0.646-27.066l-21.619-0.082
			l-0.771,11.559l-5.257,41.572H218.28z"/>
		<path fill="#CCA96A" d="M143.493,94.834l13.174,18.813l25.833-4.959c-3.173-1.689-5.333-11.385-6.043-15.016
			c-0.71-3.633,0.309-12.043-3.221-15.346c-3.53-3.303-9.479-6.268-9.479-6.268l-6.534,4.25l-10.589,5.754
			c-3.258-1.43-6.38-1.463-9.02-0.939L143.493,94.834z"/>
		<polyline fill="#CCA96A" points="157.983,156.254 193.555,155.158 193.991,161.729 156.346,157.414 		"/>
		<polygon fill="#CCA96A" points="114.594,141.084 134.241,142.393 134.763,145.486 		"/>
	</g>
	<g>
		<g>
			<path fill="#A88A22" d="M742.715,145.193c0,0,14.781-13.332,30.949,5.375c0,0,0.297,0.5,0.277,0.873
				c-0.025,0.543-0.514,0.887-1.857-0.4c0,0-10.078-11.717-24.486-1.676C747.598,149.365,742.98,148.27,742.715,145.193"/>
			<path fill="#95791F" d="M746.549,148.664l1.352,0.496c14.246-9.67,24.184,1.881,24.184,1.881c1.344,1.287,1.834,0.943,1.857,0.4
				c0-0.008-0.002-0.02,0-0.027c-1.246-1.447-3.619-3.299-8.068-5.48C754.361,140.287,746.549,148.664,746.549,148.664"/>
			<path fill="#C1A450" d="M769.762,146.648l0.012-0.016c-14.57-12.697-27.059-1.439-27.059-1.439
				c0.057,0.654,0.311,1.219,0.676,1.703C746.152,144.723,757.668,136.895,769.762,146.648"/>
			<path fill="#FDFBF1" d="M734.584,141.162c0,0-7.818-0.232-9.982,5.027c0,0-10.318-0.414-8.232,10.729
				c0,0,1.234,5.316,7.574,4.207c0,0,1.447,11.787,13.484,7.648c0,0,11.125,13.059,29.441,9.285c0,0,1.965-0.348-0.221-2.35
				c-1.057-0.967,1.432-0.238,2.84-0.627c1.408-0.391,1.916-1.93-0.912-4.357c-2.828-2.424-5.148-7.033-5.219-9.402
				c-0.072-2.371-3.238-3.771-5.996-4.467c-2.758-0.697-4.066-2.766-3.994-6.439C753.438,146.971,745.779,135.037,734.584,141.162"
				/>
			<path fill="#DDD4B3" d="M739.916,165.754c-3.545-0.033-7.357-2.713-3.346-4.52c4.008-1.807,2.207-4.535,2.207-4.535
				c-1.916-2.766-4.969-3.949-7.197-3.193c-3.717,1.262-6.338,6.268-6.338,6.268s1.785-3.678-2.582-5.973
				c-3.994-2.098-6.215-0.164-6.564,0.18c-0.014,0.877,0.07,1.852,0.273,2.938c0,0,1.232,5.316,7.574,4.205
				c0,0,1.447,11.787,13.484,7.65c0,0,9.34,10.959,24.992,9.893C746.605,178.416,739.916,165.754,739.916,165.754"/>
			<path fill="#DDD4B3" d="M727.213,146.908c0,0,0.668-4.615,7.371-5.746c0,0-7.818-0.232-9.982,5.027
				C724.602,146.189,726.012,146.23,727.213,146.908"/>
			<path fill="#46462C" d="M730.156,155.883c0,0-2.926,3.506-1.182,6.494c1.746,2.99,3.797,4.607,6.588,4.111
				c2.264-0.402,1.242-2.48-0.674-4.285c-1.494-1.408,3.439-2.648,1.244-5.865c-0.848-1.24-1.785-1.881-2.721-1.9
				C731.711,154.398,730.156,155.883,730.156,155.883"/>
			<path fill="#46462C" d="M752.641,163.832c0,0,0.381,1.24,1.441,2.967c2.17,3.527,6.238,9.051,9.109,9.904
				c4.271,1.266,1.234-1.158,0.072-4.104c0,0,3.637,2.342,4.793,1.867c1.15-0.473-2.363-4.053-2.838-5.205
				c-0.473-1.15-2.123-4.166-2.797-6.611c-0.779-2.818-3.564-6.014-5.049-2.379C755.889,163.908,752.801,160.33,752.641,163.832"/>
			<path fill="#DDD4B3" d="M738.154,149.096c0,0,5.383-0.359,6.42,3.826c0,0,1.182,5.475,9.854,8.086c0,0,1.58-0.049-0.646-1.494
				s-7.859-3.018-8.174-8.1c0,0,0.115-3.592,2.24-4.527c0,0-2.176,0.988-2.725,3.512
				C745.123,150.398,740.975,148.32,738.154,149.096"/>
			<path fill="#C7BB9A" d="M737.295,167.555c-10.887,2.92-12.555-7.875-12.555-7.875c-5.105,1.072-7.498-1.195-7.961-1.703
				c0.74,1.488,2.668,3.934,7.164,3.148c0,0,1.447,11.785,13.482,7.648c0,0,6.27,7.357,17.145,9.432
				C743.904,175.527,737.295,167.555,737.295,167.555"/>
			<path fill="#A88A22" d="M704.414,171.797c0,0-0.504-17.668,15.588-17.313c0,0,6.723,1.164,4.395,7.172
				c0,0-17.529-2.926-18.279,9.664C706.117,171.32,705.244,174.186,704.414,171.797"/>
			<path fill="#95791F" d="M705.324,172.691c0.455-0.264,0.793-1.371,0.793-1.371c0.75-12.59,18.277-9.664,18.277-9.664
				c0.479-1.234,0.57-2.262,0.422-3.119c-1.852-0.242-4.682-0.102-8.998,1.004C704.773,162.369,705.313,172.471,705.324,172.691"/>
			<path fill="#C1A450" d="M722.625,155.775l0.256-0.092c-1.346-0.932-2.877-1.199-2.877-1.199
				c-10.82-0.238-14.133,7.662-15.146,12.871C705.787,164.514,709.959,154.625,722.625,155.775"/>
			<path fill="#DDD4B3" d="M757.336,156.932l-0.006,0.055c-0.004-0.002-0.008-0.004-0.01-0.006
				c-2.695-0.887-4.045-2.826-3.973-6.502c0.02-1.078-0.707-3.023-2.072-4.953c0.25,1,0.941,4.08,0.977,7.412
				C752.297,157.008,757.336,156.932,757.336,156.932"/>
		</g>
	</g>
</g>
</svg>
