<?xml version="1.0" encoding="utf-8"?>
<!-- Generator: Adobe Illustrator 16.0.0, SVG Export Plug-In . SVG Version: 6.00 Build 0)  -->
<!DOCTYPE svg PUBLIC "-//W3C//DTD SVG 1.1//EN" "http://www.w3.org/Graphics/SVG/1.1/DTD/svg11.dtd">
<svg version="1.1" id="Capa_1" xmlns="http://www.w3.org/2000/svg" xmlns:xlink="http://www.w3.org/1999/xlink" x="0px" y="0px"
	 width="860.409px" height="83.997px" viewBox="0 0 860.409 83.997" enable-background="new 0 0 860.409 83.997"
	 xml:space="preserve">
<g>
	<polygon fill="#BE0411" points="406.218,0 406.647,39.76 435.719,58.122 470.911,36.189 504.061,56.59 539.25,36.189 
		572.913,58.122 607.596,35.681 641.764,57.61 675.938,36.189 709.086,57.61 743.77,36.701 778.448,57.61 811.6,35.17 
		846.284,57.61 865.221,45.277 865.221,0 	"/>
	<polygon fill="#BE0411" points="0.376,0 -1.195,16.026 -1.195,41.23 25.548,58.122 60.739,36.189 93.89,56.59 129.081,36.189 
		162.742,58.122 197.426,35.681 231.596,57.61 265.769,36.189 298.917,57.61 333.6,36.701 368.281,57.61 401.432,35.17 
		436.115,57.61 458.043,43.33 458.442,0 	"/>
	<polygon fill="#801723" points="367.077,54.797 332.979,33.377 298.882,54.797 264.78,33.377 230.688,54.797 196.594,33.377 
		162.502,54.797 128.408,33.377 94.316,54.797 60.224,33.377 26.127,54.797 -1.196,37.631 -1.196,43.052 26.127,60.22 
		60.224,38.798 94.316,60.22 128.408,38.798 162.502,60.22 196.594,38.798 230.688,60.22 264.78,38.798 298.882,60.22 
		332.979,38.798 367.077,60.22 401.178,38.798 435.285,60.22 462.952,43.033 460.51,39.147 435.285,54.797 401.178,33.377 	"/>
	<polygon fill="#801723" points="777.717,54.797 743.618,33.377 709.52,54.797 675.42,33.377 641.327,54.797 607.233,33.377 
		573.141,54.797 539.049,33.377 504.958,54.797 470.866,33.377 436.768,54.797 405.313,35.562 402.869,39.447 436.768,60.22 
		470.866,38.798 504.958,60.22 539.049,38.798 573.141,60.22 607.233,38.798 641.327,60.22 675.42,38.798 709.52,60.22 
		743.618,38.798 777.717,60.22 811.817,38.798 845.924,60.22 865.221,47.584 865.221,42.112 845.924,54.797 811.817,33.377 	"/>
	<g>
		<g>
			<path fill="#FFFFFF" d="M13.538,37.583c-1.07-0.674-1.394-2.097-0.72-3.169c0.675-1.07,2.099-1.392,3.167-0.718
				c1.073,0.672,1.394,2.097,0.72,3.166c-0.43,0.689-1.177,1.072-1.942,1.072C14.348,37.934,13.921,37.812,13.538,37.583
				 M2.186,30.438c-1.088-0.674-1.408-2.082-0.734-3.153c0.671-1.087,2.097-1.408,3.166-0.734c1.071,0.674,1.393,2.096,0.722,3.167
				c-0.433,0.689-1.18,1.071-1.946,1.071C2.979,30.789,2.553,30.682,2.186,30.438"/>
			<path fill="#FFFFFF" d="M26.13,45.079c-0.597,0-1.194-0.244-1.621-0.672c-0.428-0.428-0.673-1.025-0.673-1.623
				c0-0.612,0.245-1.209,0.673-1.637c0.858-0.841,2.388-0.841,3.242,0c0.431,0.443,0.675,1.025,0.675,1.637
				c0,0.597-0.244,1.194-0.675,1.623C27.323,44.835,26.726,45.079,26.13,45.079"/>
			<path fill="#FFFFFF" d="M35.557,36.863c-0.675-1.07-0.353-2.494,0.717-3.166c1.073-0.674,2.495-0.354,3.169,0.718
				c0.672,1.071,0.352,2.494-0.721,3.168c-0.384,0.244-0.812,0.351-1.224,0.351C36.733,37.934,35.984,37.551,35.557,36.863
				 M46.908,29.717c-0.674-1.07-0.352-2.494,0.732-3.167c1.074-0.673,2.481-0.353,3.169,0.734c0.656,1.072,0.337,2.479-0.731,3.152
				c-0.383,0.245-0.798,0.351-1.21,0.351C48.102,30.788,47.351,30.406,46.908,29.717"/>
			<path fill="#FFFFFF" d="M60.22,23.658c-0.598,0-1.192-0.245-1.622-0.673c-0.427-0.428-0.673-1.023-0.673-1.622
				c0-0.611,0.246-1.209,0.673-1.636c0.856-0.844,2.386-0.844,3.245,0c0.428,0.427,0.673,1.025,0.673,1.636
				c0,0.598-0.245,1.194-0.673,1.622C61.412,23.414,60.832,23.658,60.22,23.658"/>
			<path fill="#FFFFFF" d="M81.733,37.583c-1.073-0.674-1.394-2.097-0.721-3.169c0.672-1.07,2.08-1.392,3.168-0.718
				c1.071,0.672,1.393,2.097,0.72,3.166c-0.444,0.689-1.195,1.072-1.944,1.072C82.528,37.934,82.115,37.812,81.733,37.583
				 M70.365,30.438c-1.073-0.674-1.393-2.082-0.72-3.153c0.671-1.087,2.094-1.408,3.167-0.734c1.07,0.674,1.393,2.096,0.718,3.167
				c-0.443,0.689-1.177,1.071-1.942,1.071C71.176,30.789,70.748,30.682,70.365,30.438"/>
			<path fill="#FFFFFF" d="M94.325,45.079c-0.611,0-1.208-0.244-1.637-0.672c-0.431-0.428-0.657-1.025-0.657-1.623
				c0-0.612,0.227-1.209,0.657-1.622c0.855-0.857,2.403-0.857,3.258,0c0.416,0.413,0.656,1.009,0.656,1.622
				c0,0.597-0.24,1.194-0.656,1.623C95.519,44.835,94.921,45.079,94.325,45.079"/>
			<path fill="#FFFFFF" d="M103.734,36.863c-0.673-1.07-0.35-2.494,0.719-3.166c1.088-0.674,2.495-0.354,3.169,0.718
				c0.672,1.071,0.352,2.494-0.721,3.168c-0.383,0.244-0.81,0.351-1.221,0.351C104.915,37.934,104.18,37.551,103.734,36.863
				 M115.104,29.717c-0.675-1.07-0.352-2.494,0.719-3.167c1.072-0.673,2.494-0.353,3.167,0.734c0.672,1.072,0.353,2.479-0.719,3.152
				c-0.384,0.245-0.811,0.351-1.224,0.351C116.281,30.788,115.53,30.406,115.104,29.717"/>
			<path fill="#FFFFFF" d="M128.399,23.658c-0.596,0-1.177-0.245-1.622-0.673c-0.428-0.428-0.673-1.023-0.673-1.622
				c0-0.611,0.261-1.194,0.673-1.621c0.856-0.859,2.401-0.859,3.26,0c0.413,0.427,0.657,1.01,0.657,1.621
				c0,0.598-0.229,1.194-0.657,1.622C129.606,23.414,129.012,23.658,128.399,23.658"/>
			<path fill="#FFFFFF" d="M149.913,37.583c-1.073-0.674-1.393-2.097-0.72-3.169c0.672-1.07,2.095-1.392,3.167-0.718
				c1.07,0.672,1.394,2.097,0.717,3.166c-0.426,0.689-1.177,1.072-1.942,1.072C150.723,37.934,150.295,37.812,149.913,37.583
				 M138.558,30.438c-1.085-0.674-1.408-2.082-0.732-3.167c0.671-1.072,2.096-1.393,3.167-0.72c1.071,0.674,1.39,2.096,0.719,3.167
				c-0.43,0.689-1.178,1.071-1.943,1.071C139.354,30.789,138.924,30.682,138.558,30.438"/>
			<path fill="#FFFFFF" d="M162.502,45.079c-0.593,0-1.19-0.244-1.618-0.672c-0.432-0.428-0.674-1.025-0.674-1.623
				c0-0.612,0.242-1.194,0.674-1.622c0.855-0.857,2.385-0.872,3.241,0c0.43,0.428,0.673,1.009,0.673,1.622
				c0,0.597-0.243,1.194-0.673,1.623C163.698,44.835,163.102,45.079,162.502,45.079"/>
			<path fill="#FFFFFF" d="M171.928,36.863c-0.671-1.07-0.352-2.494,0.72-3.166c1.07-0.674,2.494-0.354,3.171,0.718
				c0.67,1.071,0.333,2.494-0.722,3.168c-0.381,0.244-0.81,0.351-1.225,0.351C173.105,37.934,172.359,37.551,171.928,36.863
				 M183.281,29.717c-0.672-1.07-0.352-2.494,0.721-3.167c1.084-0.673,2.492-0.353,3.167,0.72c0.673,1.086,0.352,2.493-0.72,3.167
				c-0.383,0.245-0.795,0.351-1.225,0.351C184.478,30.788,183.726,30.406,183.281,29.717"/>
			<path fill="#FFFFFF" d="M196.594,23.658c-0.611,0-1.193-0.245-1.622-0.673c-0.427-0.428-0.672-1.023-0.672-1.622
				c0-0.611,0.245-1.194,0.672-1.636c0.857-0.844,2.389-0.844,3.243,0c0.43,0.442,0.674,1.025,0.674,1.636
				c0,0.598-0.244,1.194-0.674,1.622C197.786,23.414,197.204,23.658,196.594,23.658"/>
			<path fill="#FFFFFF" d="M218.105,37.583c-1.084-0.674-1.408-2.097-0.732-3.169c0.688-1.07,2.096-1.392,3.166-0.718
				c1.07,0.672,1.391,2.097,0.719,3.166c-0.428,0.689-1.178,1.072-1.941,1.072C218.904,37.934,218.473,37.812,218.105,37.583
				 M206.736,30.438c-1.069-0.674-1.393-2.082-0.715-3.153c0.67-1.087,2.078-1.408,3.162-0.734c1.074,0.674,1.393,2.096,0.721,3.167
				c-0.441,0.689-1.191,1.071-1.941,1.071C207.533,30.789,207.119,30.682,206.736,30.438"/>
			<path fill="#FFFFFF" d="M230.685,45.065c-0.599,0-1.192-0.23-1.626-0.658c-0.426-0.428-0.67-1.025-0.67-1.623
				c0-0.612,0.244-1.194,0.67-1.621c0.859-0.857,2.389-0.857,3.248-0.016c0.427,0.442,0.672,1.024,0.672,1.636
				c0,0.597-0.245,1.195-0.672,1.623C231.875,44.834,231.296,45.065,230.685,45.065"/>
			<path fill="#FFFFFF" d="M240.108,36.863c-0.672-1.07-0.353-2.494,0.72-3.166c1.069-0.674,2.494-0.354,3.166,0.718
				c0.675,1.071,0.352,2.494-0.717,3.168c-0.383,0.244-0.813,0.351-1.227,0.351C241.285,37.934,240.536,37.551,240.108,36.863
				 M251.477,29.717c-0.674-1.07-0.353-2.494,0.721-3.167c1.068-0.673,2.492-0.353,3.166,0.72c0.674,1.086,0.352,2.493-0.719,3.167
				c-0.384,0.245-0.811,0.351-1.225,0.351C252.653,30.788,251.903,30.406,251.477,29.717"/>
			<path fill="#FFFFFF" d="M264.771,23.658c-0.594,0-1.191-0.245-1.619-0.673c-0.415-0.428-0.66-1.023-0.66-1.622
				c0-0.611,0.245-1.209,0.66-1.636c0.855-0.844,2.4-0.844,3.257,0c0.413,0.427,0.657,1.025,0.657,1.636
				c0,0.598-0.244,1.194-0.657,1.622C265.981,23.414,265.383,23.658,264.771,23.658"/>
			<path fill="#FFFFFF" d="M286.285,37.583c-1.068-0.674-1.393-2.097-0.721-3.169c0.676-1.07,2.099-1.392,3.17-0.718
				c1.07,0.672,1.391,2.08,0.718,3.166c-0.427,0.689-1.177,1.072-1.94,1.072C287.097,37.934,286.668,37.826,286.285,37.583
				 M274.932,30.438c-1.085-0.674-1.406-2.082-0.734-3.167c0.676-1.072,2.098-1.393,3.166-0.72c1.074,0.674,1.395,2.096,0.723,3.167
				c-0.432,0.689-1.179,1.071-1.943,1.071C275.727,30.789,275.301,30.682,274.932,30.438"/>
			<path fill="#FFFFFF" d="M298.879,45.079c-0.599,0-1.195-0.244-1.625-0.672c-0.426-0.428-0.67-1.025-0.67-1.623
				c0-0.612,0.244-1.194,0.67-1.622c0.859-0.857,2.389-0.857,3.248,0c0.427,0.428,0.672,1.009,0.672,1.622
				c0,0.597-0.245,1.194-0.672,1.623C300.07,44.835,299.476,45.079,298.879,45.079"/>
			<path fill="#FFFFFF" d="M308.305,36.863c-0.676-1.07-0.354-2.494,0.717-3.166c1.072-0.674,2.495-0.354,3.168,0.718
				c0.674,1.071,0.352,2.494-0.718,3.168c-0.382,0.244-0.813,0.351-1.226,0.351C309.482,37.934,308.732,37.551,308.305,36.863
				 M319.672,29.717c-0.673-1.07-0.354-2.494,0.72-3.167c1.071-0.673,2.493-0.353,3.165,0.72c0.675,1.086,0.354,2.493-0.717,3.167
				c-0.385,0.245-0.814,0.351-1.226,0.351C320.848,30.788,320.101,30.406,319.672,29.717"/>
			<path fill="#FFFFFF" d="M332.98,23.658c-0.607,0-1.19-0.245-1.617-0.673c-0.432-0.428-0.677-1.023-0.677-1.622
				c0-0.611,0.245-1.194,0.677-1.636c0.84-0.844,2.384-0.844,3.24,0c0.429,0.427,0.674,1.025,0.674,1.636
				c0,0.598-0.245,1.194-0.674,1.622C334.178,23.414,333.578,23.658,332.98,23.658"/>
			<path fill="#FFFFFF" d="M354.495,37.583c-1.084-0.674-1.405-2.097-0.735-3.169c0.69-1.07,2.098-1.392,3.17-0.718
				c1.07,0.672,1.405,2.08,0.717,3.166c-0.43,0.689-1.176,1.072-1.939,1.072C355.291,37.934,354.863,37.826,354.495,37.583
				 M343.127,30.438c-1.072-0.674-1.393-2.082-0.72-3.167c0.677-1.072,2.083-1.393,3.153-0.72c1.084,0.674,1.407,2.096,0.734,3.167
				c-0.445,0.689-1.195,1.071-1.945,1.071C343.922,30.789,343.51,30.682,343.127,30.438"/>
			<path fill="#FFFFFF" d="M367.074,45.079c-0.599,0-1.196-0.244-1.625-0.672c-0.426-0.428-0.67-1.025-0.67-1.623
				c0-0.612,0.244-1.194,0.67-1.637c0.859-0.841,2.403-0.841,3.244,0c0.43,0.443,0.676,1.025,0.676,1.637
				c0,0.597-0.246,1.179-0.676,1.623C368.266,44.835,367.682,45.079,367.074,45.079"/>
			<path fill="#FFFFFF" d="M376.5,36.863c-0.676-1.07-0.354-2.494,0.731-3.166c1.073-0.674,2.479-0.354,3.153,0.718
				c0.672,1.071,0.352,2.494-0.721,3.168c-0.383,0.229-0.795,0.351-1.223,0.351C377.677,37.934,376.94,37.551,376.5,36.863
				 M387.866,29.717c-0.677-1.07-0.353-2.494,0.718-3.167c1.074-0.673,2.496-0.353,3.167,0.734c0.676,1.072,0.354,2.479-0.717,3.152
				c-0.384,0.245-0.813,0.351-1.225,0.351C389.043,30.788,388.311,30.406,387.866,29.717"/>
			<path fill="#FFFFFF" d="M401.178,23.658c-0.598,0-1.192-0.245-1.623-0.673c-0.428-0.428-0.673-1.023-0.673-1.622
				c0-0.611,0.245-1.209,0.673-1.621c0.858-0.859,2.388-0.859,3.244,0c0.428,0.412,0.673,1.01,0.673,1.621
				c0,0.598-0.245,1.194-0.673,1.622C402.373,23.414,401.774,23.658,401.178,23.658"/>
			<path fill="#FFFFFF" d="M422.689,37.583c-1.07-0.674-1.391-2.097-0.72-3.169c0.675-1.07,2.099-1.392,3.17-0.718
				c1.068,0.672,1.391,2.097,0.718,3.166c-0.43,0.689-1.181,1.072-1.945,1.072C423.5,37.934,423.073,37.826,422.689,37.583
				 M411.322,30.438c-1.072-0.674-1.391-2.082-0.72-3.153c0.673-1.087,2.099-1.408,3.169-0.734c1.068,0.674,1.392,2.096,0.718,3.167
				c-0.43,0.689-1.179,1.071-1.944,1.071C412.132,30.789,411.705,30.682,411.322,30.438"/>
			<path fill="#FFFFFF" d="M435.285,45.079c-0.6,0-1.196-0.244-1.625-0.672c-0.428-0.428-0.671-1.025-0.671-1.623
				c0-0.612,0.243-1.194,0.671-1.622c0.858-0.857,2.388-0.857,3.244-0.016c0.43,0.443,0.675,1.025,0.675,1.637
				c0,0.597-0.245,1.194-0.675,1.623C436.476,44.835,435.878,45.079,435.285,45.079"/>
			<path fill="#FFFFFF" d="M444.709,36.863c-0.676-1.07-0.354-2.494,0.717-3.166c1.072-0.674,2.494-0.354,3.168,0.718
				c0.672,1.071,0.354,2.494-0.721,3.168c-0.381,0.244-0.809,0.351-1.223,0.351C445.887,37.934,445.151,37.551,444.709,36.863
				 M456.077,29.717c-0.676-1.07-0.352-2.494,0.717-3.167c1.072-0.673,2.498-0.353,3.168,0.72c0.674,1.086,0.354,2.493-0.717,3.167
				c-0.383,0.245-0.797,0.351-1.225,0.351C457.254,30.788,456.518,30.406,456.077,29.717"/>
			<path fill="#FFFFFF" d="M472.065,23.658c-0.607,0-1.207-0.245-1.621-0.673c-0.43-0.428-0.674-1.023-0.674-1.622
				c0-0.611,0.244-1.209,0.674-1.636c0.842-0.844,2.371-0.844,3.242,0c0.43,0.427,0.674,1.025,0.674,1.636
				c0,0.598-0.244,1.194-0.674,1.622C473.26,23.414,472.663,23.658,472.065,23.658"/>
			<path fill="#FFFFFF" d="M493.565,37.583c-1.072-0.674-1.395-2.097-0.721-3.169c0.674-1.07,2.098-1.392,3.166-0.718
				c1.072,0.672,1.393,2.097,0.721,3.166c-0.432,0.689-1.178,1.072-1.943,1.072C494.374,37.934,493.946,37.812,493.565,37.583
				 M482.211,30.438c-1.09-0.674-1.408-2.082-0.734-3.153c0.67-1.087,2.096-1.408,3.166-0.734c1.07,0.674,1.393,2.096,0.721,3.167
				c-0.432,0.689-1.18,1.071-1.945,1.071C483.006,30.789,482.579,30.682,482.211,30.438"/>
			<path fill="#FFFFFF" d="M506.155,45.079c-0.598,0-1.195-0.244-1.621-0.672c-0.428-0.428-0.672-1.025-0.672-1.623
				c0-0.612,0.244-1.209,0.672-1.637c0.857-0.841,2.387-0.841,3.242,0c0.43,0.443,0.674,1.025,0.674,1.637
				c0,0.597-0.244,1.194-0.674,1.623C507.348,44.835,506.75,45.079,506.155,45.079"/>
			<path fill="#FFFFFF" d="M515.581,36.863c-0.674-1.07-0.352-2.494,0.717-3.166c1.074-0.674,2.496-0.354,3.17,0.718
				c0.67,1.071,0.352,2.494-0.721,3.168c-0.383,0.244-0.813,0.351-1.223,0.351C516.758,37.934,516.008,37.551,515.581,36.863
				 M526.932,29.717c-0.674-1.07-0.352-2.494,0.734-3.167c1.072-0.673,2.48-0.353,3.168,0.734c0.656,1.072,0.336,2.479-0.732,3.152
				c-0.383,0.245-0.797,0.351-1.209,0.351C528.125,30.788,527.375,30.406,526.932,29.717"/>
			<path fill="#FFFFFF" d="M540.245,23.658c-0.598,0-1.193-0.245-1.623-0.673c-0.426-0.428-0.672-1.023-0.672-1.622
				c0-0.611,0.246-1.209,0.672-1.636c0.857-0.844,2.387-0.844,3.246,0c0.428,0.427,0.672,1.025,0.672,1.636
				c0,0.598-0.244,1.194-0.672,1.622C541.436,23.414,540.856,23.658,540.245,23.658"/>
			<path fill="#FFFFFF" d="M561.758,37.583c-1.074-0.674-1.395-2.097-0.721-3.169c0.672-1.07,2.08-1.392,3.166-0.718
				c1.072,0.672,1.393,2.097,0.721,3.166c-0.445,0.689-1.195,1.072-1.943,1.072C562.551,37.934,562.139,37.812,561.758,37.583
				 M550.389,30.438c-1.072-0.674-1.393-2.082-0.719-3.153c0.67-1.087,2.094-1.408,3.166-0.734c1.072,0.674,1.393,2.096,0.719,3.167
				c-0.443,0.689-1.176,1.071-1.943,1.071C551.2,30.789,550.772,30.682,550.389,30.438"/>
			<path fill="#FFFFFF" d="M574.348,45.079c-0.609,0-1.207-0.244-1.637-0.672c-0.43-0.428-0.656-1.025-0.656-1.623
				c0-0.612,0.227-1.209,0.656-1.622c0.855-0.857,2.404-0.857,3.258,0c0.416,0.413,0.656,1.009,0.656,1.622
				c0,0.597-0.24,1.194-0.656,1.623C575.542,44.835,574.946,45.079,574.348,45.079"/>
			<path fill="#FFFFFF" d="M583.758,36.863c-0.672-1.07-0.352-2.494,0.719-3.166c1.088-0.674,2.494-0.354,3.168,0.718
				c0.672,1.071,0.352,2.494-0.721,3.168c-0.383,0.244-0.809,0.351-1.221,0.351C584.938,37.934,584.204,37.551,583.758,36.863
				 M595.127,29.717c-0.674-1.07-0.352-2.494,0.719-3.167c1.072-0.673,2.494-0.353,3.166,0.734c0.674,1.072,0.354,2.479-0.719,3.152
				c-0.383,0.245-0.811,0.351-1.223,0.351C596.305,30.788,595.553,30.406,595.127,29.717"/>
			<path fill="#FFFFFF" d="M608.424,23.658c-0.598,0-1.178-0.245-1.623-0.673c-0.428-0.428-0.674-1.023-0.674-1.622
				c0-0.611,0.262-1.194,0.674-1.621c0.857-0.859,2.402-0.859,3.26,0c0.412,0.427,0.658,1.01,0.658,1.621
				c0,0.598-0.23,1.194-0.658,1.622C609.629,23.414,609.036,23.658,608.424,23.658"/>
			<path fill="#FFFFFF" d="M629.938,37.583c-1.076-0.674-1.395-2.097-0.721-3.169c0.672-1.07,2.094-1.392,3.166-0.718
				c1.07,0.672,1.393,2.097,0.717,3.166c-0.426,0.689-1.178,1.072-1.941,1.072C630.747,37.934,630.319,37.812,629.938,37.583
				 M618.581,30.438c-1.084-0.674-1.408-2.082-0.73-3.167c0.67-1.072,2.094-1.393,3.166-0.72c1.07,0.674,1.389,2.096,0.717,3.167
				c-0.428,0.689-1.176,1.071-1.941,1.071C619.379,30.789,618.948,30.682,618.581,30.438"/>
			<path fill="#FFFFFF" d="M642.526,45.079c-0.594,0-1.191-0.244-1.619-0.672c-0.43-0.428-0.674-1.025-0.674-1.623
				c0-0.612,0.244-1.194,0.674-1.622c0.855-0.857,2.385-0.872,3.242,0c0.428,0.428,0.672,1.009,0.672,1.622
				c0,0.597-0.244,1.194-0.672,1.623C643.721,44.835,643.124,45.079,642.526,45.079"/>
			<path fill="#FFFFFF" d="M651.952,36.863c-0.672-1.07-0.352-2.494,0.719-3.166c1.07-0.674,2.494-0.354,3.17,0.718
				c0.672,1.071,0.336,2.494-0.721,3.168c-0.381,0.244-0.811,0.351-1.225,0.351C653.129,37.934,652.383,37.551,651.952,36.863
				 M663.305,29.717c-0.672-1.07-0.352-2.494,0.721-3.167c1.084-0.673,2.492-0.353,3.166,0.72c0.674,1.086,0.352,2.493-0.719,3.167
				c-0.383,0.245-0.795,0.351-1.225,0.351C664.5,30.788,663.749,30.406,663.305,29.717"/>
			<path fill="#FFFFFF" d="M676.618,23.658c-0.611,0-1.193-0.245-1.623-0.673c-0.426-0.428-0.672-1.023-0.672-1.622
				c0-0.611,0.246-1.194,0.672-1.636c0.857-0.844,2.389-0.844,3.244,0c0.43,0.442,0.674,1.025,0.674,1.636
				c0,0.598-0.244,1.194-0.674,1.622C677.809,23.414,677.227,23.658,676.618,23.658"/>
			<path fill="#FFFFFF" d="M698.129,37.583c-1.084-0.674-1.408-2.097-0.734-3.169c0.689-1.07,2.098-1.392,3.168-0.718
				c1.07,0.672,1.391,2.097,0.719,3.166c-0.428,0.689-1.178,1.072-1.941,1.072C698.926,37.934,698.497,37.812,698.129,37.583
				 M686.76,30.438c-1.068-0.674-1.393-2.082-0.717-3.153c0.672-1.087,2.08-1.408,3.164-0.734c1.074,0.674,1.393,2.096,0.721,3.167
				c-0.443,0.689-1.191,1.071-1.941,1.071C687.555,30.789,687.143,30.682,686.76,30.438"/>
			<path fill="#FFFFFF" d="M710.708,45.065c-0.598,0-1.193-0.23-1.625-0.658c-0.426-0.428-0.67-1.025-0.67-1.623
				c0-0.612,0.244-1.194,0.67-1.621c0.859-0.857,2.389-0.857,3.248-0.016c0.426,0.442,0.672,1.024,0.672,1.636
				c0,0.597-0.246,1.195-0.672,1.623C711.899,44.834,711.319,45.065,710.708,45.065"/>
			<path fill="#FFFFFF" d="M720.131,36.863c-0.672-1.07-0.352-2.494,0.721-3.166c1.07-0.674,2.494-0.354,3.166,0.718
				c0.674,1.071,0.352,2.494-0.717,3.168c-0.383,0.244-0.814,0.351-1.227,0.351C721.309,37.934,720.559,37.551,720.131,36.863
				 M731.5,29.717c-0.674-1.07-0.354-2.494,0.721-3.167c1.068-0.673,2.492-0.353,3.166,0.72c0.674,1.086,0.352,2.493-0.721,3.167
				c-0.381,0.245-0.809,0.351-1.223,0.351C732.678,30.788,731.926,30.406,731.5,29.717"/>
			<path fill="#FFFFFF" d="M744.793,23.658c-0.592,0-1.191-0.245-1.617-0.673c-0.416-0.428-0.66-1.023-0.66-1.622
				c0-0.611,0.244-1.209,0.66-1.636c0.855-0.844,2.4-0.844,3.256,0c0.414,0.427,0.658,1.025,0.658,1.636
				c0,0.598-0.244,1.194-0.658,1.622C746.004,23.414,745.407,23.658,744.793,23.658"/>
			<path fill="#FFFFFF" d="M766.309,37.583c-1.07-0.674-1.391-2.097-0.721-3.169c0.676-1.07,2.1-1.392,3.17-0.718
				c1.07,0.672,1.391,2.08,0.719,3.166c-0.428,0.689-1.178,1.072-1.941,1.072C767.12,37.934,766.692,37.826,766.309,37.583
				 M754.956,30.438c-1.086-0.674-1.406-2.082-0.734-3.167c0.674-1.072,2.098-1.393,3.166-0.72c1.074,0.674,1.395,2.096,0.723,3.167
				c-0.432,0.689-1.178,1.071-1.945,1.071C755.75,30.789,755.325,30.682,754.956,30.438"/>
			<path fill="#FFFFFF" d="M778.903,45.079c-0.598,0-1.195-0.244-1.625-0.672c-0.426-0.428-0.67-1.025-0.67-1.623
				c0-0.612,0.244-1.194,0.67-1.622c0.859-0.857,2.389-0.857,3.248,0c0.426,0.428,0.672,1.009,0.672,1.622
				c0,0.597-0.246,1.194-0.672,1.623C780.094,44.835,779.499,45.079,778.903,45.079"/>
			<path fill="#FFFFFF" d="M788.329,36.863c-0.676-1.07-0.354-2.494,0.717-3.166c1.072-0.674,2.494-0.354,3.168,0.718
				s0.352,2.494-0.717,3.168c-0.383,0.244-0.814,0.351-1.227,0.351C789.504,37.934,788.756,37.551,788.329,36.863 M799.696,29.717
				c-0.674-1.07-0.354-2.494,0.721-3.167c1.07-0.673,2.492-0.353,3.162,0.72c0.676,1.086,0.355,2.493-0.717,3.167
				c-0.383,0.245-0.813,0.351-1.223,0.351C800.872,30.788,800.124,30.406,799.696,29.717"/>
			<path fill="#FFFFFF" d="M813.004,23.658c-0.609,0-1.191-0.245-1.617-0.673c-0.432-0.428-0.676-1.023-0.676-1.622
				c0-0.611,0.244-1.194,0.676-1.636c0.838-0.844,2.385-0.844,3.24,0c0.428,0.427,0.672,1.025,0.672,1.636
				c0,0.598-0.244,1.194-0.672,1.622C814.202,23.414,813.602,23.658,813.004,23.658"/>
			<path fill="#FFFFFF" d="M834.518,37.583c-1.084-0.674-1.404-2.097-0.734-3.169c0.691-1.07,2.098-1.392,3.17-0.718
				c1.07,0.672,1.404,2.08,0.717,3.166c-0.43,0.689-1.176,1.072-1.941,1.072C835.315,37.934,834.885,37.826,834.518,37.583
				 M823.151,30.438c-1.072-0.674-1.393-2.082-0.719-3.167c0.676-1.072,2.082-1.393,3.152-0.72c1.084,0.674,1.406,2.096,0.732,3.167
				c-0.443,0.689-1.193,1.071-1.943,1.071C823.946,30.789,823.534,30.682,823.151,30.438"/>
			<path fill="#FFFFFF" d="M847.098,45.079c-0.6,0-1.197-0.244-1.625-0.672c-0.426-0.428-0.672-1.025-0.672-1.623
				c0-0.612,0.246-1.194,0.672-1.637c0.859-0.841,2.402-0.841,3.244,0c0.43,0.443,0.676,1.025,0.676,1.637
				c0,0.597-0.246,1.179-0.676,1.623C848.29,44.835,847.706,45.079,847.098,45.079"/>
			<path fill="#FFFFFF" d="M856.524,36.863c-0.678-1.07-0.354-2.494,0.73-3.166c1.074-0.674,2.48-0.354,3.154,0.718
				c0.672,1.071,0.352,2.494-0.721,3.168c-0.383,0.229-0.795,0.351-1.223,0.351C857.702,37.934,856.963,37.551,856.524,36.863"/>
		</g>
		<polyline fill="none" stroke="#8E1525" stroke-width="3.242" stroke-miterlimit="10" points="-5.833,60.567 28.261,81.988 
			62.355,60.567 96.449,81.988 130.544,60.567 164.639,81.988 198.729,60.567 232.82,81.988 266.916,60.567 301.015,81.988 
			335.113,60.567 369.211,81.988 403.311,60.567 437.416,81.988 		"/>
		<polyline fill="none" stroke="#8E1525" stroke-width="3.242" stroke-miterlimit="10" points="402.578,60.567 436.673,81.988 
			470.766,60.567 504.86,81.988 538.954,60.567 573.049,81.988 607.139,60.567 641.231,81.988 675.327,60.567 709.424,81.988 
			743.524,60.567 777.622,81.988 811.721,60.567 845.827,81.988 868.723,62.246 		"/>
		
			<polyline fill="none" stroke="#211915" stroke-width="3.242" stroke-linecap="round" stroke-miterlimit="10" stroke-dasharray="0,5.403" points="
			-1.196,50.736 28.261,69.244 62.355,47.823 96.449,69.244 130.544,47.823 164.639,69.244 198.729,47.823 232.82,69.244 
			266.916,47.823 301.015,69.244 335.113,47.823 369.211,69.244 403.311,47.823 437.416,69.244 471.52,47.823 		"/>
		
			<polyline fill="none" stroke="#211915" stroke-width="3.242" stroke-linecap="round" stroke-miterlimit="10" stroke-dasharray="0,5.403" points="
			473.721,47.823 507.815,69.244 541.909,47.823 576.002,69.244 610.092,47.823 644.184,69.244 678.28,47.823 712.377,69.244 
			746.477,47.823 780.575,69.244 814.674,47.823 848.78,69.244 868.723,54.116 		"/>
	</g>
</g>
</svg>
