<?xml version="1.0" encoding="utf-8"?>
<!-- Generator: Adobe Illustrator 16.0.0, SVG Export Plug-In . SVG Version: 6.00 Build 0)  -->
<!DOCTYPE svg PUBLIC "-//W3C//DTD SVG 1.1//EN" "http://www.w3.org/Graphics/SVG/1.1/DTD/svg11.dtd">
<svg version="1.1" id="Capa_1" xmlns="http://www.w3.org/2000/svg" xmlns:xlink="http://www.w3.org/1999/xlink" x="0px" y="0px"
	 width="800px" height="800px" viewBox="0 0 800 800" enable-background="new 0 0 800 800" xml:space="preserve">
<path opacity="0.7" fill="#EFD3A2" d="M657.703,214.781c1.227-1.608,2.875-2.872,4.787-3.625c-0.014-0.261-0.041-0.517-0.041-0.782
	c0-9.112,7.387-16.498,16.5-16.498c8.082,0,14.793,5.814,16.211,13.485c4.348,0.877,7.775,4.281,8.695,8.613h0.002
	c0,0,4.207,11.87,35.102,11.87H571.75c5.164-0.003,69.75-0.293,85.951-13.063H657.703z"/>
<path opacity="0.7" fill="#EFD3A2" d="M238.948,182.251c-2.179,0-4.129,0.956-5.471,2.466c-0.677,0.39-6.264,3.375-12.936,0.051
	c-1.674-2.511-4.529-4.166-7.772-4.166c-0.981,0-1.928,0.154-2.817,0.435c-1.451-3.274-4.723-5.56-8.535-5.56
	c-0.625,0-1.235,0.064-1.826,0.181c-1.617-5.45-6.661-9.426-12.635-9.426c-7.28,0-13.183,5.9-13.183,13.181
	c0,0.66,0.05,1.308,0.144,1.942c-2.041,0.587-3.713,2.026-4.621,3.909c-2.063,1.235-17.475,8.612-91.451,8.612h241.654
	c0,0-61.543-2.829-74.061-7.685C244.216,183.85,241.771,182.251,238.948,182.251"/>
<path opacity="0.7" fill="#EFD3A2" d="M248.537,537.045c-2.179,0-4.129,0.957-5.471,2.467c-0.677,0.39-6.264,3.375-12.936,0.051
	c-1.674-2.512-4.529-4.166-7.772-4.166c-0.981,0-1.928,0.154-2.817,0.435c-1.451-3.274-4.723-5.56-8.535-5.56
	c-0.625,0-1.235,0.064-1.826,0.181c-1.617-5.45-6.661-9.426-12.635-9.426c-7.28,0-13.183,5.899-13.183,13.181
	c0,0.66,0.05,1.309,0.144,1.942c-2.041,0.587-3.713,2.026-4.621,3.909c-2.063,1.234-17.475,8.611-91.451,8.611h241.654
	c0,0-61.543-2.828-74.061-7.685C253.806,538.645,251.36,537.045,248.537,537.045"/>
<path opacity="0.7" fill="#EFD3A2" d="M439.703,444.781c1.227-1.608,2.875-2.873,4.787-3.625c-0.014-0.262-0.041-0.518-0.041-0.782
	c0-9.112,7.387-16.498,16.5-16.498c8.082,0,14.793,5.813,16.211,13.485c4.348,0.877,7.775,4.28,8.695,8.612h0.002
	c0,0,4.207,11.87,35.102,11.87H353.75c5.164-0.003,69.75-0.293,85.951-13.063H439.703z"/>
<path opacity="0.7" fill="#EFD3A2" d="M219.045,105.329c1.227-1.608,2.875-2.873,4.787-3.625c-0.014-0.262-0.041-0.518-0.041-0.782
	c0-9.112,7.387-16.498,16.5-16.498c8.082,0,14.793,5.813,16.211,13.485c4.348,0.877,7.775,4.28,8.695,8.612h0.002
	c0,0,4.207,11.87,35.102,11.87H133.092c5.164-0.003,69.75-0.293,85.951-13.063H219.045z"/>
</svg>
