<?xml version="1.0" encoding="utf-8"?>
<!-- Generator: Adobe Illustrator 16.0.0, SVG Export Plug-In . SVG Version: 6.00 Build 0)  -->
<!DOCTYPE svg PUBLIC "-//W3C//DTD SVG 1.1//EN" "http://www.w3.org/Graphics/SVG/1.1/DTD/svg11.dtd">
<svg version="1.1" xmlns="http://www.w3.org/2000/svg" xmlns:xlink="http://www.w3.org/1999/xlink" x="0px" y="0px" width="60px"
	 height="60px" viewBox="0 0 60 60" enable-background="new 0 0 60 60" xml:space="preserve">
<g id="Capa_1">
</g>
<g id="Capa_2">
	<linearGradient id="SVGID_1_" gradientUnits="userSpaceOnUse" x1="11.8467" y1="30.0005" x2="48.1533" y2="30.0005">
		<stop  offset="0" style="stop-color:#FEFEFE"/>
		<stop  offset="1" style="stop-color:#CCCCCC"/>
	</linearGradient>
	<path fill="url(#SVGID_1_)" stroke="#666666" stroke-width="0.25" stroke-miterlimit="10" d="M31.781,9.27H14.917
		c-1.685,0-3.07,1.386-3.07,3.088v39.364c0,1.684,1.385,3.069,3.07,3.069h20.309c1.685,0,3.07-1.367,3.07-3.069V22.017
		c-0.095-0.112-0.15-0.224-0.226-0.355l-1.235-2.452c-0.224,0.131-0.448,0.262-0.674,0.393v29.5l0,0H13.98V14.155h13.196
		c1.31-1.778,2.92-3.369,4.68-4.735L31.781,9.27z M28.038,27.408c0.206-0.094,0.355-0.318,0.336-0.562
		c-0.019-0.169-0.225-4.362,5.111-7.918c1.104-0.729,2.489-1.517,4.212-2.415l2.152,4.25c0.093,0.187,0.299,0.319,0.505,0.336
		c0.225-0.018,0.431-0.112,0.523-0.318l7.188-12.877c0.113-0.169,0.113-0.374,0.02-0.562c-0.094-0.168-0.263-0.299-0.468-0.318
		L32.98,5.209h-0.039h-0.056c-0.188,0.018-0.355,0.111-0.45,0.261c-0.129,0.169-0.167,0.395-0.055,0.6l2.002,3.95
		c-2.207,1.516-11.492,8.535-7.131,17.145c0.131,0.244,0.411,0.374,0.692,0.3C27.981,27.444,28.019,27.427,28.038,27.408
		L28.038,27.408z M21.824,11.498L21.824,11.498h6.495c0.206,0,0.374,0.168,0.374,0.374c0,0.206-0.168,0.374-0.374,0.374h-6.495
		c-0.206,0-0.375-0.168-0.375-0.374C21.449,11.666,21.618,11.498,21.824,11.498L21.824,11.498z M25.062,53.258L25.062,53.258
		c-0.842,0-1.535-0.674-1.535-1.535c0-0.843,0.692-1.536,1.535-1.536c0.861,0,1.554,0.693,1.554,1.536
		C26.615,52.584,25.922,53.258,25.062,53.258L25.062,53.258z"/>
</g>
</svg>
