<?xml version="1.0" encoding="utf-8"?>
<!-- Generator: Adobe Illustrator 16.0.0, SVG Export Plug-In . SVG Version: 6.00 Build 0)  -->
<!DOCTYPE svg PUBLIC "-//W3C//DTD SVG 1.1//EN" "http://www.w3.org/Graphics/SVG/1.1/DTD/svg11.dtd">
<svg version="1.1" id="Layer_1" xmlns="http://www.w3.org/2000/svg" xmlns:xlink="http://www.w3.org/1999/xlink" x="0px" y="0px"
	 width="336.552px" height="315.172px" viewBox="0 0 336.552 315.172" enable-background="new 0 0 336.552 315.172"
	 xml:space="preserve">
<g>
	<path fill-rule="evenodd" clip-rule="evenodd" fill="#90C9F7" d="M82.589,198.077c-8.454-4.079-15.206-10.584-22.701-16.019
		c-11.312-8.203-22.438-16.661-33.616-25.046c-4.517-3.388-4.505-3.528,0.359-5.949c43.098-21.443,86.219-42.84,129.306-64.306
		c49.625-24.724,99.222-49.504,148.833-74.254c1.733-0.865,3.501-1.662,5.827-2.764c-0.373,6.151-2.795,10.956-4.435,15.877
		c-29.29,87.927-58.732,175.803-88.141,263.69c-0.159,0.474-0.287,0.957-0.443,1.431c-2.445,7.432-2.451,7.438-8.773,2.705
		c-24.236-18.145-48.461-36.305-72.726-54.411c-1.556-1.161-2.959-2.759-5.148-2.837c-3.058-4.583-8.103-6.784-12.172-10.154
		c5.452-7.363,11.83-13.93,17.859-20.798c40.298-45.9,80.587-91.809,120.84-137.75c8.209-9.369,16.249-18.885,24.366-28.334
		c0.198-0.195,0.591-0.529,0.566-0.564c-0.382-0.535-0.714-0.256-1.018,0.121c-10.352,6.971-19.639,15.297-29.325,23.109
		c-45.957,37.061-91.828,74.227-137.813,111.251C103.766,181.504,93.722,190.483,82.589,198.077z"/>
	<path fill-rule="evenodd" clip-rule="evenodd" fill="#1766C0" d="M82.589,198.077c11.133-7.594,21.177-16.572,31.646-25.001
		c45.985-37.024,91.856-74.19,137.813-111.251c9.687-7.812,18.974-16.138,29.325-23.109c0.148,0.15,0.299,0.298,0.452,0.443
		c-8.118,9.448-16.158,18.965-24.367,28.333c-40.253,45.94-80.542,91.849-120.84,137.75c-6.029,6.868-12.407,13.435-17.859,20.797
		c-1.458,3.874-3.026,7.711-4.35,11.63c-3.875,11.47-8.693,22.619-11.73,34.375c-0.761,1.04-1.438,0.684-1.676-0.297
		C95.032,247.148,87.895,222.841,82.589,198.077z"/>
	<path fill-rule="evenodd" clip-rule="evenodd" fill="#2797F1" d="M102.68,272.043c3.037-11.756,7.855-22.905,11.73-34.375
		c1.324-3.919,2.892-7.756,4.35-11.63c4.069,3.371,9.114,5.572,12.172,10.155c-6.932,10.546-15.448,19.868-23.084,29.871
		C106.252,268.155,104.409,270.055,102.68,272.043z"/>
	<path fill-rule="evenodd" clip-rule="evenodd" fill="#1766C0" d="M281.374,38.715c0.304-0.377,0.636-0.656,1.018-0.121
		c0.024,0.035-0.368,0.369-0.566,0.564C281.673,39.013,281.522,38.865,281.374,38.715z"/>
</g>
</svg>
