<?xml version="1.0" encoding="utf-8"?>
<!-- Generator: Adobe Illustrator 16.0.0, SVG Export Plug-In . SVG Version: 6.00 Build 0)  -->
<!DOCTYPE svg PUBLIC "-//W3C//DTD SVG 1.1//EN" "http://www.w3.org/Graphics/SVG/1.1/DTD/svg11.dtd">
<svg version="1.1" id="Layer_1" xmlns="http://www.w3.org/2000/svg" xmlns:xlink="http://www.w3.org/1999/xlink" x="0px" y="0px"
	 width="93.838px" height="93.838px" viewBox="0 0 93.838 93.838" enable-background="new 0 0 93.838 93.838" xml:space="preserve">
<g>
	<g>
		<path fill="#EC1C24" d="M27.896,20.117c8.593-6.377,19.265-8.53,29.253-6.553c-0.941,1.017-1.844,2.066-2.674,3.146
			c-8.297-1.134-16.958,0.838-24.094,5.979C29.552,21.83,28.726,20.975,27.896,20.117 M24.088,28.58
			c-5.608,6.777-8.146,15.293-7.565,23.651c-1.132,0.758-2.239,1.584-3.316,2.459c-1.312-10.102,1.545-20.609,8.483-28.768
			L24.088,28.58z M86.706,45.59c1.311,11.269-2.557,22.988-11.475,31.336c-8.92,8.349-20.867,11.429-32.028,9.378
			c1.582-1,3.158-2.003,4.741-2.99c8.848,0.523,17.885-2.442,24.863-8.975c6.982-6.535,10.537-15.354,10.604-24.216
			C84.504,48.604,85.604,47.101,86.706,45.59"/>
		<path fill="#EC1C24" d="M24.194,15.12c10.034-7.446,22.493-9.958,34.149-7.653c-1.098,1.189-2.152,2.412-3.117,3.674
			c-9.689-1.322-19.801,0.98-28.128,6.98C26.127,17.121,25.16,16.12,24.194,15.12 M19.749,24.998
			c-6.544,7.914-9.513,17.856-8.833,27.612c-1.322,0.88-2.612,1.852-3.871,2.867c-1.533-11.791,1.805-24.06,9.902-33.58
			L19.749,24.998z M92.853,44.855c1.526,13.151-2.99,26.837-13.4,36.58c-10.41,9.743-24.36,13.342-37.384,10.949
			c1.843-1.165,3.683-2.334,5.535-3.486c10.326,0.608,20.875-2.855,29.024-10.48c8.151-7.629,12.306-17.925,12.377-28.268
			C90.276,48.378,91.567,46.617,92.853,44.855"/>
		<g enable-background="new    ">
			<path fill="#EC1C24" d="M26.505,77.604l0.863,0.922l-7.098,6.643l-9.887-10.564l6.964-6.518l0.863,0.923l-5.922,5.543
				l3.565,3.809l5.164-4.832l0.822,0.879l-5.164,4.832l3.773,4.032L26.505,77.604z"/>
			<path fill="#EC1C24" d="M19.401,66.166l12.455,5.732l-4.911-12.793l1.086-1.017l5.482,14.687l-0.907,0.85l-14.292-6.442
				L19.401,66.166z"/>
			<path fill="#EC1C24" d="M45.67,59.668l0.863,0.922l-7.097,6.643l-9.887-10.564l6.963-6.517l0.863,0.923l-5.922,5.542l3.565,3.809
				l5.163-4.832l0.822,0.879l-5.163,4.832l3.773,4.032L45.67,59.668z"/>
			<path fill="#EC1C24" d="M41.462,49.147l8.077,8.63l-1.042,0.975L38.61,48.188l0.803-0.752l15.224,2.25l-8.216-8.779l1.042-0.975
				l9.873,10.549l-0.907,0.849L41.462,49.147z"/>
			<path fill="#EC1C24" d="M58.46,31.341l-3.765,3.523l9.023,9.642l-1.041,0.975l-9.024-9.641l-3.765,3.523l-0.863-0.923
				l8.571-8.021L58.46,31.341z"/>
			<path fill="#EC1C24" d="M72.896,36.058c-0.734,0.687-1.548,1.166-2.441,1.434c-0.893,0.269-1.792,0.357-2.698,0.263
				c-0.904-0.091-1.777-0.348-2.619-0.771c-0.842-0.422-1.578-0.971-2.21-1.645c-0.659-0.705-1.164-1.497-1.515-2.379
				c-0.351-0.881-0.534-1.779-0.552-2.693c-0.018-0.914,0.139-1.8,0.47-2.66c0.331-0.858,0.85-1.617,1.554-2.276
				c0.734-0.687,1.552-1.16,2.455-1.418c0.901-0.258,1.806-0.336,2.711-0.235c0.904,0.102,1.776,0.362,2.612,0.779
				c0.838,0.418,1.566,0.958,2.188,1.622c0.659,0.705,1.164,1.497,1.516,2.379c0.35,0.881,0.533,1.774,0.553,2.678
				c0.018,0.905-0.139,1.787-0.47,2.645C74.117,34.64,73.6,35.398,72.896,36.058z M63.969,34.365
				c0.538,0.575,1.149,1.04,1.835,1.394c0.686,0.355,1.395,0.576,2.127,0.662c0.732,0.086,1.45,0.029,2.153-0.174
				c0.704-0.203,1.349-0.577,1.935-1.125c0.595-0.557,1.015-1.192,1.26-1.905c0.244-0.713,0.34-1.436,0.288-2.167
				c-0.054-0.732-0.233-1.447-0.543-2.145c-0.308-0.697-0.717-1.319-1.228-1.864c-0.538-0.575-1.153-1.038-1.844-1.388
				c-0.689-0.349-1.399-0.566-2.126-0.647c-0.729-0.083-1.444-0.021-2.147,0.181c-0.704,0.203-1.344,0.573-1.919,1.111
				c-0.596,0.557-1.017,1.19-1.267,1.898c-0.249,0.708-0.348,1.428-0.295,2.16c0.052,0.732,0.232,1.447,0.542,2.145
				C63.048,33.197,63.458,33.819,63.969,34.365z"/>
			<path fill="#EC1C24" d="M77.885,15.144c-0.613-0.058-1.266,0.04-1.956,0.296c-0.691,0.256-1.354,0.681-1.989,1.275
				c-0.933,0.873-1.447,1.685-1.544,2.436c-0.098,0.751,0.138,1.431,0.703,2.035c0.298,0.317,0.599,0.525,0.903,0.621
				c0.304,0.097,0.645,0.107,1.022,0.034c0.377-0.075,0.803-0.231,1.276-0.47c0.476-0.239,1.017-0.541,1.624-0.905
				c0.677-0.41,1.311-0.752,1.9-1.025c0.591-0.274,1.148-0.448,1.676-0.521c0.526-0.073,1.022-0.03,1.488,0.129
				c0.465,0.158,0.922,0.477,1.366,0.953c0.455,0.486,0.756,0.997,0.901,1.529c0.146,0.534,0.161,1.078,0.047,1.631
				c-0.114,0.554-0.352,1.107-0.711,1.656c-0.359,0.551-0.816,1.086-1.372,1.606c-1.637,1.532-3.528,2.344-5.675,2.437l-0.273-1.336
				c0.374,0.023,0.776-0.001,1.206-0.068c0.431-0.067,0.869-0.185,1.317-0.353c0.447-0.168,0.889-0.387,1.326-0.656
				c0.437-0.269,0.858-0.594,1.265-0.975c0.843-0.789,1.358-1.556,1.548-2.298c0.188-0.744-0.007-1.423-0.582-2.039
				c-0.307-0.327-0.631-0.54-0.974-0.638c-0.343-0.097-0.725-0.103-1.146-0.016c-0.421,0.088-0.886,0.257-1.394,0.509
				c-0.509,0.252-1.082,0.565-1.719,0.938c-0.676,0.392-1.287,0.712-1.835,0.963c-0.546,0.251-1.061,0.407-1.543,0.468
				c-0.482,0.061-0.933,0.013-1.351-0.146c-0.418-0.157-0.826-0.451-1.226-0.877c-0.455-0.485-0.769-1.004-0.943-1.559
				c-0.173-0.553-0.21-1.115-0.11-1.683c0.102-0.569,0.316-1.133,0.647-1.695c0.331-0.56,0.774-1.101,1.33-1.621
				c0.704-0.659,1.432-1.14,2.182-1.442c0.75-0.301,1.529-0.468,2.338-0.498L77.885,15.144z"/>
		</g>
	</g>
	<path fill="#EC1C24" d="M2.211,22.924c-0.493-0.209-0.557-0.671-0.557-0.671l0.331-18.94c0,0,0.02-1.365,0.404-1.75
		c0.464-0.464,1.697-0.459,1.697-0.459l19.192-0.373c0,0,0.709,0.174,0.834,0.447c0.14,0.303-0.286,1.005-0.286,1.005L3.294,22.717
		C3.294,22.717,2.756,23.156,2.211,22.924z"/>
</g>
</svg>
