<?xml version="1.0" encoding="utf-8"?>
<!-- Generator: Adobe Illustrator 16.0.0, SVG Export Plug-In . SVG Version: 6.00 Build 0)  -->
<!DOCTYPE svg PUBLIC "-//W3C//DTD SVG 1.1//EN" "http://www.w3.org/Graphics/SVG/1.1/DTD/svg11.dtd">
<svg version="1.1" id="Layer_1" xmlns="http://www.w3.org/2000/svg" xmlns:xlink="http://www.w3.org/1999/xlink" x="0px" y="0px"
	 width="93.838px" height="93.838px" viewBox="0 0 93.838 93.838" enable-background="new 0 0 93.838 93.838" xml:space="preserve">
<g>
	<g>
		<path fill-rule="evenodd" clip-rule="evenodd" fill="#EC1C24" d="M27.896,20.117c8.593-6.377,19.265-8.53,29.253-6.553
			c-0.941,1.017-1.843,2.066-2.673,3.146c-8.298-1.134-16.959,0.838-24.094,5.979C29.552,21.83,28.726,20.975,27.896,20.117
			 M24.088,28.58c-5.608,6.777-8.146,15.293-7.565,23.652c-1.132,0.757-2.239,1.584-3.316,2.458
			c-1.312-10.101,1.545-20.609,8.483-28.767L24.088,28.58z M86.706,45.59c1.311,11.268-2.556,22.988-11.475,31.336
			s-20.867,11.428-32.028,9.377c1.582-0.999,3.158-2.002,4.742-2.989c8.847,0.523,17.884-2.443,24.863-8.975
			c6.982-6.536,10.537-15.354,10.604-24.216C84.504,48.604,85.605,47.101,86.706,45.59"/>
		<path fill-rule="evenodd" clip-rule="evenodd" fill="#EC1C24" d="M24.194,15.12c10.034-7.446,22.493-9.958,34.149-7.653
			c-1.098,1.189-2.152,2.412-3.117,3.674c-9.69-1.322-19.801,0.98-28.129,6.98C26.127,17.121,25.16,16.12,24.194,15.12
			 M19.749,24.998c-6.544,7.914-9.513,17.856-8.833,27.612c-1.322,0.88-2.612,1.852-3.871,2.867
			c-1.533-11.79,1.805-24.059,9.902-33.579L19.749,24.998z M92.853,44.855c1.526,13.151-2.99,26.837-13.401,36.58
			c-10.41,9.743-24.36,13.342-37.384,10.949c1.843-1.165,3.683-2.334,5.535-3.486c10.326,0.608,20.875-2.856,29.024-10.481
			c8.151-7.629,12.305-17.925,12.377-28.267C90.276,48.378,91.568,46.617,92.853,44.855"/>
		
			<text transform="matrix(0.7301 -0.6833 0.6833 0.7301 23.6563 83.6543)" fill="#EC1C24" font-family="'MyriadPro-Semibold'" font-size="25.0168">eventos</text>
	</g>
	<polygon fill="#EC1C24" points="1.617,24.394 2.023,1.14 25.278,0.731 	"/>
</g>
</svg>
