<?xml version="1.0" encoding="utf-8"?>
<!-- Generator: Adobe Illustrator 16.0.0, SVG Export Plug-In . SVG Version: 6.00 Build 0)  -->
<!DOCTYPE svg PUBLIC "-//W3C//DTD SVG 1.1//EN" "http://www.w3.org/Graphics/SVG/1.1/DTD/svg11.dtd">
<svg version="1.1" id="Layer_1" xmlns="http://www.w3.org/2000/svg" xmlns:xlink="http://www.w3.org/1999/xlink" x="0px" y="0px"
	 width="60px" height="60px" viewBox="1.087 -3 60 60" enable-background="new 1.087 -3 60 60" xml:space="preserve">
<title>cocteles</title>
<desc>Created with Sketch.</desc>
<path fill="#FFFFFF" d="M50.569,2.916L10.711,3.251l0.202,48.174l39.857-0.334L50.569,2.916z M48.184,44.822
	c-0.353-1.332-0.861-2.607-1.555-3.816c-0.759-1.322-1.689-2.506-2.78-3.57c-1.523-1.486-3.268-2.648-5.199-3.533
	c-0.548-0.248-1.112-0.461-1.734-0.715c0.451-0.453,0.901-0.854,1.288-1.311c1.326-1.576,2.053-3.41,2.177-5.459
	c0.182-2.945-0.805-5.487-2.926-7.511c-2.296-2.191-5.081-3.062-8.244-2.67c-2.237,0.278-4.154,1.24-5.734,2.822
	c-1.541,1.545-2.485,3.421-2.72,5.614c-0.319,2.988,0.551,5.58,2.623,7.764c0.166,0.174,0.34,0.336,0.514,0.502
	c0.16,0.154,0.325,0.303,0.504,0.469c-0.629,0.33-1.226,0.625-1.807,0.945c-1.907,1.053-3.57,2.412-5.015,4.039
	c-1.207,1.363-2.197,2.867-2.911,4.539c-0.308,0.717-0.579,1.445-0.808,2.184l-0.86,0.008L12.827,5.352l35.739-0.303l0.17,39.768
	L48.184,44.822z"/>
</svg>
