<?xml version="1.0" encoding="utf-8"?>
<!-- Generator: Adobe Illustrator 16.0.0, SVG Export Plug-In . SVG Version: 6.00 Build 0)  -->
<!DOCTYPE svg PUBLIC "-//W3C//DTD SVG 1.1//EN" "http://www.w3.org/Graphics/SVG/1.1/DTD/svg11.dtd">
<svg version="1.1" id="Layer_1" xmlns="http://www.w3.org/2000/svg" xmlns:xlink="http://www.w3.org/1999/xlink" x="0px" y="0px"
	 width="184.091px" height="160.228px" viewBox="0 0 184.091 160.228" enable-background="new 0 0 184.091 160.228"
	 xml:space="preserve">
<g>
	<defs>
		<rect id="SVGID_1_" x="0.613" y="1.202" width="182.642" height="152.95"/>
	</defs>
	<clipPath id="SVGID_2_">
		<use xlink:href="#SVGID_1_"  overflow="visible"/>
	</clipPath>
	<path clip-path="url(#SVGID_2_)" fill-rule="evenodd" clip-rule="evenodd" fill="#FFFFFF" d="M65.835,44.873
		c13.107,1.499,24.526,8.55,31.85,18.744c-1.704,0.122-3.398,0.309-5.055,0.58c-6.515-8.01-15.97-13.531-26.724-14.915
		C65.885,47.81,65.86,46.343,65.835,44.873 M55.28,49.282c-10.758,1.377-20.217,6.902-26.734,14.915
		c-1.654-0.271-3.348-0.458-5.055-0.58c7.327-10.197,18.751-17.249,31.866-18.746L55.28,49.282z M97.31,117.338
		c-8.311,11.246-21.663,18.539-36.723,18.539c-15.058,0-28.407-7.293-36.725-18.539c2.265,0.434,4.529,0.859,6.786,1.307
		c7.523,7.92,18.153,12.863,29.939,12.863c11.787,0,22.416-4.943,29.942-12.863C92.787,118.197,95.048,117.771,97.31,117.338"/>
	<path clip-path="url(#SVGID_2_)" fill-rule="evenodd" clip-rule="evenodd" fill="#FFFFFF" d="M66.715,37.256
		c15.302,1.753,28.632,9.983,37.18,21.878c-1.988,0.146-3.968,0.358-5.897,0.68c-7.609-9.352-18.648-15.796-31.198-17.412
		C66.767,40.687,66.741,38.971,66.715,37.256 M54.392,42.403c-12.557,1.61-23.604,8.059-31.209,17.412
		c-1.931-0.322-3.912-0.535-5.9-0.68c8.55-11.901,21.89-20.134,37.198-21.881L54.392,42.403z M103.462,121.855
		c-9.706,13.125-25.297,21.635-42.875,21.635c-17.577,0-33.163-8.51-42.871-21.635c2.639,0.502,5.281,1,7.919,1.523
		c8.781,9.246,21.194,15.016,34.952,15.016c13.764,0,26.172-5.77,34.952-15.016C98.176,122.855,100.822,122.357,103.462,121.855"/>
	<path clip-path="url(#SVGID_2_)" fill-rule="evenodd" clip-rule="evenodd" fill="#FFFFFF" d="M47.191,73.873
		c0.204,4.397,4.449,9.023,3.303,13.114c-0.634,2.249-3.181,8.463-6.043,17.366c-3.103,9.646-2.582,22.892,5.443,14.411
		c16.04-16.942,25.628-9.094,25.628-16.357c0-6.674-4.3-8.903-4.3-13.898c0-5.245,2.658-7.657,3.297-10.572
		c1.91-8.681-4.331-0.678-7.828-0.63c-2.114,0.03-3.676-1.937-3.676-6.845c0-4.907-4.951-5.439-5.247-0.625
		C56.882,84.205,46.4,56.466,47.191,73.873"/>
	<polygon clip-path="url(#SVGID_2_)" fill-rule="evenodd" clip-rule="evenodd" fill="#FFFFFF" points="57.63,77.18 63.095,77.18 
		62.149,31.164 58.575,31.164 	"/>
	<path clip-path="url(#SVGID_2_)" fill-rule="evenodd" clip-rule="evenodd" fill="#FFFFFF" d="M65.821,26.451
		c-0.332-3.668-0.004-6.777,0.41-8.863c0.855-4.315-0.24-6.752-2.631-1.168l-5.736,13.407c-0.224,0.523-0.597,0.751,0.154,1.822
		c0.269,0.377,0.522,0.839,0.522,1.208l3.64-0.005c0-0.604,0.7-2.219,1.984-3.297C64.955,28.893,65.906,27.395,65.821,26.451"/>
	<polygon clip-path="url(#SVGID_2_)" fill-rule="evenodd" clip-rule="evenodd" fill="#FFFFFF" points="62.146,17.616 63.741,18.301 
		63.544,18.771 61.942,18.086 	"/>
	<path clip-path="url(#SVGID_2_)" fill-rule="evenodd" clip-rule="evenodd" fill="#FFFFFF" d="M61.911,18.63l-0.552-0.234
		c-0.439-0.395,0-1.399,0.578-1.352l0.552,0.235C62.727,17.588,62.301,18.592,61.911,18.63"/>
	
		<rect x="61.047" y="20.104" transform="matrix(-0.9207 -0.3903 0.3903 -0.9207 110.9728 63.273)" clip-path="url(#SVGID_2_)" fill-rule="evenodd" clip-rule="evenodd" fill="#FFFFFF" width="1.736" height="0.514"/>
	<path clip-path="url(#SVGID_2_)" fill-rule="evenodd" clip-rule="evenodd" fill="#FFFFFF" d="M60.986,20.8l-0.556-0.24
		c-0.436-0.388,0.004-1.394,0.578-1.35l0.559,0.237C61.805,19.753,61.372,20.757,60.986,20.8"/>
	
		<rect x="60.122" y="22.271" transform="matrix(-0.9189 -0.3946 0.3946 -0.9189 108.1378 67.2901)" clip-path="url(#SVGID_2_)" fill-rule="evenodd" clip-rule="evenodd" fill="#FFFFFF" width="1.732" height="0.51"/>
	<path clip-path="url(#SVGID_2_)" fill-rule="evenodd" clip-rule="evenodd" fill="#FFFFFF" d="M60.057,22.963l-0.555-0.236
		c-0.434-0.391,0-1.392,0.581-1.348l0.552,0.235C60.876,21.918,60.442,22.926,60.057,22.963"/>
	
		<rect x="59.191" y="24.437" transform="matrix(-0.9204 -0.391 0.391 -0.9204 105.6797 70.9075)" clip-path="url(#SVGID_2_)" fill-rule="evenodd" clip-rule="evenodd" fill="#FFFFFF" width="1.737" height="0.515"/>
	<path clip-path="url(#SVGID_2_)" fill-rule="evenodd" clip-rule="evenodd" fill="#FFFFFF" d="M59.129,25.134l-0.55-0.239
		c-0.439-0.389,0-1.396,0.574-1.351l0.554,0.238C59.945,24.086,59.516,25.095,59.129,25.134"/>
	<polygon clip-path="url(#SVGID_2_)" fill-rule="evenodd" clip-rule="evenodd" fill="#FFFFFF" points="58.436,26.286 60.03,26.967 
		59.833,27.441 58.232,26.755 	"/>
	<path clip-path="url(#SVGID_2_)" fill-rule="evenodd" clip-rule="evenodd" fill="#FFFFFF" d="M58.202,27.295l-0.552-0.233
		c-0.438-0.394,0-1.395,0.579-1.352l0.551,0.238C59.02,26.253,58.591,27.26,58.202,27.295"/>
	
		<rect x="57.339" y="28.773" transform="matrix(-0.9187 -0.3949 0.3949 -0.9187 100.2196 78.6796)" clip-path="url(#SVGID_2_)" fill-rule="evenodd" clip-rule="evenodd" fill="#FFFFFF" width="1.735" height="0.506"/>
	<path clip-path="url(#SVGID_2_)" fill-rule="evenodd" clip-rule="evenodd" fill="#FFFFFF" d="M57.278,29.465l-0.554-0.237
		c-0.438-0.392,0-1.396,0.577-1.351l0.553,0.236C58.091,28.42,57.662,29.427,57.278,29.465"/>
	<path clip-path="url(#SVGID_2_)" fill="#FFFFFF" d="M92.167,80.905c0.204,0.3,0.339,0.608,0.406,0.925
		c0.041,0.374-0.009,0.693-0.15,0.955c-0.142,0.263-0.37,0.519-0.688,0.768c-0.217,0.193-0.472,0.376-0.769,0.551
		c-0.296,0.175-0.608,0.334-0.938,0.476c-0.329,0.141-0.66,0.268-0.994,0.381c-0.333,0.112-0.649,0.205-0.95,0.28
		c-0.158,0.042-0.293,0.072-0.405,0.088c-0.112,0.017-0.221,0.021-0.325,0.012c-0.104-0.008-0.206-0.028-0.306-0.063
		c-0.101-0.032-0.217-0.087-0.351-0.161c-0.25-0.108-0.468-0.223-0.656-0.344c-0.188-0.121-0.406-0.277-0.656-0.469
		c-0.091-0.099-0.173-0.186-0.243-0.256c-0.07-0.07-0.127-0.146-0.169-0.225c-0.041-0.078-0.071-0.168-0.088-0.27
		c-0.017-0.099-0.017-0.228,0-0.387c0.025-0.516,0.071-1.102,0.139-1.755c0.066-0.655,0.14-1.334,0.218-2.038
		c0.079-0.704,0.15-1.412,0.212-2.125c0.063-0.712,0.102-1.389,0.12-2.031c0.316-0.175,0.683-0.337,1.1-0.488
		c0.417-0.15,0.852-0.279,1.307-0.387c0.454-0.108,0.913-0.187,1.381-0.237c0.466-0.05,0.91-0.063,1.33-0.038
		c0.421,0.025,0.807,0.094,1.156,0.207c0.35,0.112,0.638,0.277,0.862,0.493c0.293,0.292,0.536,0.604,0.732,0.938
		c0.195,0.333,0.338,0.72,0.432,1.162c0.042,0.243,0.037,0.475-0.008,0.7c-0.045,0.225-0.123,0.441-0.231,0.65
		c-0.108,0.208-0.24,0.402-0.399,0.581c-0.157,0.179-0.329,0.348-0.513,0.507c-0.2,0.149-0.404,0.301-0.612,0.455
		c-0.208,0.154-0.454,0.303-0.737,0.445C91.698,80.371,91.962,80.604,92.167,80.905 M87.393,82.398
		c-0.071,0.32-0.136,0.647-0.194,0.98c0.434-0.108,0.829-0.238,1.188-0.393s0.663-0.317,0.913-0.488
		c0.25-0.17,0.435-0.341,0.556-0.511c0.121-0.171,0.164-0.328,0.132-0.469c-0.042-0.083-0.126-0.158-0.251-0.225
		c-0.125-0.067-0.292-0.113-0.499-0.139c-0.209-0.025-0.451-0.019-0.726,0.02c-0.274,0.037-0.579,0.11-0.912,0.217
		C87.532,81.742,87.464,82.077,87.393,82.398 M89.504,78.692c0.422-0.242,0.775-0.485,1.063-0.731
		c0.287-0.246,0.497-0.479,0.631-0.7c0.133-0.221,0.184-0.397,0.149-0.531c-0.033-0.108-0.124-0.19-0.274-0.244
		c-0.15-0.054-0.344-0.075-0.581-0.063c-0.237,0.013-0.511,0.061-0.818,0.144c-0.31,0.083-0.643,0.209-1,0.375
		c-0.117,0.358-0.218,0.734-0.301,1.125c-0.083,0.393-0.183,0.809-0.301,1.25C88.607,79.142,89.084,78.934,89.504,78.692"/>
	<path clip-path="url(#SVGID_2_)" fill="#FFFFFF" d="M97.391,82.885c-0.62,0.088-1.167,0.194-1.643,0.319
		c-0.167,0.325-0.313,0.627-0.438,0.906c-0.123,0.281-0.245,0.553-0.362,0.819c-0.066,0.142-0.148,0.225-0.243,0.25
		c-0.097,0.024-0.24,0.004-0.432-0.063c-0.108-0.043-0.228-0.09-0.355-0.144c-0.129-0.055-0.261-0.114-0.395-0.181
		c-0.101-0.067-0.187-0.123-0.263-0.169c-0.075-0.046-0.133-0.102-0.175-0.169c-0.04-0.066-0.064-0.151-0.068-0.256
		c-0.004-0.104,0.019-0.243,0.068-0.418c0.2-0.575,0.461-1.25,0.781-2.025c0.32-0.775,0.667-1.575,1.038-2.4
		c0.37-0.825,0.749-1.64,1.138-2.443c0.388-0.804,0.754-1.519,1.104-2.144c0.127-0.225,0.289-0.408,0.489-0.549
		c0.2-0.142,0.495-0.196,0.887-0.163c0.343,0.017,0.647,0.044,0.914,0.082c0.266,0.037,0.511,0.082,0.73,0.132
		c0.221,0.049,0.425,0.104,0.612,0.161c0.188,0.058,0.377,0.113,0.569,0.164c0.258,0.092,0.423,0.212,0.492,0.361
		c0.072,0.15,0.095,0.346,0.069,0.587c-0.049,0.592-0.091,1.271-0.125,2.038c-0.032,0.767-0.057,1.566-0.073,2.4
		c-0.018,0.834-0.028,1.669-0.032,2.507c-0.005,0.836-0.002,1.614,0.007,2.331c0,0.15-0.033,0.254-0.095,0.312
		c-0.062,0.059-0.203,0.089-0.419,0.089c-0.217,0-0.416-0.007-0.6-0.02c-0.183-0.013-0.371-0.052-0.563-0.119
		c-0.198-0.059-0.34-0.133-0.419-0.225c-0.078-0.092-0.134-0.254-0.168-0.488c-0.033-0.242-0.063-0.506-0.089-0.793
		c-0.024-0.288-0.05-0.603-0.074-0.943C98.634,82.713,98.012,82.798,97.391,82.885 M98.003,80.73
		c0.379-0.042,0.76-0.076,1.145-0.101c-0.017-0.683-0.03-1.364-0.037-2.043c-0.009-0.678-0.004-1.352,0.012-2.019
		c-0.333,0.608-0.694,1.281-1.081,2.019c-0.387,0.738-0.776,1.502-1.169,2.295C97.248,80.822,97.625,80.771,98.003,80.73"/>
	<path clip-path="url(#SVGID_2_)" fill="#FFFFFF" d="M104.965,83.529c-0.096,0.467-0.188,0.924-0.282,1.375
		c-0.04,0.133-0.098,0.221-0.167,0.262c-0.07,0.043-0.203,0.043-0.394,0c-0.225-0.059-0.425-0.104-0.601-0.137
		c-0.174-0.034-0.341-0.092-0.5-0.175c-0.157-0.092-0.266-0.203-0.324-0.331c-0.059-0.129-0.079-0.303-0.063-0.519
		c0.016-0.175,0.04-0.429,0.068-0.763s0.064-0.709,0.106-1.131c0.041-0.42,0.089-0.873,0.144-1.356
		c0.056-0.482,0.112-0.966,0.176-1.449c0.062-0.484,0.129-0.953,0.206-1.406c0.075-0.454,0.153-0.864,0.237-1.225
		c0.083-0.362,0.175-0.663,0.274-0.9c0.101-0.237,0.204-0.386,0.313-0.444c0.517-0.234,1.057-0.463,1.619-0.688
		c0.563-0.224,1.118-0.385,1.663-0.481c0.543-0.096,1.062-0.104,1.55-0.025c0.486,0.08,0.913,0.298,1.281,0.656
		c0.291,0.316,0.555,0.656,0.794,1.018c0.237,0.364,0.422,0.807,0.556,1.332c0.107,0.558,0.065,1.017-0.126,1.375
		c-0.29,0.575-0.772,1.104-1.443,1.587c-0.671,0.483-1.472,0.934-2.407,1.35c0.193,0.218,0.403,0.446,0.632,0.688
		c0.229,0.242,0.464,0.484,0.707,0.726c0.241,0.242,0.481,0.475,0.719,0.7s0.459,0.42,0.668,0.587
		c0.167,0.143,0.243,0.255,0.226,0.338c-0.018,0.084-0.087,0.171-0.213,0.262c-0.149,0.116-0.275,0.186-0.381,0.207
		c-0.104,0.021-0.231,0.043-0.382,0.068c-0.183,0.05-0.384,0.065-0.605,0.044c-0.222-0.022-0.477-0.119-0.77-0.294
		c-0.19-0.133-0.412-0.3-0.661-0.5c-0.25-0.2-0.509-0.42-0.775-0.661c-0.268-0.242-0.533-0.495-0.8-0.756
		c-0.267-0.262-0.509-0.528-0.726-0.795C105.168,82.575,105.062,83.063,104.965,83.529 M106.233,78.355
		c-0.124,0.483-0.267,1-0.425,1.55c0.575-0.191,1.088-0.427,1.532-0.707c0.446-0.279,0.818-0.562,1.118-0.85
		c0.301-0.288,0.517-0.56,0.65-0.818c0.133-0.258,0.176-0.459,0.125-0.6c-0.101-0.233-0.396-0.349-0.888-0.349
		c-0.242,0-0.508,0.028-0.801,0.087c-0.291,0.058-0.6,0.166-0.923,0.325C106.489,77.417,106.359,77.872,106.233,78.355"/>
	<path clip-path="url(#SVGID_2_)" fill="#FFFFFF" d="M116.058,82.373c0.167-0.029,0.337-0.037,0.508-0.025
		c0.17,0.014,0.332,0.042,0.488,0.088c0.152,0.045,0.292,0.111,0.417,0.194c0.701,0.425,1.31,0.699,1.832,0.825
		c0.52,0.124,0.896,0.097,1.13-0.087c0.093-0.059,0.11-0.138,0.057-0.237c-0.054-0.101-0.158-0.211-0.313-0.332
		c-0.153-0.121-0.347-0.255-0.575-0.4c-0.229-0.146-0.471-0.298-0.724-0.457c-0.255-0.158-0.51-0.321-0.763-0.488
		c-0.255-0.167-0.486-0.337-0.695-0.512c-0.226-0.183-0.427-0.39-0.605-0.618c-0.179-0.23-0.318-0.479-0.419-0.75
		c-0.101-0.27-0.154-0.561-0.163-0.869c-0.008-0.308,0.043-0.629,0.151-0.962c0.075-0.283,0.202-0.588,0.381-0.913
		c0.18-0.325,0.388-0.64,0.631-0.949c0.242-0.309,0.51-0.596,0.8-0.863c0.292-0.267,0.588-0.491,0.887-0.675
		c0.109-0.074,0.243-0.147,0.401-0.219c0.157-0.07,0.336-0.123,0.531-0.155c0.195-0.034,0.407-0.044,0.638-0.032
		c0.229,0.013,0.468,0.057,0.719,0.131c0.374,0.134,0.749,0.295,1.126,0.487c0.374,0.192,0.685,0.409,0.936,0.65
		c0.166,0.15,0.293,0.303,0.382,0.456c0.087,0.154,0.149,0.307,0.186,0.457c0.04,0.149,0.061,0.293,0.064,0.431
		c0.004,0.137,0.007,0.269,0.007,0.394c-0.026,0.225-0.066,0.471-0.127,0.737c-0.058,0.267-0.124,0.536-0.198,0.807
		c-0.076,0.271-0.158,0.531-0.251,0.782c-0.091,0.249-0.183,0.466-0.274,0.649c-0.092,0.167-0.193,0.271-0.301,0.313
		c-0.107,0.042-0.258,0.024-0.45-0.051c-1.133-0.4-1.656-0.946-1.573-1.637c0.007-0.142,0.035-0.307,0.081-0.494
		c0.045-0.188,0.092-0.375,0.137-0.562c0.046-0.188,0.085-0.367,0.118-0.539c0.034-0.17,0.044-0.31,0.031-0.418
		c-0.012-0.108-0.053-0.17-0.117-0.188c-0.067-0.017-0.18,0.029-0.339,0.137c-0.134,0.076-0.282,0.188-0.449,0.338
		c-0.167,0.149-0.328,0.32-0.482,0.511c-0.152,0.193-0.291,0.4-0.411,0.626c-0.123,0.225-0.202,0.449-0.244,0.675
		c-0.042,0.225-0.038,0.445,0.013,0.663c0.05,0.217,0.17,0.408,0.363,0.575c0.241,0.225,0.51,0.437,0.805,0.637
		c0.297,0.2,0.593,0.394,0.887,0.582c0.298,0.188,0.575,0.373,0.838,0.556c0.265,0.183,0.479,0.374,0.65,0.568
		c0.171,0.197,0.279,0.4,0.326,0.614c0.045,0.212,0.001,0.439-0.133,0.681c-0.082,0.175-0.201,0.362-0.35,0.563
		c-0.15,0.2-0.35,0.386-0.6,0.556c-0.25,0.171-0.554,0.314-0.912,0.431c-0.358,0.116-0.789,0.18-1.287,0.187
		c-0.667,0.017-1.315-0.102-1.949-0.356c-0.635-0.253-1.289-0.694-1.963-1.318c-0.359-0.308-0.547-0.538-0.563-0.688
		c0-0.157,0.08-0.283,0.237-0.375C115.733,82.446,115.892,82.403,116.058,82.373"/>
	<path clip-path="url(#SVGID_2_)" fill="#FFFFFF" d="M131.588,75.936c0.146,0.288,0.253,0.615,0.318,0.981
		c0.094,0.609,0.113,1.269,0.063,1.982c-0.05,0.711-0.173,1.421-0.368,2.125c-0.198,0.705-0.462,1.369-0.801,1.994
		c-0.336,0.625-0.752,1.153-1.243,1.587c-0.333,0.258-0.684,0.432-1.051,0.519c-0.367,0.088-0.786,0.107-1.262,0.057
		c-0.316-0.034-0.642-0.085-0.976-0.156c-0.334-0.071-0.637-0.178-0.912-0.318c-0.225-0.118-0.446-0.267-0.662-0.451
		c-0.216-0.183-0.387-0.392-0.514-0.625c-0.198-0.382-0.348-0.817-0.449-1.301c-0.099-0.482-0.145-0.991-0.138-1.525
		c0.009-0.532,0.07-1.076,0.188-1.63c0.118-0.554,0.289-1.094,0.514-1.619c0.224-0.525,0.502-1.023,0.831-1.494
		c0.33-0.471,0.71-0.894,1.143-1.269c0.293-0.225,0.64-0.396,1.045-0.513c0.402-0.117,0.788-0.145,1.155-0.087
		c0.475,0.076,0.928,0.191,1.355,0.35c0.43,0.159,0.785,0.35,1.069,0.575C131.211,75.375,131.442,75.649,131.588,75.936
		 M128.295,76.586c-0.217,0.204-0.433,0.48-0.649,0.831c-0.217,0.35-0.42,0.74-0.607,1.169c-0.187,0.429-0.338,0.843-0.455,1.244
		c-0.117,0.392-0.199,0.798-0.251,1.219c-0.049,0.419-0.065,0.812-0.049,1.175c0.016,0.361,0.074,0.672,0.174,0.931
		c0.1,0.258,0.246,0.417,0.437,0.475c0.178,0.058,0.36,0.021,0.552-0.113c0.19-0.134,0.383-0.338,0.575-0.613
		c0.19-0.274,0.372-0.613,0.543-1.018c0.171-0.404,0.319-0.844,0.443-1.319c0.108-0.392,0.196-0.823,0.264-1.292
		c0.066-0.472,0.1-0.911,0.1-1.319c0-0.417-0.04-0.773-0.119-1.069c-0.078-0.295-0.201-0.469-0.368-0.519
		C128.707,76.309,128.511,76.381,128.295,76.586"/>
	<path clip-path="url(#SVGID_2_)" fill="#FFFFFF" d="M139.77,76.324c-0.384,0.037-0.78,0.077-1.188,0.119
		c-0.175,0.7-0.355,1.425-0.543,2.175c-0.188,0.75-0.368,1.494-0.544,2.231c-0.174,0.737-0.339,1.457-0.494,2.155
		c-0.154,0.701-0.288,1.354-0.406,1.963c-0.016,0.116-0.056,0.192-0.118,0.231c-0.063,0.038-0.147,0.054-0.255,0.049
		c-0.109-0.003-0.234-0.026-0.375-0.067c-0.143-0.042-0.302-0.088-0.477-0.139c-0.174-0.049-0.333-0.103-0.475-0.161
		c-0.141-0.059-0.261-0.129-0.355-0.213c-0.097-0.083-0.165-0.181-0.207-0.294c-0.042-0.112-0.046-0.248-0.013-0.406
		c0.025-0.4,0.074-0.893,0.15-1.475c0.075-0.583,0.164-1.199,0.269-1.849c0.104-0.651,0.218-1.307,0.344-1.97
		c0.125-0.662,0.25-1.277,0.375-1.844c-0.242,0.042-0.475,0.078-0.7,0.107c-0.224,0.028-0.412,0.064-0.563,0.105
		c-0.207,0.05-0.378,0.057-0.511,0.019c-0.133-0.037-0.283-0.145-0.45-0.319c-0.176-0.175-0.335-0.395-0.482-0.662
		c-0.146-0.267-0.264-0.492-0.355-0.675c-0.101-0.192-0.125-0.319-0.075-0.382c0.05-0.062,0.155-0.114,0.313-0.156
		c0.49-0.1,1.047-0.191,1.669-0.274c0.618-0.084,1.253-0.159,1.899-0.226c0.645-0.067,1.278-0.124,1.899-0.169
		c0.62-0.046,1.177-0.077,1.669-0.094c0.258,0,0.443,0.023,0.556,0.068c0.112,0.046,0.21,0.123,0.294,0.231
		c0.167,0.192,0.305,0.4,0.413,0.625s0.192,0.446,0.249,0.662c0.05,0.192,0.052,0.323,0.007,0.395
		c-0.046,0.07-0.197,0.114-0.457,0.131C140.507,76.251,140.152,76.286,139.77,76.324"/>
	<path clip-path="url(#SVGID_2_)" fill="#FFFFFF" d="M144.45,82.885c-0.62,0.088-1.17,0.194-1.645,0.319
		c-0.167,0.325-0.313,0.627-0.438,0.906c-0.124,0.281-0.246,0.553-0.361,0.819c-0.067,0.142-0.148,0.225-0.244,0.25
		c-0.097,0.024-0.239,0.004-0.432-0.063c-0.108-0.043-0.227-0.09-0.355-0.144c-0.13-0.055-0.26-0.114-0.395-0.181
		c-0.1-0.067-0.188-0.123-0.264-0.169c-0.073-0.046-0.132-0.102-0.174-0.169c-0.041-0.066-0.063-0.151-0.069-0.256
		c-0.003-0.104,0.02-0.243,0.069-0.418c0.2-0.575,0.461-1.25,0.781-2.025c0.321-0.775,0.666-1.575,1.038-2.4
		c0.371-0.825,0.751-1.64,1.137-2.443c0.388-0.804,0.756-1.519,1.107-2.144c0.124-0.225,0.288-0.408,0.486-0.549
		c0.2-0.142,0.497-0.196,0.888-0.163c0.341,0.017,0.646,0.044,0.912,0.082s0.51,0.082,0.731,0.132
		c0.222,0.049,0.426,0.104,0.613,0.161c0.187,0.058,0.375,0.113,0.568,0.164c0.259,0.092,0.423,0.212,0.493,0.361
		c0.07,0.15,0.094,0.346,0.069,0.587c-0.051,0.592-0.092,1.271-0.125,2.038c-0.033,0.767-0.06,1.566-0.075,2.4
		c-0.017,0.834-0.027,1.669-0.031,2.507c-0.005,0.836-0.002,1.614,0.006,2.331c0,0.15-0.03,0.254-0.093,0.312
		c-0.063,0.059-0.203,0.089-0.419,0.089c-0.218,0-0.418-0.007-0.6-0.02c-0.185-0.013-0.371-0.052-0.563-0.119
		c-0.2-0.059-0.34-0.133-0.421-0.225c-0.078-0.092-0.135-0.254-0.167-0.488c-0.034-0.242-0.064-0.506-0.089-0.793
		c-0.023-0.288-0.049-0.603-0.074-0.943C145.694,82.713,145.07,82.798,144.45,82.885 M145.062,80.73
		c0.381-0.042,0.761-0.076,1.145-0.101c-0.018-0.683-0.029-1.364-0.037-2.043c-0.01-0.678-0.005-1.352,0.013-2.019
		c-0.334,0.608-0.695,1.281-1.083,2.019c-0.387,0.738-0.776,1.502-1.167,2.295C144.306,80.822,144.683,80.771,145.062,80.73"/>
	<path clip-path="url(#SVGID_2_)" fill="#FFFFFF" d="M155.6,77.679c0.245-1.057,0.489-2.033,0.73-2.925
		c0.067-0.241,0.168-0.392,0.307-0.449c0.138-0.059,0.339-0.054,0.605,0.012c0.125,0.034,0.237,0.063,0.337,0.088
		c0.101,0.024,0.2,0.058,0.295,0.1c0.096,0.042,0.197,0.092,0.306,0.15c0.108,0.058,0.233,0.133,0.375,0.225
		c0.242,0.15,0.377,0.302,0.407,0.456c0.028,0.154,0.01,0.34-0.057,0.557c-0.192,0.616-0.393,1.317-0.6,2.1
		c-0.21,0.783-0.414,1.58-0.62,2.388c-0.204,0.808-0.399,1.597-0.587,2.368c-0.188,0.771-0.349,1.448-0.48,2.03
		c-0.051,0.317-0.301,0.425-0.751,0.325c-0.384-0.075-0.774-0.183-1.173-0.325c-0.369-0.141-0.628-0.392-0.776-0.749
		c-0.118-0.258-0.237-0.559-0.356-0.9c-0.121-0.342-0.244-0.71-0.369-1.107c-0.124-0.396-0.25-0.808-0.375-1.237
		c-0.125-0.43-0.242-0.861-0.35-1.294c-0.092,0.517-0.186,1.033-0.281,1.55c-0.096,0.517-0.188,1.011-0.274,1.481
		c-0.089,0.47-0.167,0.908-0.237,1.312c-0.071,0.404-0.128,0.756-0.17,1.056c-0.032,0.142-0.088,0.231-0.162,0.268
		c-0.075,0.038-0.221,0.027-0.438-0.031c-0.2-0.049-0.402-0.101-0.606-0.155c-0.204-0.055-0.402-0.14-0.593-0.257
		c-0.184-0.091-0.308-0.197-0.369-0.318c-0.063-0.12-0.085-0.29-0.069-0.506c0.018-0.226,0.045-0.546,0.082-0.963
		c0.036-0.417,0.088-0.89,0.15-1.419c0.062-0.528,0.132-1.094,0.212-1.699c0.078-0.604,0.164-1.206,0.257-1.806
		c0.092-0.6,0.185-1.179,0.28-1.738c0.097-0.558,0.189-1.054,0.281-1.487c0.058-0.25,0.164-0.406,0.313-0.469
		c0.149-0.062,0.354-0.06,0.611,0.006c0.31,0.092,0.608,0.184,0.899,0.275c0.293,0.093,0.597,0.213,0.914,0.362
		c0.258,0.109,0.441,0.244,0.55,0.407c0.107,0.163,0.187,0.402,0.237,0.719c0.041,0.242,0.096,0.549,0.162,0.924
		c0.066,0.375,0.142,0.781,0.225,1.219c0.084,0.438,0.171,0.887,0.263,1.35c0.093,0.462,0.183,0.906,0.275,1.332
		C155.147,79.813,155.354,78.738,155.6,77.679"/>
	<path clip-path="url(#SVGID_2_)" fill="#FFFFFF" d="M166.312,75.936c0.146,0.288,0.251,0.615,0.318,0.981
		c0.092,0.609,0.112,1.269,0.062,1.982c-0.048,0.711-0.172,1.421-0.367,2.125c-0.196,0.705-0.464,1.369-0.801,1.994
		c-0.337,0.625-0.753,1.153-1.245,1.587c-0.332,0.258-0.682,0.432-1.049,0.519c-0.367,0.088-0.788,0.107-1.263,0.057
		c-0.315-0.034-0.641-0.085-0.975-0.156c-0.333-0.071-0.638-0.178-0.912-0.318c-0.225-0.118-0.446-0.267-0.663-0.451
		c-0.217-0.183-0.388-0.392-0.512-0.625c-0.2-0.382-0.351-0.817-0.45-1.301c-0.101-0.482-0.146-0.991-0.138-1.525
		c0.008-0.532,0.071-1.076,0.188-1.63c0.115-0.554,0.286-1.094,0.513-1.619c0.224-0.525,0.501-1.023,0.831-1.494
		c0.328-0.471,0.709-0.894,1.143-1.269c0.292-0.225,0.64-0.396,1.044-0.513c0.403-0.117,0.79-0.145,1.155-0.087
		c0.476,0.076,0.927,0.191,1.356,0.35c0.429,0.159,0.785,0.35,1.069,0.575C165.934,75.375,166.164,75.649,166.312,75.936
		 M163.017,76.586c-0.216,0.204-0.434,0.48-0.65,0.831c-0.216,0.35-0.417,0.74-0.605,1.169c-0.188,0.429-0.34,0.843-0.457,1.244
		c-0.116,0.392-0.199,0.798-0.25,1.219c-0.049,0.419-0.066,0.812-0.049,1.175c0.018,0.361,0.075,0.672,0.175,0.931
		c0.101,0.258,0.245,0.417,0.438,0.475c0.176,0.058,0.357,0.021,0.551-0.113c0.189-0.134,0.383-0.338,0.574-0.613
		c0.191-0.274,0.374-0.613,0.544-1.018c0.171-0.404,0.319-0.844,0.444-1.319c0.107-0.392,0.194-0.823,0.262-1.292
		c0.066-0.472,0.1-0.911,0.1-1.319c0-0.417-0.039-0.773-0.118-1.069c-0.08-0.295-0.203-0.469-0.368-0.519
		C163.431,76.309,163.234,76.381,163.017,76.586"/>
	<path clip-path="url(#SVGID_2_)" fill="#FFFFFF" d="M112.427,102.156c0.398,0.168,0.772,0.401,1.126,0.702
		c0.673,0.565,1.17,1.147,1.497,1.748c0.327,0.601,0.513,1.202,0.556,1.802c0.045,0.6-0.039,1.191-0.251,1.774
		c-0.213,0.584-0.521,1.122-0.926,1.616c-0.955,1.112-2.024,1.872-3.206,2.278c-1.184,0.406-2.508,0.608-3.975,0.608
		c-1.112,0-2.277-0.186-3.495-0.556c-1.219-0.371-2.455-1.069-3.708-2.093c-0.39-0.301-0.677-0.561-0.861-0.78
		c-0.187-0.222-0.292-0.411-0.318-0.571c-0.025-0.158,0.006-0.295,0.093-0.41c0.089-0.113,0.212-0.217,0.371-0.305
		c0.547-0.335,1.162-0.473,1.84-0.41c0.68,0.062,1.285,0.217,1.815,0.463c0.76,0.37,1.443,0.632,2.054,0.781
		c0.608,0.151,1.164,0.212,1.667,0.186c0.505-0.026,0.958-0.141,1.365-0.344c0.406-0.203,0.785-0.48,1.139-0.834
		c0.336-0.354,0.582-0.707,0.741-1.06c0.159-0.353,0.252-0.689,0.279-1.007c0.025-0.317-0.01-0.6-0.106-0.847
		c-0.096-0.249-0.225-0.442-0.385-0.583c-0.354-0.282-0.728-0.441-1.126-0.478c-0.396-0.034-0.922-0.009-1.575,0.081
		c-0.83,0.105-1.638-0.054-2.424-0.478c-0.786-0.422-1.453-1.059-2-1.907c-0.494-0.741-0.389-1.236,0.317-1.484
		c1.749-0.547,3.219-1.108,4.411-1.682c1.191-0.573,2.141-1.112,2.848-1.615c0.706-0.504,1.174-0.962,1.402-1.377
		c0.23-0.416,0.239-0.755,0.028-1.021c-0.124-0.194-0.344-0.291-0.663-0.291c-0.211,0-0.44,0.04-0.688,0.119
		c-0.248,0.079-0.513,0.185-0.794,0.318c-0.284,0.133-0.561,0.273-0.835,0.423c-0.274,0.151-0.544,0.304-0.808,0.464
		c-0.354,0.264-0.768,0.437-1.245,0.516c-0.478,0.08-0.963,0.093-1.457,0.04c-0.495-0.053-0.972-0.167-1.431-0.344
		c-0.46-0.176-0.847-0.388-1.165-0.636c-0.636-0.565-0.725-1.139-0.265-1.722c0.282-0.371,0.645-0.759,1.086-1.166
		c0.44-0.405,0.926-0.785,1.456-1.139c0.53-0.353,1.101-0.67,1.709-0.954c0.608-0.282,1.231-0.494,1.867-0.635
		c0.478-0.089,0.989-0.155,1.536-0.199c0.548-0.045,1.121,0,1.722,0.132c0.601,0.132,1.209,0.385,1.828,0.755
		c0.618,0.37,1.235,0.918,1.854,1.642c0.619,0.777,1.045,1.536,1.284,2.278c0.239,0.742,0.332,1.449,0.279,2.12
		c-0.054,0.671-0.226,1.284-0.519,1.841c-0.29,0.556-0.647,1.02-1.071,1.39c-0.513,0.46-1.118,0.884-1.814,1.271
		c-0.698,0.389-1.479,0.761-2.345,1.113C111.601,101.834,112.03,101.988,112.427,102.156"/>
	<path clip-path="url(#SVGID_2_)" fill="#FFFFFF" d="M133.791,92.978c0.299,0.6,0.52,1.263,0.661,1.987
		c0.193,1.27,0.238,2.662,0.132,4.172c-0.105,1.51-0.362,3.006-0.768,4.49c-0.406,1.483-0.967,2.883-1.682,4.198
		c-0.716,1.314-1.586,2.415-2.609,3.299c-0.725,0.601-1.468,0.979-2.225,1.139c-0.76,0.158-1.643,0.194-2.65,0.104
		c-0.635-0.051-1.296-0.158-1.986-0.317c-0.687-0.158-1.351-0.388-1.987-0.688c-0.405-0.211-0.843-0.512-1.31-0.901
		c-0.468-0.388-0.844-0.829-1.125-1.324c-0.372-0.811-0.654-1.729-0.848-2.753c-0.194-1.024-0.284-2.098-0.265-3.219
		c0.016-1.121,0.137-2.265,0.357-3.431c0.221-1.166,0.555-2.3,1.006-3.403c0.449-1.104,1.016-2.146,1.694-3.126
		c0.68-0.981,1.488-1.85,2.424-2.609c0.637-0.494,1.382-0.851,2.238-1.072c0.856-0.221,1.656-0.27,2.397-0.146
		c1.008,0.159,1.956,0.393,2.849,0.702c0.891,0.308,1.628,0.693,2.21,1.152C132.996,91.795,133.49,92.378,133.791,92.978
		 M126.902,94.355c-0.477,0.389-0.953,0.932-1.43,1.629c-0.476,0.698-0.923,1.501-1.337,2.411c-0.417,0.91-0.747,1.823-0.994,2.741
		c-0.23,0.883-0.394,1.766-0.49,2.649s-0.114,1.692-0.053,2.424c0.063,0.732,0.203,1.355,0.423,1.867
		c0.222,0.512,0.525,0.831,0.914,0.953c0.371,0.105,0.765,0.026,1.181-0.238c0.414-0.265,0.819-0.685,1.218-1.259
		c0.396-0.573,0.771-1.274,1.126-2.104c0.353-0.831,0.643-1.75,0.873-2.755c0.213-0.848,0.386-1.735,0.518-2.662
		c0.132-0.928,0.206-1.833,0.224-2.715c0.036-0.901-0.018-1.66-0.158-2.278c-0.141-0.619-0.389-0.98-0.741-1.086
		C127.804,93.826,127.38,93.967,126.902,94.355"/>
	<path clip-path="url(#SVGID_2_)" fill="#FFFFFF" d="M147.764,102.156c0.396,0.168,0.771,0.401,1.125,0.702
		c0.671,0.565,1.169,1.147,1.496,1.748c0.327,0.601,0.512,1.202,0.557,1.802c0.044,0.6-0.04,1.191-0.252,1.774
		c-0.212,0.584-0.521,1.122-0.928,1.616c-0.954,1.112-2.021,1.872-3.205,2.278c-1.182,0.406-2.508,0.608-3.974,0.608
		c-1.112,0-2.277-0.186-3.495-0.556c-1.219-0.371-2.456-1.069-3.709-2.093c-0.388-0.301-0.675-0.561-0.861-0.78
		c-0.185-0.222-0.291-0.411-0.318-0.571c-0.025-0.158,0.006-0.295,0.095-0.41c0.088-0.113,0.211-0.217,0.369-0.305
		c0.549-0.335,1.162-0.473,1.842-0.41c0.68,0.062,1.285,0.217,1.814,0.463c0.759,0.37,1.443,0.632,2.054,0.781
		c0.607,0.151,1.165,0.212,1.668,0.186s0.958-0.141,1.364-0.344c0.405-0.203,0.785-0.48,1.14-0.834
		c0.335-0.354,0.582-0.707,0.741-1.06c0.158-0.353,0.253-0.689,0.277-1.007c0.027-0.317-0.009-0.6-0.104-0.847
		c-0.099-0.249-0.227-0.442-0.385-0.583c-0.353-0.282-0.728-0.441-1.126-0.478c-0.396-0.034-0.924-0.009-1.576,0.081
		c-0.831,0.105-1.638-0.054-2.424-0.478c-0.786-0.422-1.452-1.059-1.999-1.907c-0.495-0.741-0.391-1.236,0.317-1.484
		c1.749-0.547,3.218-1.108,4.41-1.682c1.192-0.573,2.142-1.112,2.847-1.615c0.708-0.504,1.175-0.962,1.404-1.377
		c0.229-0.416,0.239-0.755,0.027-1.021c-0.125-0.194-0.345-0.291-0.664-0.291c-0.21,0-0.439,0.04-0.688,0.119
		c-0.246,0.079-0.513,0.185-0.795,0.318c-0.282,0.133-0.56,0.273-0.833,0.423c-0.274,0.151-0.543,0.304-0.809,0.464
		c-0.354,0.264-0.769,0.437-1.244,0.516c-0.478,0.08-0.963,0.093-1.458,0.04c-0.494-0.053-0.972-0.167-1.43-0.344
		c-0.46-0.176-0.849-0.388-1.166-0.636c-0.636-0.565-0.724-1.139-0.266-1.722c0.283-0.371,0.646-0.759,1.088-1.166
		c0.439-0.405,0.927-0.785,1.456-1.139c0.529-0.353,1.099-0.67,1.708-0.954c0.609-0.282,1.231-0.494,1.867-0.635
		c0.478-0.089,0.989-0.155,1.537-0.199c0.548-0.045,1.121,0,1.722,0.132c0.601,0.132,1.209,0.385,1.826,0.755
		c0.619,0.37,1.237,0.918,1.855,1.642c0.618,0.777,1.047,1.536,1.284,2.278c0.239,0.742,0.331,1.449,0.278,2.12
		c-0.053,0.671-0.226,1.284-0.516,1.841c-0.292,0.556-0.648,1.02-1.074,1.39c-0.511,0.46-1.117,0.884-1.814,1.271
		c-0.696,0.389-1.478,0.761-2.343,1.113C146.937,101.834,147.366,101.988,147.764,102.156"/>
	<path clip-path="url(#SVGID_2_)" fill="#FFFFFF" d="M121.631,70.551c-0.387,0.173-1.007,0.326-1.781,0.326
		c-1.729,0-2.779-1.089-2.779-2.84c0-1.294,0.52-2.526,1.466-3.31c0.702-0.601,1.577-0.926,2.586-0.926
		c0.764,0,1.304,0.193,1.486,0.335l-0.273,0.682c-0.255-0.153-0.743-0.285-1.354-0.285c-0.714,0-1.436,0.276-1.966,0.774
		c-0.642,0.601-1.048,1.568-1.048,2.607c0,1.231,0.56,2.24,2.086,2.24c0.52,0,1.09-0.102,1.467-0.294L121.631,70.551z"/>
	<path clip-path="url(#SVGID_2_)" fill="#FFFFFF" d="M125.695,70.775c0-0.295,0.05-0.764,0.112-1.273h-0.021
		c-0.541,1.019-1.212,1.385-1.915,1.385c-0.865,0-1.415-0.692-1.415-1.63c0-1.71,1.262-3.522,3.411-3.522
		c0.469,0,0.987,0.081,1.323,0.194l-0.499,2.566c-0.163,0.855-0.233,1.73-0.214,2.281H125.695z M126.245,66.479
		c-0.123-0.031-0.305-0.072-0.591-0.072c-1.271,0-2.312,1.334-2.321,2.699c0,0.55,0.192,1.09,0.845,1.09
		c0.702,0,1.539-0.917,1.783-2.23L126.245,66.479z"/>
	<path clip-path="url(#SVGID_2_)" fill="#FFFFFF" d="M127.904,70.775l0.806-4.267h-0.652l0.123-0.662h0.661l0.052-0.255
		c0.111-0.693,0.356-1.323,0.804-1.721c0.307-0.284,0.742-0.438,1.17-0.438c0.337,0,0.562,0.062,0.673,0.133l-0.183,0.672
		c-0.133-0.061-0.306-0.092-0.499-0.092c-0.673,0-0.998,0.652-1.14,1.467l-0.041,0.234h1.099l-0.133,0.662h-1.089l-0.813,4.267
		H127.904z"/>
	<path clip-path="url(#SVGID_2_)" fill="#FFFFFF" d="M134.219,70.49c-0.367,0.214-0.968,0.387-1.629,0.387
		c-1.305,0-1.873-0.885-1.873-1.976c0-1.486,1.099-3.166,2.687-3.166c0.938,0,1.446,0.56,1.446,1.263
		c0,1.293-1.455,1.64-3.278,1.609c-0.041,0.213-0.01,0.672,0.103,0.937c0.192,0.438,0.589,0.662,1.099,0.662
		c0.58,0,1.019-0.183,1.323-0.345L134.219,70.49z M133.282,66.397c-0.804,0-1.406,0.784-1.608,1.558
		c1.323,0.01,2.362-0.163,2.362-0.927C134.036,66.621,133.729,66.397,133.282,66.397 M134.961,63.79l-1.354,1.457h-0.661
		l1.008-1.457H134.961z"/>
</g>
<text transform="matrix(1 0 0 1 80.3755 248.8501)"><tspan x="0" y="0" fill="#FFFFFF" font-family="'TwCenMT-Regular'" font-size="26.2546">Comidas, bebidas y Rock &amp; Roll.</tspan><tspan x="-20.96" y="31.506" fill="#FFFFFF" font-family="'TwCenMT-Regular'" font-size="26.2546">Cll 19 No 3-03  Bogotá - Colombia </tspan></text>
<line stroke="#FFFFFF" stroke-miterlimit="10" x1="81.394" y1="218.303" x2="422.394" y2="218.303"/>
</svg>
