<?xml version="1.0" encoding="utf-8"?>
<!-- Generator: Adobe Illustrator 16.0.0, SVG Export Plug-In . SVG Version: 6.00 Build 0)  -->
<!DOCTYPE svg PUBLIC "-//W3C//DTD SVG 1.1//EN" "http://www.w3.org/Graphics/SVG/1.1/DTD/svg11.dtd">
<svg version="1.1" id="Layer_1" xmlns="http://www.w3.org/2000/svg" xmlns:xlink="http://www.w3.org/1999/xlink" x="0px" y="0px"
	 width="60px" height="60px" viewBox="-11.5 -3 60 60" enable-background="new -11.5 -3 60 60" xml:space="preserve">
<title>cocteles</title>
<desc>Created with Sketch.</desc>
<g>
	<path fill="#F9F9F9" d="M-1.051,5.259v45.618h41.168V5.259H-1.051z M3.068,17.747c-0.133,0.11-0.282,0.167-0.448,0.167
		c-0.273,0-0.463-0.113-0.574-0.339l-1.063-2.202c-0.039-0.085-0.059-0.175-0.059-0.267c0-0.173,0.066-0.315,0.199-0.426
		c0.132-0.11,0.282-0.164,0.447-0.164c0.271,0,0.462,0.112,0.574,0.338l1.062,2.2c0.041,0.087,0.061,0.176,0.061,0.267
		C3.269,17.495,3.201,17.637,3.068,17.747z M7.25,42.313h0.355c0.171,0,0.317,0.059,0.443,0.18c0.125,0.119,0.188,0.263,0.188,0.426
		c0,0.169-0.062,0.312-0.188,0.43c-0.126,0.115-0.274,0.174-0.443,0.174H7.279l-1.87,1.257h7.642c0.177,0,0.325,0.06,0.448,0.177
		c0.124,0.118,0.185,0.262,0.185,0.427c0,0.17-0.062,0.312-0.188,0.431c-0.126,0.119-0.275,0.177-0.445,0.177H3.667v-1.563
		l2.269-1.492l-2.269-1.535v-1.54h9.383c0.177,0,0.325,0.063,0.448,0.185c0.124,0.122,0.185,0.268,0.185,0.437
		c0,0.162-0.062,0.306-0.188,0.427c-0.126,0.12-0.275,0.18-0.445,0.18H5.439L7.25,42.313z M13.686,37.037H3.667V31.54
		c0-0.167,0.064-0.313,0.192-0.438c0.128-0.122,0.281-0.185,0.455-0.185c0.171,0,0.32,0.063,0.445,0.185
		c0.127,0.125,0.191,0.271,0.191,0.438v4.285h3.083v-1.849c0-0.162,0.062-0.305,0.188-0.426c0.125-0.12,0.272-0.179,0.443-0.179
		c0.181,0,0.333,0.059,0.461,0.176c0.126,0.117,0.188,0.26,0.188,0.429v1.849h3.107v-4.3c0-0.164,0.061-0.307,0.183-0.425
		c0.124-0.122,0.272-0.183,0.448-0.183c0.177,0,0.325,0.063,0.448,0.185c0.124,0.122,0.186,0.268,0.186,0.438V37.037z
		 M13.686,23.634L5.907,26.9h7.146c0.177,0,0.325,0.061,0.448,0.177c0.124,0.119,0.186,0.263,0.186,0.43
		c0,0.169-0.062,0.309-0.186,0.429c-0.123,0.118-0.271,0.177-0.448,0.177H3.667v-1.601l7.763-3.274H4.316
		c-0.175,0-0.326-0.061-0.455-0.184c-0.129-0.124-0.193-0.268-0.193-0.438c0-0.168,0.064-0.312,0.188-0.43
		c0.125-0.118,0.278-0.176,0.459-0.176h9.37V23.634z M13.686,17.388c0,0.5-0.186,0.929-0.558,1.285
		c-0.372,0.354-0.819,0.531-1.341,0.531H4.316c-0.175,0-0.326-0.059-0.455-0.179c-0.129-0.12-0.193-0.263-0.193-0.426
		c0-0.162,0.064-0.305,0.188-0.425c0.125-0.12,0.274-0.179,0.445-0.179h7.484c0.167,0,0.311-0.061,0.434-0.181
		c0.123-0.12,0.183-0.263,0.183-0.426v-2.48c0-0.168-0.06-0.312-0.181-0.429c-0.12-0.118-0.266-0.177-0.437-0.177H4.316
		c-0.181,0-0.333-0.059-0.459-0.177c-0.125-0.117-0.188-0.261-0.188-0.429c0-0.168,0.064-0.312,0.188-0.43
		c0.125-0.117,0.278-0.176,0.459-0.176h7.455c0.522,0,0.972,0.179,1.349,0.537c0.377,0.359,0.565,0.786,0.565,1.281V17.388z"/>
</g>
</svg>
