<?xml version="1.0" encoding="utf-8"?>
<!-- Generator: Adobe Illustrator 16.0.0, SVG Export Plug-In . SVG Version: 6.00 Build 0)  -->
<!DOCTYPE svg PUBLIC "-//W3C//DTD SVG 1.1//EN" "http://www.w3.org/Graphics/SVG/1.1/DTD/svg11.dtd">
<svg version="1.1" xmlns="http://www.w3.org/2000/svg" xmlns:xlink="http://www.w3.org/1999/xlink" x="0px" y="0px" width="60px"
	 height="60px" viewBox="0 0 60 60" enable-background="new 0 0 60 60" xml:space="preserve">
<g id="Capa_1">
</g>
<g id="Capa_2">
	<g id="Logo_1_">
		
			<image overflow="visible" opacity="0.75" width="89" height="81" xlink:href="2AAE8E4A.png"  transform="matrix(1 0 0 1 -6.647 -3)">
		</image>
		<g>
			<g>
				<path fill="#FFFFFF" d="M20.961,17.835c5.072,0.577,9.491,3.295,12.325,7.224c-0.659,0.047-1.315,0.119-1.956,0.224
					c-2.523-3.088-6.181-5.215-10.342-5.749C20.979,18.966,20.97,18.4,20.961,17.835 M16.876,19.533
					c-4.163,0.531-7.823,2.661-10.345,5.749c-0.641-0.104-1.295-0.177-1.956-0.224c2.834-3.93,7.256-6.647,12.332-7.225
					L16.876,19.533z M33.141,45.765c-3.216,4.335-8.384,7.147-14.21,7.147c-5.828,0-10.994-2.813-14.213-7.147
					c0.876,0.168,1.753,0.331,2.626,0.504c2.912,3.054,7.026,4.957,11.587,4.957s8.675-1.903,11.585-4.957
					C31.391,46.096,32.266,45.933,33.141,45.765"/>
				<path fill="#FFFFFF" d="M21.302,14.899c5.92,0.675,11.079,3.847,14.387,8.432c-0.77,0.057-1.533,0.139-2.283,0.262
					c-2.944-3.604-7.215-6.088-12.071-6.71C21.322,16.22,21.311,15.56,21.302,14.899 M16.532,16.883
					c-4.859,0.62-9.133,3.104-12.077,6.71c-0.746-0.123-1.513-0.205-2.282-0.262c3.309-4.587,8.47-7.761,14.394-8.433L16.532,16.883
					z M35.521,47.506c-3.755,5.059-9.789,8.34-16.59,8.34c-6.802,0-12.834-3.281-16.591-8.34c1.022,0.194,2.043,0.386,3.064,0.588
					c3.398,3.565,8.202,5.787,13.526,5.787s10.126-2.222,13.524-5.787C33.476,47.892,34.501,47.7,35.521,47.506"/>
				<path fill="#FFFFFF" d="M13.747,29.012c0.079,1.695,1.721,3.479,1.276,5.057c-0.243,0.865-1.229,3.26-2.336,6.69
					c-1.201,3.72-1,8.825,2.105,5.557c6.207-6.529,9.918-3.505,9.918-6.306c0-2.571-1.664-3.431-1.664-5.355
					c0-2.021,1.029-2.952,1.276-4.076c0.738-3.346-1.677-0.26-3.031-0.243c-0.817,0.012-1.421-0.746-1.421-2.637
					c0-1.893-1.917-2.097-2.031-0.241C17.497,32.996,13.439,22.304,13.747,29.012"/>
				<polygon fill="#FFFFFF" points="17.786,30.288 19.901,30.288 19.535,12.55 18.152,12.55 				"/>
				<path fill="#FFFFFF" d="M20.956,10.734c-0.129-1.415-0.002-2.614,0.158-3.417c0.332-1.663-0.093-2.603-1.018-0.45l-2.219,5.168
					c-0.088,0.2-0.231,0.289,0.06,0.702c0.104,0.146,0.202,0.323,0.202,0.465l1.407-0.001c0-0.233,0.272-0.854,0.768-1.271
					C20.621,11.675,20.988,11.098,20.956,10.734"/>
				
					<rect x="19.467" y="7.452" transform="matrix(-0.9195 -0.393 0.393 -0.9195 35.0455 22.277)" fill="#FFFFFF" width="0.673" height="0.196"/>
				<path fill="#FFFFFF" d="M19.442,7.719l-0.214-0.091c-0.17-0.152,0-0.54,0.224-0.521l0.213,0.09
					C19.759,7.317,19.594,7.705,19.442,7.719"/>
				
					<rect x="19.109" y="8.287" transform="matrix(-0.9208 -0.3901 0.3901 -0.9208 34.0759 23.6944)" fill="#FFFFFF" width="0.671" height="0.198"/>
				<path fill="#FFFFFF" d="M19.085,8.556L18.87,8.463c-0.168-0.149,0.001-0.539,0.224-0.521l0.216,0.092
					C19.4,8.152,19.233,8.54,19.085,8.556"/>
				
					<rect x="18.75" y="9.122" transform="matrix(-0.92 -0.3919 0.3919 -0.92 33.0296 25.1841)" fill="#FFFFFF" width="0.67" height="0.198"/>
				<path fill="#FFFFFF" d="M18.726,9.39L18.51,9.297c-0.167-0.149,0-0.535,0.225-0.518l0.213,0.09
					C19.042,8.987,18.874,9.375,18.726,9.39"/>
				
					<rect x="18.39" y="9.957" transform="matrix(-0.9203 -0.3911 0.3911 -0.9203 32.0268 26.6361)" fill="#FFFFFF" width="0.672" height="0.198"/>
				<path fill="#FFFFFF" d="M18.366,10.226l-0.213-0.092c-0.17-0.15,0-0.537,0.222-0.521l0.216,0.092
					C18.681,9.822,18.515,10.212,18.366,10.226"/>
				
					<rect x="18.032" y="10.793" transform="matrix(-0.9198 -0.3923 0.3923 -0.9198 30.9892 28.1172)" fill="#FFFFFF" width="0.672" height="0.198"/>
				<path fill="#FFFFFF" d="M18.007,11.059l-0.214-0.089c-0.169-0.151,0-0.538,0.224-0.521l0.213,0.092
					C18.323,10.656,18.158,11.046,18.007,11.059"/>
				
					<rect x="17.674" y="11.629" transform="matrix(-0.9199 -0.3922 0.3922 -0.9199 29.9759 29.576)" fill="#FFFFFF" width="0.67" height="0.194"/>
				<path fill="#FFFFFF" d="M17.649,11.896l-0.213-0.091c-0.17-0.151,0-0.538,0.224-0.521l0.213,0.092
					C17.964,11.492,17.798,11.881,17.649,11.896"/>
				<path fill="#FFFFFF" d="M31.15,31.722c0.078,0.117,0.131,0.235,0.158,0.357c0.016,0.145-0.004,0.268-0.059,0.368
					s-0.145,0.2-0.266,0.297c-0.084,0.074-0.183,0.145-0.298,0.213c-0.114,0.067-0.234,0.127-0.362,0.182
					c-0.128,0.056-0.256,0.104-0.385,0.146c-0.129,0.045-0.251,0.081-0.368,0.109c-0.061,0.017-0.113,0.027-0.157,0.032
					c-0.043,0.008-0.085,0.01-0.125,0.006c-0.04-0.003-0.081-0.011-0.119-0.023c-0.04-0.015-0.084-0.035-0.135-0.063
					c-0.098-0.041-0.183-0.086-0.254-0.134c-0.074-0.046-0.157-0.105-0.254-0.179c-0.035-0.039-0.066-0.072-0.096-0.1
					c-0.027-0.028-0.048-0.057-0.064-0.087c-0.017-0.03-0.027-0.065-0.035-0.104c-0.006-0.04-0.006-0.088,0-0.149
					c0.01-0.199,0.028-0.425,0.053-0.678c0.025-0.252,0.054-0.513,0.085-0.784c0.03-0.273,0.058-0.546,0.083-0.819
					c0.024-0.275,0.04-0.535,0.047-0.783c0.122-0.066,0.264-0.13,0.425-0.188c0.161-0.057,0.329-0.107,0.505-0.148
					c0.176-0.042,0.354-0.072,0.535-0.093c0.181-0.019,0.353-0.023,0.515-0.013c0.163,0.009,0.313,0.036,0.448,0.078
					c0.135,0.044,0.246,0.106,0.334,0.19c0.113,0.112,0.207,0.232,0.283,0.362c0.074,0.128,0.131,0.277,0.166,0.448
					c0.016,0.093,0.016,0.182-0.004,0.27c-0.016,0.087-0.045,0.17-0.088,0.25c-0.041,0.08-0.094,0.154-0.154,0.224
					c-0.063,0.07-0.127,0.135-0.199,0.195c-0.078,0.058-0.156,0.117-0.236,0.177c-0.08,0.058-0.175,0.115-0.286,0.171
					C30.969,31.517,31.072,31.607,31.15,31.722 M29.302,32.297c-0.026,0.126-0.051,0.25-0.075,0.379
					c0.168-0.041,0.322-0.092,0.461-0.15c0.138-0.061,0.255-0.122,0.352-0.188c0.099-0.066,0.17-0.131,0.217-0.198
					c0.046-0.064,0.063-0.125,0.05-0.181c-0.017-0.031-0.049-0.061-0.097-0.086c-0.049-0.026-0.112-0.044-0.193-0.052
					c-0.081-0.012-0.175-0.008-0.28,0.005c-0.107,0.016-0.224,0.043-0.354,0.085C29.357,32.045,29.33,32.174,29.302,32.297
					 M30.12,30.871c0.163-0.095,0.301-0.188,0.411-0.284c0.111-0.095,0.193-0.184,0.245-0.268c0.052-0.086,0.071-0.155,0.057-0.206
					c-0.012-0.041-0.047-0.073-0.105-0.094c-0.058-0.021-0.133-0.028-0.226-0.023c-0.092,0.003-0.197,0.022-0.315,0.055
					s-0.248,0.08-0.387,0.143c-0.046,0.14-0.085,0.285-0.116,0.436c-0.033,0.151-0.071,0.312-0.118,0.482
					C29.772,31.043,29.958,30.963,30.12,30.871"/>
				<path fill="#FFFFFF" d="M33.172,32.487c-0.24,0.033-0.451,0.073-0.635,0.122c-0.066,0.126-0.121,0.241-0.17,0.35
					c-0.049,0.107-0.096,0.213-0.141,0.315c-0.025,0.055-0.057,0.085-0.094,0.097c-0.039,0.009-0.094,0-0.166-0.024
					c-0.043-0.017-0.09-0.035-0.139-0.057c-0.051-0.02-0.102-0.044-0.152-0.069c-0.039-0.024-0.072-0.048-0.102-0.064
					c-0.029-0.02-0.051-0.04-0.068-0.064c-0.016-0.027-0.025-0.06-0.025-0.1c-0.002-0.04,0.006-0.095,0.025-0.161
					c0.078-0.222,0.18-0.481,0.301-0.78c0.125-0.299,0.26-0.607,0.402-0.926c0.145-0.317,0.291-0.633,0.441-0.942
					c0.148-0.31,0.293-0.585,0.428-0.826c0.049-0.087,0.112-0.156,0.188-0.212c0.078-0.054,0.191-0.075,0.344-0.063
					c0.131,0.006,0.25,0.017,0.354,0.032c0.104,0.014,0.197,0.03,0.283,0.049c0.084,0.021,0.164,0.042,0.236,0.063
					s0.145,0.043,0.219,0.063c0.102,0.035,0.164,0.081,0.191,0.139s0.037,0.134,0.027,0.227c-0.02,0.228-0.035,0.491-0.047,0.785
					c-0.014,0.297-0.025,0.604-0.031,0.927c-0.006,0.319-0.01,0.643-0.012,0.965c0,0.323,0,0.622,0.002,0.899
					c0,0.058-0.012,0.098-0.035,0.119c-0.023,0.022-0.08,0.034-0.162,0.034c-0.084,0-0.162-0.002-0.232-0.008
					s-0.143-0.02-0.217-0.046c-0.078-0.022-0.133-0.051-0.164-0.086c-0.029-0.035-0.051-0.098-0.064-0.188
					c-0.012-0.094-0.025-0.195-0.033-0.308c-0.01-0.11-0.02-0.23-0.031-0.363C33.653,32.42,33.411,32.452,33.172,32.487
					 M33.409,31.655c0.146-0.017,0.295-0.029,0.441-0.039c-0.004-0.264-0.01-0.525-0.014-0.788
					c-0.004-0.262-0.002-0.521,0.004-0.777c-0.127,0.233-0.268,0.494-0.418,0.777c-0.148,0.286-0.3,0.58-0.452,0.885
					C33.117,31.691,33.263,31.672,33.409,31.655"/>
				<path fill="#FFFFFF" d="M36.103,32.735c-0.037,0.18-0.072,0.356-0.107,0.529c-0.018,0.05-0.039,0.084-0.066,0.102
					c-0.027,0.017-0.078,0.017-0.152,0c-0.088-0.022-0.164-0.041-0.232-0.055c-0.066-0.013-0.133-0.034-0.193-0.066
					c-0.061-0.035-0.104-0.078-0.125-0.128c-0.023-0.049-0.031-0.116-0.025-0.199c0.008-0.068,0.018-0.166,0.027-0.295
					c0.012-0.128,0.025-0.273,0.041-0.436s0.033-0.336,0.057-0.523c0.021-0.185,0.043-0.372,0.066-0.559
					c0.025-0.187,0.051-0.367,0.078-0.541c0.031-0.176,0.063-0.332,0.094-0.473c0.033-0.14,0.068-0.255,0.107-0.348
					c0.037-0.091,0.078-0.148,0.121-0.171c0.199-0.089,0.406-0.178,0.625-0.264c0.217-0.088,0.432-0.149,0.645-0.186
					c0.211-0.037,0.412-0.041,0.6-0.01c0.188,0.029,0.354,0.114,0.494,0.252c0.113,0.121,0.217,0.253,0.309,0.394
					c0.092,0.139,0.164,0.31,0.215,0.512c0.041,0.216,0.025,0.393-0.049,0.53c-0.111,0.222-0.299,0.427-0.557,0.612
					c-0.262,0.188-0.57,0.36-0.932,0.521c0.074,0.084,0.154,0.172,0.244,0.264c0.088,0.096,0.18,0.188,0.271,0.28
					c0.094,0.094,0.188,0.184,0.279,0.27c0.092,0.088,0.178,0.163,0.26,0.227c0.064,0.055,0.092,0.099,0.086,0.131
					c-0.008,0.031-0.033,0.066-0.082,0.102c-0.059,0.043-0.107,0.07-0.148,0.078c-0.039,0.008-0.09,0.019-0.146,0.026
					c-0.072,0.02-0.15,0.025-0.234,0.019c-0.086-0.009-0.186-0.046-0.299-0.114c-0.072-0.052-0.158-0.116-0.256-0.191
					c-0.096-0.078-0.197-0.164-0.299-0.257c-0.105-0.093-0.207-0.19-0.311-0.291c-0.104-0.102-0.197-0.203-0.279-0.306
					C36.181,32.367,36.14,32.555,36.103,32.735 M36.593,30.739c-0.047,0.187-0.102,0.386-0.162,0.598
					c0.223-0.072,0.418-0.164,0.592-0.271c0.172-0.107,0.316-0.218,0.434-0.328c0.115-0.111,0.199-0.216,0.25-0.315
					c0.053-0.1,0.068-0.177,0.049-0.23c-0.039-0.092-0.152-0.135-0.344-0.135c-0.094,0-0.195,0.01-0.309,0.033
					s-0.232,0.063-0.359,0.124C36.69,30.378,36.642,30.554,36.593,30.739"/>
				<path fill="#FFFFFF" d="M40.396,32.29c0.064-0.013,0.131-0.017,0.195-0.012c0.068,0.006,0.131,0.017,0.189,0.034
					s0.113,0.043,0.162,0.074c0.271,0.164,0.508,0.271,0.709,0.317c0.201,0.05,0.348,0.038,0.438-0.032
					c0.035-0.023,0.043-0.053,0.021-0.092c-0.02-0.038-0.061-0.081-0.121-0.128c-0.059-0.046-0.133-0.098-0.223-0.155
					c-0.088-0.055-0.182-0.112-0.281-0.174c-0.098-0.062-0.195-0.124-0.295-0.189c-0.098-0.063-0.188-0.13-0.268-0.196
					c-0.088-0.07-0.166-0.15-0.234-0.238c-0.07-0.09-0.123-0.187-0.162-0.289c-0.039-0.104-0.061-0.216-0.064-0.335
					c-0.002-0.12,0.018-0.243,0.061-0.372c0.027-0.109,0.078-0.227,0.146-0.352c0.07-0.125,0.15-0.247,0.244-0.366
					s0.197-0.229,0.311-0.332s0.227-0.189,0.344-0.26c0.041-0.03,0.092-0.058,0.154-0.084c0.061-0.028,0.129-0.049,0.203-0.061
					c0.078-0.013,0.16-0.017,0.248-0.013c0.09,0.005,0.182,0.021,0.279,0.051c0.143,0.053,0.289,0.115,0.434,0.188
					c0.146,0.075,0.268,0.157,0.363,0.253c0.064,0.058,0.113,0.114,0.148,0.175c0.033,0.06,0.057,0.117,0.072,0.175
					c0.016,0.059,0.021,0.114,0.025,0.166c0,0.054,0.002,0.104,0.002,0.15c-0.012,0.088-0.027,0.184-0.051,0.286
					c-0.021,0.103-0.047,0.207-0.076,0.312c-0.027,0.104-0.061,0.204-0.096,0.301c-0.035,0.095-0.07,0.18-0.107,0.251
					c-0.035,0.063-0.074,0.104-0.115,0.119c-0.043,0.018-0.102,0.01-0.174-0.019c-0.439-0.154-0.643-0.365-0.609-0.631
					c0.002-0.056,0.014-0.118,0.031-0.19c0.016-0.073,0.035-0.146,0.051-0.216c0.02-0.074,0.035-0.143,0.049-0.209
					c0.012-0.064,0.016-0.12,0.012-0.161c-0.006-0.04-0.021-0.065-0.047-0.072s-0.07,0.012-0.131,0.053
					c-0.051,0.029-0.109,0.073-0.174,0.131s-0.127,0.123-0.186,0.197c-0.061,0.074-0.113,0.154-0.16,0.24
					c-0.047,0.087-0.078,0.175-0.096,0.261c-0.016,0.087-0.014,0.172,0.006,0.255c0.02,0.084,0.066,0.157,0.139,0.222
					c0.096,0.087,0.199,0.168,0.314,0.245c0.113,0.077,0.229,0.152,0.344,0.226c0.113,0.072,0.223,0.144,0.322,0.215
					c0.102,0.07,0.186,0.143,0.252,0.219c0.066,0.074,0.109,0.153,0.127,0.235c0.016,0.082,0,0.17-0.053,0.263
					c-0.031,0.067-0.076,0.139-0.133,0.217c-0.059,0.078-0.137,0.15-0.234,0.215c-0.096,0.065-0.213,0.121-0.352,0.166
					c-0.141,0.045-0.305,0.069-0.498,0.072c-0.258,0.006-0.51-0.039-0.756-0.137c-0.244-0.099-0.498-0.269-0.76-0.51
					c-0.139-0.119-0.211-0.206-0.217-0.263c0-0.063,0.031-0.11,0.092-0.146C40.271,32.315,40.331,32.3,40.396,32.29"/>
				<path fill="#FFFFFF" d="M46.405,29.808c0.057,0.11,0.098,0.235,0.123,0.379c0.035,0.233,0.043,0.488,0.023,0.763
					s-0.066,0.548-0.141,0.819c-0.076,0.271-0.18,0.526-0.313,0.768c-0.127,0.241-0.289,0.445-0.48,0.613
					c-0.127,0.099-0.264,0.165-0.404,0.199c-0.143,0.034-0.307,0.041-0.488,0.022c-0.123-0.014-0.25-0.034-0.379-0.061
					c-0.129-0.027-0.246-0.068-0.354-0.123c-0.086-0.045-0.172-0.104-0.256-0.173c-0.084-0.073-0.15-0.152-0.197-0.242
					c-0.078-0.148-0.137-0.313-0.176-0.5c-0.037-0.187-0.055-0.383-0.051-0.589c0.002-0.204,0.025-0.414,0.07-0.628
					c0.047-0.215,0.113-0.422,0.199-0.625c0.088-0.201,0.193-0.395,0.322-0.575c0.127-0.181,0.275-0.345,0.441-0.489
					c0.113-0.086,0.248-0.152,0.404-0.196c0.156-0.046,0.305-0.057,0.449-0.035c0.182,0.028,0.357,0.074,0.523,0.135
					c0.166,0.063,0.303,0.135,0.414,0.222C46.259,29.591,46.349,29.697,46.405,29.808 M45.13,30.058
					c-0.082,0.078-0.166,0.187-0.252,0.32c-0.084,0.136-0.16,0.285-0.234,0.45c-0.072,0.166-0.131,0.326-0.176,0.48
					c-0.043,0.151-0.076,0.308-0.096,0.47c-0.02,0.161-0.025,0.313-0.02,0.453c0.006,0.139,0.029,0.259,0.068,0.357
					c0.039,0.101,0.094,0.161,0.168,0.184c0.068,0.023,0.139,0.008,0.213-0.043s0.148-0.13,0.225-0.237
					c0.072-0.105,0.143-0.236,0.209-0.391c0.064-0.156,0.123-0.325,0.17-0.509c0.043-0.151,0.078-0.317,0.104-0.499
					s0.039-0.351,0.039-0.509c0-0.159-0.018-0.297-0.047-0.411c-0.031-0.114-0.08-0.181-0.143-0.2
					C45.29,29.952,45.214,29.979,45.13,30.058"/>
				<path fill="#FFFFFF" d="M49.571,29.957c-0.148,0.015-0.301,0.029-0.461,0.046c-0.066,0.269-0.137,0.549-0.209,0.837
					c-0.072,0.29-0.143,0.577-0.211,0.861s-0.131,0.561-0.189,0.83c-0.061,0.27-0.113,0.523-0.158,0.757
					c-0.006,0.044-0.021,0.075-0.047,0.09c-0.023,0.014-0.059,0.021-0.098,0.019c-0.041-0.002-0.092-0.01-0.146-0.025
					c-0.055-0.018-0.115-0.034-0.182-0.054c-0.068-0.02-0.131-0.04-0.186-0.063s-0.1-0.051-0.137-0.082
					c-0.037-0.033-0.064-0.07-0.08-0.114c-0.018-0.042-0.018-0.095-0.006-0.157c0.01-0.153,0.029-0.342,0.059-0.567
					c0.029-0.225,0.064-0.462,0.104-0.713c0.043-0.25,0.084-0.504,0.133-0.759s0.098-0.492,0.146-0.711
					c-0.094,0.017-0.186,0.031-0.271,0.041c-0.088,0.012-0.16,0.024-0.219,0.041c-0.08,0.02-0.146,0.022-0.197,0.008
					c-0.053-0.015-0.111-0.055-0.174-0.124c-0.068-0.066-0.131-0.151-0.186-0.255c-0.059-0.102-0.104-0.188-0.139-0.259
					c-0.039-0.075-0.049-0.123-0.029-0.148c0.02-0.024,0.059-0.043,0.121-0.06c0.189-0.039,0.404-0.073,0.645-0.105
					c0.24-0.033,0.486-0.062,0.736-0.087c0.25-0.026,0.494-0.049,0.734-0.065c0.24-0.019,0.455-0.029,0.646-0.037
					c0.1,0,0.172,0.011,0.215,0.027c0.043,0.018,0.082,0.048,0.113,0.089c0.066,0.073,0.117,0.154,0.16,0.241
					c0.043,0.088,0.074,0.173,0.098,0.256c0.02,0.073,0.02,0.124,0.002,0.151s-0.076,0.044-0.178,0.051
					C49.856,29.929,49.72,29.942,49.571,29.957"/>
				<path fill="#FFFFFF" d="M51.384,32.487c-0.242,0.033-0.455,0.073-0.639,0.122c-0.063,0.126-0.119,0.241-0.168,0.35
					c-0.049,0.107-0.096,0.213-0.141,0.315c-0.025,0.055-0.057,0.085-0.096,0.097c-0.035,0.009-0.09,0-0.166-0.024
					c-0.041-0.017-0.086-0.035-0.137-0.057c-0.049-0.02-0.102-0.044-0.152-0.069c-0.039-0.024-0.072-0.048-0.102-0.064
					c-0.031-0.02-0.051-0.04-0.068-0.064c-0.016-0.027-0.025-0.06-0.025-0.1c-0.002-0.04,0.008-0.095,0.025-0.161
					c0.078-0.222,0.178-0.481,0.303-0.78c0.123-0.299,0.258-0.607,0.4-0.926c0.145-0.317,0.291-0.633,0.441-0.942
					s0.291-0.585,0.428-0.826c0.049-0.087,0.111-0.156,0.189-0.212c0.074-0.054,0.191-0.075,0.342-0.063
					c0.135,0.006,0.252,0.017,0.354,0.032c0.102,0.014,0.197,0.03,0.283,0.049c0.086,0.021,0.164,0.042,0.238,0.063
					c0.072,0.021,0.146,0.043,0.219,0.063c0.1,0.035,0.164,0.081,0.189,0.139c0.029,0.058,0.039,0.134,0.027,0.227
					c-0.018,0.228-0.035,0.491-0.047,0.785c-0.014,0.297-0.023,0.604-0.029,0.927c-0.006,0.319-0.012,0.643-0.012,0.965
					c0,0.323,0,0.622,0,0.899c0,0.058-0.012,0.098-0.033,0.119c-0.025,0.022-0.08,0.034-0.164,0.034s-0.16-0.002-0.23-0.008
					c-0.072-0.006-0.145-0.02-0.219-0.046c-0.076-0.022-0.131-0.051-0.162-0.086s-0.053-0.098-0.066-0.188
					c-0.012-0.094-0.021-0.195-0.033-0.308c-0.008-0.11-0.02-0.23-0.027-0.363C51.864,32.42,51.622,32.452,51.384,32.487
					 M51.62,31.655c0.146-0.017,0.295-0.029,0.441-0.039c-0.006-0.264-0.012-0.525-0.014-0.788
					c-0.004-0.262-0.002-0.521,0.004-0.777c-0.129,0.233-0.268,0.494-0.418,0.777c-0.15,0.286-0.301,0.58-0.453,0.885
					C51.327,31.691,51.472,31.672,51.62,31.655"/>
				<path fill="#FFFFFF" d="M55.698,30.479c0.094-0.407,0.188-0.783,0.281-1.127c0.027-0.093,0.066-0.151,0.119-0.174
					c0.055-0.022,0.131-0.021,0.234,0.005c0.049,0.013,0.092,0.023,0.131,0.033c0.037,0.01,0.076,0.023,0.113,0.039
					s0.076,0.034,0.119,0.058c0.041,0.021,0.09,0.052,0.145,0.087c0.094,0.058,0.146,0.115,0.158,0.176
					c0.01,0.059,0.002,0.13-0.023,0.214c-0.074,0.238-0.152,0.509-0.232,0.812c-0.08,0.3-0.158,0.607-0.238,0.919
					c-0.078,0.312-0.154,0.615-0.227,0.913c-0.074,0.296-0.135,0.558-0.188,0.782c-0.02,0.122-0.117,0.164-0.289,0.125
					c-0.15-0.029-0.301-0.07-0.457-0.125c-0.141-0.055-0.242-0.151-0.299-0.289c-0.045-0.1-0.092-0.215-0.139-0.348
					c-0.045-0.132-0.094-0.272-0.141-0.426c-0.051-0.152-0.098-0.312-0.145-0.477c-0.051-0.165-0.096-0.332-0.137-0.499
					c-0.035,0.199-0.072,0.398-0.109,0.599c-0.037,0.198-0.072,0.389-0.107,0.57c-0.031,0.18-0.063,0.35-0.09,0.506
					c-0.029,0.156-0.049,0.291-0.066,0.407c-0.012,0.054-0.033,0.089-0.063,0.104c-0.029,0.014-0.086,0.011-0.17-0.013
					c-0.076-0.02-0.156-0.039-0.234-0.061c-0.078-0.02-0.154-0.053-0.229-0.097c-0.072-0.037-0.119-0.078-0.143-0.124
					c-0.025-0.046-0.033-0.112-0.027-0.195c0.006-0.087,0.016-0.211,0.031-0.371c0.014-0.161,0.033-0.342,0.059-0.546
					c0.023-0.204,0.051-0.424,0.082-0.656s0.064-0.465,0.098-0.696c0.037-0.23,0.072-0.454,0.109-0.669
					c0.037-0.216,0.074-0.407,0.109-0.573c0.021-0.097,0.063-0.156,0.121-0.181s0.137-0.023,0.236,0.002
					c0.119,0.034,0.236,0.07,0.35,0.106c0.113,0.035,0.229,0.081,0.354,0.139c0.098,0.042,0.17,0.095,0.211,0.156
					c0.043,0.063,0.074,0.156,0.094,0.277c0.016,0.095,0.035,0.213,0.063,0.356c0.025,0.146,0.055,0.302,0.086,0.471
					s0.066,0.341,0.102,0.521c0.037,0.178,0.07,0.349,0.107,0.512C55.521,31.301,55.603,30.888,55.698,30.479"/>
				<path fill="#FFFFFF" d="M59.841,29.808c0.057,0.11,0.098,0.235,0.125,0.379c0.035,0.233,0.043,0.488,0.023,0.763
					c-0.018,0.274-0.066,0.548-0.143,0.819c-0.076,0.271-0.178,0.526-0.309,0.768s-0.291,0.445-0.482,0.613
					c-0.129,0.099-0.264,0.165-0.406,0.199s-0.305,0.041-0.488,0.022c-0.123-0.014-0.248-0.034-0.377-0.061
					c-0.129-0.027-0.246-0.068-0.354-0.123c-0.088-0.045-0.174-0.104-0.256-0.173c-0.084-0.073-0.15-0.152-0.199-0.242
					c-0.078-0.148-0.135-0.313-0.174-0.5s-0.057-0.383-0.053-0.589c0.004-0.204,0.027-0.414,0.072-0.628
					c0.047-0.215,0.111-0.422,0.197-0.625c0.088-0.201,0.195-0.395,0.324-0.575c0.127-0.181,0.273-0.345,0.441-0.489
					c0.115-0.086,0.248-0.152,0.404-0.196c0.156-0.046,0.307-0.057,0.447-0.035c0.184,0.028,0.357,0.074,0.523,0.135
					c0.168,0.063,0.305,0.135,0.414,0.222C59.696,29.591,59.786,29.697,59.841,29.808 M58.567,30.058
					c-0.084,0.078-0.168,0.187-0.252,0.32c-0.084,0.136-0.162,0.285-0.234,0.45c-0.072,0.166-0.131,0.326-0.176,0.48
					c-0.045,0.151-0.078,0.308-0.098,0.47c-0.02,0.161-0.025,0.313-0.02,0.453c0.008,0.139,0.029,0.259,0.068,0.357
					c0.039,0.101,0.096,0.161,0.17,0.184c0.068,0.023,0.139,0.008,0.213-0.043s0.148-0.13,0.221-0.237
					c0.076-0.105,0.145-0.236,0.211-0.391c0.066-0.156,0.125-0.325,0.174-0.509c0.039-0.151,0.074-0.317,0.1-0.499
					c0.027-0.182,0.039-0.351,0.039-0.509c0-0.159-0.016-0.297-0.047-0.411c-0.029-0.114-0.078-0.181-0.141-0.2
					C58.726,29.952,58.651,29.979,58.567,30.058"/>
				<path fill="#FFFFFF" d="M38.989,39.914c0.156,0.064,0.299,0.155,0.438,0.27c0.258,0.219,0.451,0.443,0.578,0.674
					c0.127,0.233,0.199,0.463,0.217,0.696c0.016,0.23-0.018,0.459-0.098,0.684c-0.082,0.225-0.203,0.432-0.359,0.623
					c-0.369,0.429-0.783,0.72-1.24,0.877c-0.457,0.156-0.971,0.235-1.537,0.235c-0.432,0-0.883-0.072-1.354-0.214
					c-0.471-0.144-0.949-0.413-1.436-0.809c-0.15-0.113-0.262-0.215-0.332-0.301c-0.072-0.085-0.113-0.158-0.123-0.219
					c-0.012-0.062,0-0.114,0.035-0.158c0.035-0.045,0.082-0.083,0.145-0.118c0.211-0.128,0.447-0.181,0.711-0.158
					c0.264,0.024,0.498,0.085,0.703,0.18c0.295,0.143,0.557,0.242,0.795,0.301c0.232,0.059,0.451,0.082,0.645,0.071
					c0.195-0.01,0.371-0.055,0.527-0.133c0.158-0.077,0.305-0.185,0.441-0.322c0.129-0.135,0.227-0.272,0.287-0.408
					s0.098-0.265,0.107-0.389c0.01-0.121-0.004-0.229-0.041-0.325c-0.037-0.095-0.086-0.169-0.148-0.225
					c-0.137-0.108-0.281-0.171-0.436-0.183c-0.154-0.015-0.357-0.004-0.609,0.029c-0.322,0.04-0.635-0.021-0.939-0.184
					c-0.303-0.163-0.563-0.408-0.773-0.735c-0.191-0.287-0.148-0.477,0.123-0.571c0.678-0.212,1.246-0.427,1.707-0.649
					c0.461-0.22,0.83-0.428,1.102-0.621c0.273-0.195,0.455-0.372,0.545-0.531c0.088-0.161,0.092-0.291,0.01-0.395
					c-0.049-0.075-0.133-0.111-0.258-0.111c-0.08,0-0.17,0.015-0.266,0.046c-0.096,0.03-0.199,0.072-0.307,0.123
					c-0.109,0.051-0.219,0.104-0.322,0.164c-0.107,0.057-0.211,0.117-0.314,0.177c-0.137,0.103-0.297,0.169-0.48,0.2
					c-0.186,0.031-0.373,0.034-0.564,0.015c-0.191-0.021-0.375-0.065-0.555-0.132c-0.178-0.068-0.328-0.15-0.449-0.245
					c-0.248-0.218-0.281-0.441-0.104-0.664c0.109-0.144,0.248-0.292,0.42-0.45c0.172-0.155,0.359-0.303,0.564-0.438
					c0.205-0.137,0.426-0.259,0.66-0.368c0.236-0.108,0.477-0.189,0.725-0.244c0.184-0.036,0.381-0.061,0.594-0.078
					c0.211-0.018,0.434,0,0.666,0.052s0.467,0.147,0.707,0.291c0.238,0.143,0.479,0.354,0.717,0.634
					c0.24,0.298,0.406,0.59,0.498,0.877c0.094,0.285,0.129,0.558,0.107,0.815c-0.02,0.261-0.086,0.496-0.199,0.711
					s-0.252,0.395-0.416,0.536c-0.199,0.178-0.432,0.34-0.701,0.49c-0.27,0.149-0.572,0.292-0.908,0.43
					C38.671,39.79,38.837,39.848,38.989,39.914"/>
				<path fill="#FFFFFF" d="M47.257,36.377c0.117,0.23,0.201,0.486,0.258,0.766c0.074,0.489,0.092,1.025,0.051,1.606
					c-0.041,0.582-0.141,1.159-0.299,1.732c-0.156,0.57-0.373,1.11-0.648,1.617c-0.277,0.506-0.615,0.932-1.012,1.271
					c-0.279,0.232-0.566,0.379-0.859,0.439c-0.295,0.063-0.637,0.075-1.025,0.042c-0.248-0.021-0.502-0.063-0.77-0.123
					c-0.268-0.063-0.523-0.15-0.77-0.265c-0.156-0.083-0.326-0.198-0.508-0.349c-0.18-0.149-0.324-0.319-0.434-0.51
					c-0.145-0.314-0.252-0.667-0.328-1.062c-0.076-0.396-0.107-0.808-0.104-1.24c0.008-0.433,0.053-0.874,0.139-1.323
					s0.215-0.886,0.389-1.313c0.176-0.424,0.393-0.825,0.658-1.203c0.262-0.378,0.574-0.713,0.936-1.006
					c0.246-0.189,0.535-0.327,0.867-0.413s0.641-0.104,0.928-0.058c0.391,0.063,0.758,0.152,1.104,0.271
					c0.344,0.119,0.629,0.268,0.855,0.444C46.95,35.92,47.142,36.145,47.257,36.377 M44.593,36.906
					c-0.186,0.15-0.369,0.36-0.553,0.63c-0.186,0.267-0.357,0.577-0.52,0.928c-0.16,0.352-0.289,0.704-0.383,1.057
					c-0.09,0.34-0.154,0.681-0.191,1.022c-0.037,0.34-0.045,0.65-0.02,0.934c0.023,0.282,0.08,0.521,0.164,0.72
					c0.086,0.197,0.203,0.319,0.354,0.367c0.143,0.041,0.295,0.011,0.457-0.093c0.16-0.102,0.316-0.263,0.471-0.484
					c0.154-0.221,0.299-0.492,0.436-0.812c0.135-0.32,0.248-0.675,0.338-1.063c0.082-0.326,0.148-0.667,0.199-1.025
					c0.053-0.357,0.08-0.706,0.088-1.048c0.012-0.346-0.008-0.638-0.063-0.877c-0.055-0.237-0.148-0.378-0.285-0.419
					C44.942,36.701,44.776,36.758,44.593,36.906"/>
				<path fill="#FFFFFF" d="M52.665,39.914c0.152,0.064,0.299,0.155,0.436,0.27c0.26,0.219,0.453,0.443,0.578,0.674
					c0.127,0.233,0.197,0.463,0.215,0.696c0.018,0.23-0.014,0.459-0.096,0.684s-0.201,0.432-0.359,0.623
					c-0.369,0.429-0.783,0.72-1.24,0.877c-0.459,0.156-0.971,0.235-1.537,0.235c-0.43,0-0.883-0.072-1.354-0.214
					c-0.471-0.144-0.951-0.413-1.436-0.809c-0.148-0.113-0.262-0.215-0.332-0.301c-0.072-0.085-0.113-0.158-0.123-0.219
					c-0.012-0.062,0.002-0.114,0.035-0.158c0.035-0.045,0.084-0.083,0.145-0.118c0.211-0.128,0.449-0.181,0.711-0.158
					c0.264,0.024,0.498,0.085,0.703,0.18c0.293,0.143,0.559,0.242,0.793,0.301c0.236,0.059,0.451,0.082,0.648,0.071
					c0.191-0.01,0.367-0.055,0.525-0.133c0.158-0.077,0.305-0.185,0.441-0.322c0.131-0.135,0.225-0.272,0.287-0.408
					s0.098-0.265,0.107-0.389c0.012-0.121-0.004-0.229-0.041-0.325c-0.039-0.095-0.086-0.169-0.148-0.225
					c-0.137-0.108-0.281-0.171-0.436-0.183c-0.152-0.015-0.355-0.004-0.609,0.029c-0.322,0.04-0.633-0.021-0.938-0.184
					s-0.564-0.408-0.775-0.735c-0.191-0.287-0.148-0.477,0.123-0.571c0.676-0.212,1.246-0.427,1.707-0.649
					c0.461-0.22,0.828-0.428,1.102-0.621c0.273-0.195,0.455-0.372,0.545-0.531c0.088-0.161,0.09-0.291,0.01-0.395
					c-0.049-0.075-0.135-0.111-0.258-0.111c-0.08,0-0.17,0.015-0.266,0.046c-0.096,0.03-0.199,0.072-0.309,0.123
					c-0.107,0.051-0.217,0.104-0.322,0.164c-0.105,0.057-0.211,0.117-0.311,0.177c-0.139,0.103-0.299,0.169-0.484,0.2
					c-0.184,0.031-0.371,0.034-0.564,0.015c-0.189-0.021-0.373-0.065-0.553-0.132c-0.178-0.068-0.328-0.15-0.449-0.245
					c-0.248-0.218-0.279-0.441-0.104-0.664c0.109-0.144,0.25-0.292,0.42-0.45c0.172-0.155,0.361-0.303,0.564-0.438
					c0.205-0.137,0.424-0.259,0.66-0.368c0.236-0.108,0.477-0.189,0.723-0.244c0.186-0.036,0.383-0.061,0.596-0.078
					c0.211-0.018,0.434,0,0.664,0.052c0.232,0.052,0.469,0.147,0.709,0.291c0.238,0.143,0.479,0.354,0.717,0.634
					c0.24,0.298,0.406,0.59,0.498,0.877c0.092,0.285,0.127,0.558,0.107,0.815c-0.02,0.261-0.088,0.496-0.199,0.711
					c-0.113,0.215-0.252,0.395-0.416,0.536c-0.197,0.178-0.434,0.34-0.703,0.49c-0.27,0.149-0.57,0.292-0.906,0.43
					C52.345,39.79,52.511,39.848,52.665,39.914"/>
				<path fill="#FFFFFF" d="M42.552,27.732c-0.148,0.066-0.389,0.125-0.689,0.125c-0.668,0-1.076-0.42-1.076-1.096
					c0-0.498,0.203-0.972,0.57-1.274c0.27-0.233,0.609-0.358,0.998-0.358c0.297,0,0.506,0.075,0.576,0.13l-0.107,0.264
					c-0.098-0.059-0.287-0.11-0.523-0.11c-0.275,0-0.555,0.106-0.76,0.298c-0.25,0.231-0.406,0.604-0.406,1.005
					c0,0.476,0.217,0.864,0.809,0.864c0.199,0,0.422-0.039,0.566-0.114L42.552,27.732z"/>
				<path fill="#FFFFFF" d="M44.124,27.818c0-0.114,0.021-0.295,0.043-0.491h-0.006c-0.209,0.395-0.471,0.533-0.74,0.533
					c-0.336,0-0.549-0.267-0.549-0.627c0-0.659,0.488-1.357,1.32-1.357c0.182,0,0.383,0.03,0.514,0.074l-0.193,0.988
					c-0.064,0.331-0.092,0.668-0.084,0.88H44.124z M44.337,26.162c-0.045-0.012-0.117-0.028-0.227-0.028
					c-0.494,0-0.895,0.516-0.9,1.04c0,0.213,0.074,0.42,0.328,0.42c0.271,0,0.594-0.353,0.689-0.859L44.337,26.162z"/>
				<path fill="#FFFFFF" d="M44.981,27.818l0.309-1.644h-0.25l0.047-0.256h0.256l0.02-0.098c0.043-0.268,0.137-0.511,0.313-0.664
					c0.117-0.11,0.287-0.168,0.451-0.168c0.131,0,0.217,0.022,0.26,0.05l-0.07,0.259c-0.051-0.023-0.117-0.035-0.193-0.035
					c-0.26,0-0.385,0.251-0.439,0.566l-0.018,0.09h0.426l-0.051,0.256h-0.422l-0.314,1.644H44.981z"/>
				<path fill="#FFFFFF" d="M47.425,27.708c-0.145,0.083-0.375,0.149-0.631,0.149c-0.506,0-0.727-0.341-0.727-0.762
					c0-0.572,0.426-1.22,1.041-1.22c0.361,0,0.559,0.215,0.559,0.486c0,0.499-0.563,0.632-1.268,0.619
					c-0.016,0.083-0.004,0.26,0.039,0.362c0.076,0.168,0.229,0.255,0.426,0.255c0.225,0,0.393-0.071,0.512-0.134L47.425,27.708z
					 M47.062,26.131c-0.313,0-0.545,0.302-0.623,0.601c0.512,0.003,0.914-0.063,0.914-0.357
					C47.353,26.218,47.233,26.131,47.062,26.131 M47.71,25.125l-0.521,0.562h-0.26l0.391-0.562H47.71z"/>
			</g>
		</g>
	</g>
</g>
</svg>
