<?xml version="1.0" encoding="utf-8"?>
<!-- Generator: Adobe Illustrator 16.0.0, SVG Export Plug-In . SVG Version: 6.00 Build 0)  -->
<!DOCTYPE svg PUBLIC "-//W3C//DTD SVG 1.1//EN" "http://www.w3.org/Graphics/SVG/1.1/DTD/svg11.dtd">
<svg version="1.1" id="Layer_1" xmlns="http://www.w3.org/2000/svg" xmlns:xlink="http://www.w3.org/1999/xlink" x="0px" y="0px"
	 width="66.234px" height="54px" viewBox="-17.885 0 66.234 54" enable-background="new -17.885 0 66.234 54" xml:space="preserve">
<title>cocteles</title>
<desc>Created with Sketch.</desc>
<g>
	<path fill="#F0F4F7" d="M24.5,7.892L8.707,8.37C8.374,8.38,8.194,8.629,8.219,8.945l2.528,31.554
		c0.051,0.615,0.596,1.103,1.214,1.084l11.303-0.343c0.617-0.019,1.132-0.539,1.146-1.156l0.611-31.648
		C25.028,8.118,24.832,7.881,24.5,7.892z"/>
	<path fill="#89C130" d="M9.293,11.818l2.093,26.095c0.023,0.308,0.296,0.551,0.605,0.543l11.053-0.335
		c0.31-0.01,0.567-0.271,0.572-0.578l0.508-26.174L9.293,11.818z"/>
	<path fill="#E5E5E5" d="M24.5,7.892l-8.068,0.244l0.105,3.463l7.587-0.23l-0.508,26.174c-0.005,0.308-0.263,0.568-0.572,0.578
		l-5.697,0.173l0.095,3.124l5.823-0.178c0.617-0.019,1.132-0.539,1.146-1.156l0.611-31.648C25.028,8.118,24.832,7.881,24.5,7.892z"
		/>
	<path fill="#81AF28" d="M16.537,11.6l0.81,26.694l5.697-0.173c0.31-0.01,0.567-0.271,0.572-0.578l0.508-26.174L16.537,11.6z"/>
</g>
<g>
	<path fill="#F0F4F7" d="M46.068,14.601l-15.25-4.137c-0.32-0.087-0.564,0.099-0.633,0.409l-6.762,30.923
		c-0.13,0.603,0.249,1.229,0.848,1.391l10.913,2.961c0.596,0.161,1.239-0.187,1.433-0.772l9.793-30.102
		C46.508,14.971,46.389,14.688,46.068,14.601z"/>
	<path fill="#EF3543" d="M30.377,13.934l-5.59,25.574c-0.067,0.302,0.124,0.612,0.422,0.695L35.88,43.1
		c0.3,0.08,0.623-0.096,0.717-0.388l8.101-24.894L30.377,13.934z"/>
	<path fill="#E5E5E5" d="M46.068,14.601l-7.79-2.114l-0.907,3.344l7.326,1.987l-8.101,24.894c-0.094,0.292-0.417,0.468-0.717,0.388
		l-5.5-1.494l-0.818,3.018l5.623,1.524c0.596,0.161,1.239-0.187,1.433-0.772l9.793-30.102
		C46.508,14.971,46.389,14.688,46.068,14.601z"/>
	<path fill="#F41C2C" d="M37.37,15.832l-6.99,25.774l5.5,1.494c0.3,0.08,0.623-0.096,0.717-0.388l8.101-24.894L37.37,15.832z"/>
</g>
<g>
	<g>
		<path fill="#F0F4F7" d="M3.633,10.682l-15.22,4.247c-0.32,0.089-0.435,0.375-0.334,0.675l10.011,30.03
			c0.197,0.585,0.843,0.929,1.439,0.761l10.892-3.038c0.595-0.167,0.97-0.795,0.836-1.397L4.271,11.085
			C4.201,10.775,3.953,10.593,3.633,10.682z"/>
		<path fill="#1F5CBF" d="M-10.19,18.137l8.281,24.833c0.097,0.294,0.42,0.464,0.718,0.382l10.651-2.971
			c0.298-0.084,0.486-0.399,0.417-0.699L4.101,14.148L-10.19,18.137z"/>
		<path fill="#E5E5E5" d="M3.633,10.682l-7.775,2.169l0.932,3.337l7.311-2.041l5.776,25.533c0.068,0.3-0.119,0.615-0.417,0.699
			l-5.49,1.531l0.84,3.011l5.611-1.566c0.595-0.167,0.97-0.795,0.836-1.397L4.271,11.085C4.201,10.775,3.953,10.593,3.633,10.682z"
			/>
		<path fill="#2056A5" d="M-3.21,16.189l7.18,25.723l5.49-1.531c0.298-0.084,0.486-0.399,0.417-0.699L4.101,14.148L-3.21,16.189z"/>
	</g>
	<polygon fill="#00BDD6" points="-16.885,12.76 -10.644,12.698 8.279,39.896 7.354,40.361 -11.224,13.788 -16.813,13.862 	"/>
</g>
</svg>
