<?xml version="1.0" encoding="utf-8"?>
<!-- Generator: Adobe Illustrator 16.0.0, SVG Export Plug-In . SVG Version: 6.00 Build 0)  -->
<!DOCTYPE svg PUBLIC "-//W3C//DTD SVG 1.1//EN" "http://www.w3.org/Graphics/SVG/1.1/DTD/svg11.dtd">
<svg version="1.1" id="Layer_1" xmlns="http://www.w3.org/2000/svg" xmlns:xlink="http://www.w3.org/1999/xlink" x="0px" y="0px"
	 width="36.854px" height="41.703px" viewBox="0 0 36.854 41.703" enable-background="new 0 0 36.854 41.703" xml:space="preserve">
<g>
	<g>
		<path fill="#F0F4F7" d="M35.351,0.742L1.098,0.65c-0.72-0.002-1.127,0.296-1.097,0.687l3.082,38.915
			c0.063,0.758,1.207,1.381,2.55,1.387l24.512,0.064c1.339,0.004,2.494-0.615,2.572-1.375l3.724-38.896
			C36.478,1.043,36.071,0.743,35.351,0.742z"/>
		<path fill="#28A9E2" d="M2.109,4.917l2.556,32.182c0.026,0.379,0.601,0.689,1.27,0.693l23.97,0.063
			c0.672,0.001,1.25-0.31,1.284-0.687l3.084-32.168L2.109,4.917z"/>
		<path fill="#E5E5E5" d="M35.351,0.742L17.854,0.695l-0.035,4.264l16.454,0.043l-3.085,32.167
			c-0.034,0.379-0.612,0.688-1.284,0.688l-12.354-0.031l-0.032,3.846l12.629,0.031c1.339,0.004,2.494-0.613,2.572-1.373
			l3.724-38.896C36.478,1.043,36.071,0.743,35.351,0.742z"/>
		<path opacity="0.05" fill="#231F20" d="M17.816,4.959l-0.268,32.865l12.354,0.032c0.672,0.001,1.25-0.31,1.284-0.687l3.084-32.168
			L17.816,4.959z"/>
	</g>
	<path fill-rule="evenodd" clip-rule="evenodd" fill="#FDFEFE" d="M6.64,29.624c2.633,0.227,4.996-0.424,7.098-1.994
		c-0.036-0.119-0.118-0.078-0.176-0.082c-2.032-0.211-3.438-1.266-4.249-3.133c-0.088-0.203-0.095-0.297,0.181-0.252
		c0.549,0.094,1.099,0.057,1.644-0.053c0.053-0.012,0.104-0.031,0.23-0.07c-0.651-0.18-1.205-0.395-1.697-0.738
		c-1.355-0.949-2.086-2.246-2.188-3.9c-0.013-0.205,0.02-0.258,0.231-0.158c0.728,0.344,1.388,0.5,1.889,0.475
		c-0.022-0.111-0.131-0.135-0.201-0.191c-1.838-1.455-2.412-4.014-1.363-6.096c0.145-0.285,0.145-0.285,0.349-0.051
		c2.382,2.744,5.374,4.361,8.976,4.848c0.239,0.033,0.482,0.041,0.722,0.072c0.209,0.029,0.281-0.004,0.242-0.252
		c-0.341-2.148,0.618-4.154,2.459-5.18c1.894-1.053,4.255-0.752,5.828,0.754c0.146,0.141,0.268,0.172,0.46,0.129
		c0.986-0.229,1.915-0.602,2.802-1.105c-0.04,0.648-0.675,1.502-1.984,2.668c0.939-0.102,1.786-0.369,2.643-0.715
		c0.006,0.104-0.055,0.154-0.095,0.211c-0.585,0.826-1.281,1.549-2.091,2.156c-0.16,0.121-0.209,0.244-0.203,0.436
		c0.173,5.461-2.99,10.813-7.944,13.086c-4.542,2.084-9.052,1.803-13.399-0.703C6.746,29.754,6.674,29.735,6.64,29.624z"/>
</g>
</svg>
