<?xml version="1.0" encoding="utf-8"?>
<!-- Generator: Adobe Illustrator 16.0.0, SVG Export Plug-In . SVG Version: 6.00 Build 0)  -->
<!DOCTYPE svg PUBLIC "-//W3C//DTD SVG 1.1//EN" "http://www.w3.org/Graphics/SVG/1.1/DTD/svg11.dtd">
<svg version="1.1" id="Layer_1" xmlns="http://www.w3.org/2000/svg" xmlns:xlink="http://www.w3.org/1999/xlink" x="0px" y="0px"
	 width="263.966px" height="166.667px" viewBox="0 0 263.966 166.667" enable-background="new 0 0 263.966 166.667"
	 xml:space="preserve">
<g>
	<path fill="#211915" d="M50.314,73.523c0.461,0.031,0.782,0.227,0.954,0.591c0.176,0.362,0.243,0.81,0.202,1.335
		c-0.043,0.529-0.171,1.097-0.384,1.701c-0.217,0.606-0.492,1.187-0.827,1.735c-0.335,0.55-0.697,1.037-1.09,1.459
		c-0.396,0.424-0.8,0.702-1.217,0.833c-0.415,0.13-1.139,0.201-2.17,0.214c-1.031,0.015-2.251,0.009-3.663-0.013
		c-1.409-0.022-2.944-0.052-4.602-0.089c-1.66-0.037-3.336-0.054-5.042-0.054c0.521,0.354,1.019,0.75,1.492,1.188
		c0.476,0.438,0.882,0.908,1.214,1.405c0.333,0.499,0.587,0.996,0.754,1.491c0.17,0.495,0.208,0.975,0.111,1.44
		c-0.089,0.531-0.505,1.433-1.242,2.7c-0.736,1.27-1.625,2.746-2.658,4.432c-1.035,1.685-2.14,3.506-3.314,5.464
		c-1.177,1.958-2.283,3.888-3.314,5.783c-1.035,1.9-1.908,3.679-2.613,5.338c-0.71,1.661-1.084,3.035-1.136,4.119
		c-0.044,0.658-0.279,1.119-0.702,1.381c-0.423,0.264-0.865,0.336-1.334,0.226c-0.467-0.112-0.884-0.401-1.245-0.862
		c-0.366-0.467-0.524-1.074-0.486-1.831c0.11-1.977,0.391-4.061,0.846-6.258c0.454-2.197,0.988-4.394,1.607-6.586
		c0.617-2.194,1.288-4.327,2.014-6.397c0.726-2.072,1.416-3.968,2.068-5.689c0.656-1.722,1.244-3.217,1.771-4.485
		c0.522-1.269,0.879-2.188,1.064-2.76c-1.598,0.09-3.061,0.234-4.39,0.435c-1.329,0.201-2.401,0.514-3.219,0.937
		c-0.569,0.274-1.067,0.296-1.497,0.065c-0.425-0.229-0.714-0.566-0.863-1.014c-0.15-0.448-0.122-0.933,0.085-1.456
		c0.207-0.524,0.638-0.943,1.302-1.257c1.737-0.854,3.654-1.59,5.754-2.212c2.101-0.618,4.239-1.145,6.416-1.574
		c2.181-0.429,4.324-0.767,6.437-1.011c2.109-0.242,4.037-0.425,5.783-0.543c1.74-0.117,3.246-0.184,4.505-0.199
		C48.944,73.49,49.822,73.496,50.314,73.523"/>
	<path fill="#211915" d="M50.273,103.015c-1.556,0.679-2.907,1.075-4.06,1.197c-1.156,0.123-2.162,0.137-3.021,0.037
		c-0.227,0.901-0.375,1.756-0.443,2.563c-0.067,0.811-0.006,1.511,0.186,2.101c0.195,0.595,0.516,1.042,0.966,1.353
		c0.45,0.309,1.064,0.434,1.847,0.373c1.727-0.131,3.252-0.551,4.571-1.261c1.323-0.706,2.455-1.538,3.397-2.497
		c0.94-0.959,1.703-1.941,2.279-2.952c0.576-1.01,0.985-1.886,1.223-2.625c0.271-0.742,0.615-1.259,1.035-1.555
		c0.421-0.294,0.813-0.391,1.184-0.287c0.367,0.104,0.635,0.394,0.805,0.872c0.166,0.479,0.119,1.137-0.144,1.976
		c-0.23,0.836-0.7,1.872-1.407,3.106c-0.708,1.234-1.64,2.437-2.795,3.608c-1.155,1.169-2.544,2.192-4.162,3.069
		c-1.623,0.88-3.472,1.399-5.56,1.56c-2.443,0.188-4.41-0.274-5.906-1.389c-1.492-1.114-2.523-2.583-3.088-4.406
		c-0.568-1.825-0.688-3.821-0.364-5.994c0.324-2.172,1.067-4.234,2.227-6.191c1.16-1.956,2.727-3.625,4.703-5.006
		c1.975-1.381,4.331-2.176,7.065-2.387c1.791-0.14,3.183,0.058,4.174,0.588c0.991,0.529,1.661,1.257,2.012,2.179
		c0.348,0.925,0.42,1.976,0.217,3.154c-0.204,1.18-0.63,2.335-1.281,3.465c-0.65,1.132-1.462,2.178-2.439,3.137
		C52.519,101.762,51.444,102.5,50.273,103.015 M48.999,100.51c1.199-0.583,2.203-1.389,3.008-2.42
		c0.807-1.027,1.358-2.045,1.657-3.052c0.299-1.006,0.339-1.869,0.122-2.589c-0.221-0.72-0.737-1.05-1.551-0.985
		c-0.651,0.048-1.347,0.372-2.089,0.97c-0.741,0.598-1.475,1.367-2.206,2.308c-0.73,0.941-1.421,1.994-2.067,3.157
		c-0.646,1.164-1.22,2.354-1.715,3.571c0.658,0.048,1.398,0.008,2.227-0.119C47.21,101.219,48.08,100.94,48.999,100.51"/>
	<path fill="#211915" d="M60.773,89.38c0.12-0.566,0.432-0.975,0.938-1.226c0.505-0.251,1.085-0.361,1.743-0.333
		c0.658,0.032,1.349,0.176,2.073,0.433c0.723,0.256,1.375,0.599,1.948,1.029c0.574,0.432,1.018,0.913,1.339,1.446
		c0.321,0.53,0.42,1.096,0.303,1.695c-0.07,0.366-0.127,0.798-0.172,1.292c-0.043,0.494-0.074,1.054-0.091,1.678
		c1.189-1.564,2.276-2.977,3.263-4.231c0.982-1.256,1.778-2.217,2.383-2.887c0.75-0.877,1.424-1.379,2.021-1.508
		c0.597-0.126,1.037-0.022,1.326,0.316c0.289,0.338,0.384,0.831,0.285,1.478c-0.096,0.645-0.432,1.285-1.007,1.92
		c-0.269,0.316-0.684,0.807-1.237,1.471c-0.555,0.666-1.192,1.451-1.906,2.358c-0.718,0.909-1.502,1.902-2.352,2.982
		c-0.853,1.081-1.725,2.199-2.617,3.347c0.076,1.008,0.18,1.976,0.32,2.9c0.136,0.922,0.303,1.745,0.508,2.467
		c0.202,0.724,0.435,1.294,0.697,1.716c0.262,0.422,0.557,0.621,0.882,0.595c0.749-0.057,1.451-0.398,2.109-1.022
		c0.655-0.622,1.245-1.372,1.768-2.246c0.522-0.878,0.992-1.799,1.408-2.763c0.418-0.968,0.746-1.821,0.983-2.56
		c0.272-0.74,0.614-1.26,1.035-1.553c0.421-0.294,0.814-0.39,1.183-0.289c0.368,0.104,0.635,0.395,0.804,0.872
		c0.169,0.479,0.12,1.139-0.141,1.978c-0.232,0.838-0.611,1.867-1.141,3.085c-0.528,1.22-1.199,2.404-2.012,3.548
		c-0.813,1.144-1.763,2.144-2.845,2.994c-1.08,0.854-2.305,1.334-3.67,1.437c-1.437,0.111-2.637-0.401-3.608-1.541
		c-0.973-1.136-1.772-2.598-2.403-4.385c-1.135,1.432-2.158,2.714-3.072,3.848c-0.91,1.139-1.56,1.929-1.953,2.387
		c-0.601,0.701-1.144,1.096-1.628,1.182c-0.484,0.089-0.838-0.025-1.057-0.334c-0.223-0.311-0.29-0.759-0.202-1.337
		c0.086-0.58,0.398-1.202,0.938-1.867c0.45-0.525,1.203-1.501,2.256-2.925c1.054-1.425,2.266-3.025,3.635-4.802
		c-0.185-0.705-0.348-1.425-0.483-2.15c-0.138-0.727-0.267-1.43-0.385-2.107c-0.033,0.821-0.121,1.606-0.262,2.354
		c-0.136,0.745-0.362,1.46-0.67,2.138c-0.255,0.512-0.583,0.841-0.98,0.986c-0.397,0.147-0.769,0.143-1.108-0.014
		c-0.338-0.153-0.573-0.439-0.704-0.854c-0.129-0.413-0.055-0.93,0.226-1.542c0.398-0.816,0.746-1.694,1.052-2.636
		c0.304-0.939,0.535-1.899,0.689-2.879c0.152-0.978,0.204-1.932,0.148-2.861s-0.231-1.793-0.521-2.589l0.051-0.004
		C60.749,89.71,60.722,89.549,60.773,89.38"/>
	<path fill="#211915" d="M180.322,62.74c0.183-0.57,0.501-0.914,0.951-1.031c0.453-0.114,0.954-0.063,1.511,0.154
		c0.561,0.22,1.117,0.563,1.678,1.025c0.56,0.466,1.06,1,1.501,1.607c0.438,0.604,0.772,1.232,1.003,1.887s0.287,1.281,0.17,1.88
		c-0.052,0.201-0.104,0.353-0.16,0.454l-3.753,24.077l17.547-30.052l0.041-0.102c0.248-0.577,0.643-0.917,1.176-1.024
		c0.531-0.106,1.107-0.044,1.731,0.187s1.266,0.582,1.926,1.057c0.659,0.473,1.234,1.019,1.723,1.637
		c0.488,0.617,0.875,1.259,1.157,1.925c0.279,0.667,0.36,1.284,0.239,1.85c-0.094,0.467-0.418,1.245-0.976,2.337
		c-0.557,1.092-1.249,2.381-2.084,3.869c-0.836,1.491-1.753,3.118-2.748,4.881c-0.996,1.765-1.964,3.536-2.909,5.311
		c-0.943,1.777-1.813,3.499-2.602,5.165c-0.788,1.666-1.413,3.155-1.867,4.469c-0.457,1.313-0.678,2.371-0.667,3.172
		c0.014,0.803,0.366,1.242,1.063,1.319c0.724,0.075,1.476-0.194,2.248-0.812c0.771-0.617,1.491-1.384,2.156-2.304
		c0.664-0.92,1.254-1.897,1.765-2.937c0.509-1.04,0.899-1.929,1.17-2.672c0.271-0.741,0.616-1.259,1.035-1.554
		c0.42-0.293,0.814-0.382,1.184-0.264c0.371,0.119,0.638,0.419,0.808,0.896c0.167,0.479,0.119,1.14-0.142,1.979
		c-0.187,0.571-0.448,1.229-0.782,1.977c-0.336,0.747-0.751,1.531-1.245,2.356c-0.494,0.823-1.053,1.646-1.678,2.464
		c-0.625,0.818-1.314,1.543-2.069,2.173c-0.755,0.631-1.552,1.151-2.387,1.56c-0.837,0.409-1.714,0.615-2.632,0.62
		c-1.668,0.031-2.885-0.467-3.653-1.487c-0.768-1.022-1.207-2.382-1.321-4.076c-0.112-1.695,0.033-3.646,0.436-5.857
		c0.403-2.21,0.958-4.488,1.662-6.837l-8.873,14.983c-0.318,0.582-0.743,1.024-1.276,1.327c-0.533,0.304-1.04,0.441-1.516,0.412
		c-0.478-0.027-0.881-0.258-1.211-0.691c-0.324-0.434-0.447-1.113-0.352-2.04c0.054-0.594,0.153-1.541,0.298-2.848
		c0.144-1.305,0.325-2.785,0.542-4.441c0.218-1.655,0.443-3.377,0.683-5.164c0.24-1.787,0.467-3.459,0.675-5.016
		c-1.045,2.177-2.121,4.415-3.223,6.712c-1.1,2.296-2.113,4.462-3.038,6.5c-0.925,2.036-1.688,3.839-2.287,5.408
		c-0.599,1.57-0.938,2.701-1.016,3.397c-0.083,0.629-0.329,1.074-0.733,1.334c-0.405,0.261-0.835,0.341-1.283,0.244
		c-0.45-0.096-0.848-0.357-1.193-0.792c-0.343-0.432-0.479-1.025-0.407-1.784c0.114-1.943,0.466-4.182,1.059-6.719
		c0.593-2.535,1.307-5.162,2.143-7.88c0.842-2.72,1.738-5.425,2.695-8.122c0.956-2.693,1.863-5.156,2.727-7.386
		c0.857-2.228,1.601-4.119,2.215-5.674C179.772,64.225,180.162,63.212,180.322,62.74"/>
	<path fill="#211915" d="M218.697,90.065c-1.556,0.68-2.91,1.077-4.063,1.199c-1.154,0.12-2.16,0.133-3.02,0.034
		c-0.226,0.902-0.373,1.757-0.441,2.565c-0.069,0.81-0.009,1.508,0.187,2.1c0.194,0.593,0.516,1.042,0.962,1.352
		c0.451,0.308,1.067,0.433,1.85,0.374c1.726-0.133,3.251-0.553,4.572-1.262c1.322-0.709,2.454-1.54,3.395-2.499
		c0.94-0.955,1.703-1.94,2.279-2.95c0.578-1.012,0.985-1.887,1.224-2.625c0.269-0.742,0.615-1.26,1.036-1.555
		c0.421-0.294,0.813-0.389,1.182-0.287c0.369,0.103,0.636,0.395,0.806,0.872c0.165,0.477,0.12,1.137-0.144,1.977
		c-0.231,0.837-0.699,1.872-1.407,3.106c-0.709,1.233-1.641,2.437-2.797,3.605c-1.155,1.171-2.541,2.196-4.161,3.073
		c-1.621,0.88-3.473,1.396-5.557,1.558c-2.444,0.187-4.414-0.273-5.907-1.389c-1.492-1.114-2.523-2.584-3.091-4.407
		c-0.565-1.824-0.687-3.821-0.361-5.992c0.324-2.172,1.064-4.236,2.227-6.193c1.158-1.955,2.727-3.625,4.703-5.005
		c1.973-1.382,4.326-2.178,7.064-2.388c1.792-0.138,3.182,0.059,4.176,0.589c0.989,0.53,1.658,1.255,2.01,2.18
		c0.35,0.924,0.422,1.976,0.218,3.153c-0.205,1.18-0.633,2.336-1.283,3.465c-0.649,1.133-1.463,2.178-2.438,3.138
		C220.942,88.812,219.868,89.55,218.697,90.065 M217.422,87.559c1.2-0.583,2.203-1.389,3.008-2.419
		c0.807-1.026,1.357-2.046,1.658-3.051c0.299-1.006,0.339-1.869,0.12-2.59s-0.735-1.05-1.548-0.986
		c-0.654,0.05-1.348,0.373-2.09,0.971c-0.741,0.598-1.477,1.366-2.205,2.309c-0.733,0.94-1.422,1.993-2.07,3.156
		c-0.646,1.163-1.219,2.354-1.716,3.571c0.66,0.048,1.402,0.008,2.23-0.12C215.632,88.271,216.504,87.991,217.422,87.559"/>
	<path fill="#211915" d="M229.198,76.429c0.119-0.566,0.431-0.974,0.938-1.226c0.505-0.251,1.085-0.361,1.743-0.329
		c0.658,0.029,1.35,0.174,2.073,0.429c0.723,0.257,1.374,0.6,1.949,1.029c0.571,0.432,1.018,0.914,1.338,1.446
		c0.318,0.532,0.42,1.099,0.303,1.696c-0.072,0.367-0.128,0.797-0.172,1.291c-0.045,0.495-0.077,1.056-0.091,1.678
		c1.19-1.565,2.277-2.975,3.263-4.231c0.983-1.255,1.777-2.217,2.381-2.887c0.75-0.876,1.425-1.379,2.023-1.507
		c0.596-0.127,1.037-0.021,1.327,0.316c0.286,0.338,0.383,0.83,0.284,1.476c-0.1,0.647-0.435,1.287-1.009,1.923
		c-0.269,0.314-0.683,0.806-1.238,1.471c-0.555,0.665-1.189,1.45-1.903,2.357c-0.72,0.908-1.5,1.903-2.352,2.982
		c-0.853,1.081-1.725,2.198-2.622,3.347c0.079,1.011,0.185,1.977,0.326,2.9c0.135,0.924,0.302,1.745,0.505,2.468
		c0.205,0.722,0.435,1.293,0.699,1.715c0.26,0.421,0.554,0.621,0.88,0.595c0.75-0.056,1.453-0.397,2.112-1.021
		c0.654-0.624,1.242-1.375,1.767-2.249c0.521-0.875,0.992-1.799,1.407-2.764c0.419-0.965,0.745-1.818,0.984-2.557
		c0.271-0.74,0.614-1.26,1.035-1.556c0.422-0.293,0.814-0.388,1.18-0.286c0.371,0.104,0.639,0.393,0.808,0.872
		c0.165,0.479,0.12,1.139-0.145,1.976c-0.229,0.839-0.607,1.867-1.137,3.086c-0.529,1.221-1.203,2.402-2.013,3.546
		c-0.813,1.145-1.763,2.145-2.845,2.997c-1.08,0.853-2.306,1.331-3.672,1.438c-1.435,0.109-2.637-0.404-3.611-1.542
		c-0.969-1.138-1.77-2.6-2.401-4.386c-1.134,1.431-2.156,2.713-3.069,3.849s-1.563,1.931-1.953,2.387
		c-0.602,0.7-1.146,1.095-1.63,1.182c-0.483,0.086-0.838-0.028-1.059-0.336c-0.219-0.311-0.286-0.755-0.2-1.336
		c0.086-0.58,0.397-1.203,0.938-1.867c0.45-0.526,1.205-1.502,2.256-2.926c1.056-1.425,2.268-3.024,3.637-4.802
		c-0.186-0.705-0.348-1.422-0.483-2.149c-0.14-0.727-0.267-1.429-0.384-2.108c-0.036,0.823-0.123,1.605-0.263,2.355
		c-0.139,0.747-0.361,1.461-0.669,2.14c-0.256,0.511-0.584,0.839-0.98,0.985c-0.398,0.145-0.77,0.141-1.108-0.014
		c-0.34-0.153-0.575-0.439-0.705-0.855c-0.132-0.414-0.055-0.928,0.226-1.541c0.395-0.816,0.747-1.695,1.05-2.637
		c0.307-0.94,0.535-1.899,0.69-2.878c0.152-0.979,0.202-1.933,0.147-2.863c-0.056-0.93-0.229-1.792-0.518-2.589l0.047-0.003
		C229.174,76.759,229.146,76.599,229.198,76.429"/>
	<path fill-rule="evenodd" clip-rule="evenodd" fill="#211915" d="M178.313,113.874c-10.104,16.125-27.46,27.415-47.895,28.983
		c-20.433,1.573-39.307-6.93-51.765-21.32c3.115,0.351,6.235,0.691,9.341,1.062c11.036,9.966,25.976,15.561,41.968,14.331
		c15.994-1.229,29.902-9.043,39.286-20.577C172.267,115.512,175.289,114.698,178.313,113.874"/>
	<path fill-rule="evenodd" clip-rule="evenodd" fill="#211915" d="M187.134,119.36c-11.803,18.822-32.069,31.997-55.92,33.833
		c-23.85,1.83-45.89-8.092-60.432-24.886c3.635,0.407,7.272,0.805,10.905,1.24c12.881,11.632,30.325,18.161,48.992,16.728
		c18.674-1.438,34.91-10.56,45.86-24.02C180.063,121.27,183.603,120.318,187.134,119.36"/>
	<path fill-rule="evenodd" clip-rule="evenodd" fill="#211915" d="M163.325,39.325c-11.038-9.964-25.977-15.561-41.97-14.329
		c-15.99,1.228-29.903,9.042-39.283,20.576c-3.017,0.842-6.043,1.654-9.07,2.479c10.114-16.126,27.467-27.415,47.898-28.985
		c20.432-1.572,39.312,6.93,51.764,21.322C169.549,40.035,166.435,39.694,163.325,39.325"/>
	<path fill-rule="evenodd" clip-rule="evenodd" fill="#211915" d="M169.627,32.376c-12.877-11.63-30.315-18.162-48.988-16.727
		c-18.671,1.435-34.908,10.557-45.86,24.02c-3.526,0.985-7.057,1.936-10.59,2.894c11.805-18.82,32.066-31.996,55.916-33.83
		c23.851-1.833,45.894,8.088,60.438,24.883C176.904,33.21,173.262,32.812,169.627,32.376"/>
	<path fill="#211915" d="M97.431,105.032c-1.071-4.774,0.421-10.432,3.179-13.685c3.422-4.032,3.693-7.093,3.018-11.158
		c-0.12-0.728,0.681-1.275,1.303-0.877c3.954,2.524,5.943,8.857,4.794,13.903c-0.146,0.64,0.453,1.204,1.081,1.012
		c1.336-0.404,3.224-1.364,4.064-3.62c0.154-0.415,0.584-0.674,1.012-0.562c2.172,0.572,3.998,2.349,5.273,4.754
		c2.043-3.448,3.769-7.253,5.344-10.956c-1.635-2.789-3.987-5.452-7.216-7.752c-10.802-7.686-8.964-15.267-7.553-18.34
		c0.296-0.641-0.273-1.344-0.961-1.197c-3.314,0.714-10.209,3.6-10.96,15.285c0,0.025,0,0.05,0,0.073
		c-2.225-1.67-5.229-1.781-7.543-1.521c-0.883,0.099-1.052,1.326-0.226,1.653c9.761,3.884-1.545,13.913-3.146,21.839
		c-0.93,4.596-0.06,7.905,1.525,10.272C92.724,103.629,93.314,104.43,97.431,105.032"/>
	<path fill="#211915" d="M160.284,61.76c0.133-0.781-0.369-1.528-1.145-1.698l-7.281-1.601c-0.872-0.192-1.725,0.432-1.8,1.326
		c-0.338,3.994-1.04,7.452-1.786,10.213c-0.507,1.887-1.035,3.446-1.478,4.628c-1.37-0.371-2.764-0.525-4.143-0.421
		c-3.304,0.255-6.53,2.011-9.169,5.927c-1.687,2.502-7.761,21.772-16.539,26.476c-4.152,2.227-8.354,3.224-12.216,3.521
		c-5.03,0.384-9.487-0.416-12.516-1.231c-1.393-0.373-2.455,1.263-1.533,2.38c3.563,4.313,11.131,10.937,24.595,12.146
		c1.857,0.166,3.693,0.171,5.495,0.035c15.866-1.22,29.233-13.563,34.742-24.443c3.431-6.774,4.412-14.432-0.715-19.652
		c0.792-1.456,1.49-3.041,2.098-4.654C158.817,69.616,159.866,64.236,160.284,61.76"/>
	<g>
		<path fill="#211915" d="M106.594,49.571l0.438,0.337c-0.876,0.931-1.951,1.444-3.23,1.542c-1.368,0.104-2.572-0.285-3.61-1.179
			c-1.037-0.89-1.609-2.02-1.716-3.388c-0.104-1.366,0.289-2.568,1.18-3.607c0.887-1.04,2.018-1.615,3.388-1.72
			c1.276-0.098,2.419,0.247,3.427,1.03l-0.383,0.407c-0.886-0.673-1.887-0.968-3.001-0.883c-1.213,0.096-2.214,0.603-3.005,1.526
			s-1.142,1.991-1.05,3.202c0.096,1.218,0.602,2.221,1.527,3.013c0.924,0.792,1.991,1.143,3.203,1.049
			C104.875,50.814,105.82,50.372,106.594,49.571"/>
		<path fill="#211915" d="M116.303,41.973c1.044,0.894,1.619,2.025,1.723,3.395s-0.289,2.576-1.183,3.618
			c-0.893,1.043-2.026,1.616-3.396,1.722c-1.367,0.105-2.573-0.288-3.613-1.182c-1.045-0.895-1.619-2.025-1.726-3.396
			c-0.106-1.369,0.29-2.575,1.184-3.617c0.896-1.043,2.024-1.617,3.395-1.723S115.261,41.08,116.303,41.973 M112.729,41.346
			c-1.217,0.094-2.223,0.603-3.013,1.529c-0.797,0.927-1.145,1.997-1.053,3.212c0.093,1.217,0.604,2.223,1.531,3.018
			c0.924,0.796,1.996,1.148,3.21,1.054c1.217-0.094,2.222-0.604,3.016-1.532s1.144-1.998,1.049-3.215
			c-0.092-1.217-0.601-2.223-1.527-3.016S113.944,41.253,112.729,41.346"/>
		<polygon fill="#211915" points="119.938,40.374 124.053,46.375 127.192,39.815 127.814,39.766 127.792,39.811 128.533,49.433 
			127.99,49.475 127.324,40.795 124.134,47.444 119.96,41.361 120.625,50.041 120.083,50.083 119.343,40.461 119.316,40.42 		"/>
		
			<rect x="125.544" y="44.156" transform="matrix(-0.0765 -0.9971 0.9971 -0.0765 96.0629 177.8353)" fill="#211915" width="9.693" height="0.545"/>
		<path fill="#211915" d="M132.769,39.398l0.042-0.003c1.591-0.122,2.856,0.223,3.798,1.032c1.04,0.896,1.614,2.027,1.717,3.392
			c0.106,1.37-0.285,2.573-1.179,3.616c-0.805,0.944-2.004,1.479-3.596,1.6l-0.043,0.004l0.003,0.013l-0.543,0.04l-0.746-9.663
			l0.543-0.043L132.769,39.398z M132.811,39.954l0.655,8.535l0.042-0.004c1.437-0.11,2.508-0.581,3.217-1.414
			c0.79-0.923,1.14-1.993,1.046-3.209c-0.091-1.211-0.602-2.216-1.524-3.012c-0.827-0.71-1.96-1.01-3.393-0.899L132.811,39.954z"/>
		<path fill="#211915" d="M144.29,44.497l-3.346,0.257l-1.063,3.808l-0.578,0.044l2.839-10.163l4.354,9.609l-0.574,0.045
			L144.29,44.497z M144.051,43.968l-1.786-3.938l-1.163,4.165L144.051,43.968z"/>
	</g>
</g>
</svg>
