<?xml version="1.0" encoding="utf-8"?>
<!-- Generator: Adobe Illustrator 16.0.0, SVG Export Plug-In . SVG Version: 6.00 Build 0)  -->
<!DOCTYPE svg PUBLIC "-//W3C//DTD SVG 1.1//EN" "http://www.w3.org/Graphics/SVG/1.1/DTD/svg11.dtd">
<svg version="1.1" xmlns="http://www.w3.org/2000/svg" xmlns:xlink="http://www.w3.org/1999/xlink" x="0px" y="0px" width="60px"
	 height="60px" viewBox="0 0 60 60" enable-background="new 0 0 60 60" xml:space="preserve">
<g id="Capa_1">
</g>
<g id="Capa_2">
	<g>
		<g>
			<g>
				<g>
					
						<linearGradient id="SVGID_1_" gradientUnits="userSpaceOnUse" x1="1852.6074" y1="30.2026" x2="1819.2129" y2="30.2026" gradientTransform="matrix(-1 0 0 1 1865.9121 0)">
						<stop  offset="0" style="stop-color:#691A23"/>
						<stop  offset="1" style="stop-color:#B85055"/>
					</linearGradient>
					<path fill="url(#SVGID_1_)" d="M18.194,11.3c4.058-4.058,10.057-5.766,15.644-4.455c4.259,1,8.02,3.708,10.338,7.414
						c1.178,1.88,1.972,3.994,2.323,6.184c0.384,2.391,0.182,4.816-0.332,7.172c-0.966,4.434-2.99,8.605-5.298,12.484
						c-2.011,3.379-4.306,6.596-6.773,9.654c-0.751,0.93-1.518,1.844-2.307,2.74c-0.412,0.467-0.933,1.188-1.523,1.391
						c-0.097,0.035-0.242,0.104-0.346,0.107c-0.138,0.006-0.313-0.07-0.444-0.119c-0.312-0.113-0.578-0.363-0.802-0.605
						c-0.113-0.121-0.224-0.246-0.333-0.373c-0.662-0.746-1.304-1.512-1.935-2.287c-2.373-2.912-4.581-5.969-6.553-9.168
						c-2.385-3.873-4.498-8.012-5.683-12.422c-0.645-2.398-1.022-4.919-0.804-7.402c0.231-2.613,1.087-5.157,2.484-7.378
						C16.518,13.174,17.306,12.188,18.194,11.3 M19.922,26.802c1.764,4.806,6.841,7.774,11.892,6.911
						c3.835-0.654,7.09-3.446,8.352-7.123c1.29-3.76,0.345-8.024-2.399-10.896c-2.935-3.073-7.529-4.142-11.516-2.646
						c-4.778,1.792-7.699,6.872-6.824,11.906C19.536,25.584,19.703,26.201,19.922,26.802C20.013,27.048,19.5,25.65,19.922,26.802z"
						/>
					
						<linearGradient id="SVGID_2_" gradientUnits="userSpaceOnUse" x1="1852.6104" y1="30.2031" x2="1835.8779" y2="30.2031" gradientTransform="matrix(-1 0 0 1 1865.9121 0)">
						<stop  offset="0" style="stop-color:#691A23"/>
						<stop  offset="1" style="stop-color:#B85055"/>
					</linearGradient>
					<path fill="url(#SVGID_2_)" d="M13.301,23.107c0,4.259,1.468,8.479,3.258,12.291c1.705,3.631,3.823,7.064,6.14,10.336
						c1.589,2.242,3.276,4.42,5.068,6.504c0.298,0.348,0.596,0.697,0.909,1.033c0.22,0.234,0.48,0.477,0.78,0.596
						c0.096,0.039,0.464,0.209,0.552,0.094c0.044-0.061,0-0.33,0-0.4c0-2.057,0-4.109,0-6.166c0-2.895,0-5.789,0-8.682
						c0-1.096,0-2.189,0-3.283c0-0.344,0-0.689,0-1.033c0-0.098,0.056-0.418,0-0.5c-0.072-0.105-0.688-0.051-0.849-0.064
						c-0.655-0.051-1.308-0.164-1.942-0.336c-1.26-0.34-2.458-0.916-3.512-1.686c-2.148-1.571-3.675-3.913-4.214-6.521
						c-0.556-2.686-0.049-5.53,1.402-7.854c1.256-2.013,3.179-3.582,5.405-4.404c0.609-0.226,1.239-0.392,1.879-0.504
						c0.295-0.051,0.593-0.092,0.893-0.117c0.165-0.015,0.331-0.024,0.496-0.031c0.045-0.002,0.408,0.028,0.442-0.011
						c0.031-0.036,0-0.237,0-0.283c0-0.231,0-0.463,0-0.695c0-1.366,0-2.732,0-4.099c0-0.296,0-0.591,0-0.886
						c-3.724,0-7.389,1.263-10.316,3.565c-2.514,1.978-4.439,4.667-5.483,7.691C13.606,19.41,13.301,21.258,13.301,23.107z"/>
				</g>
				<g>
					
						<linearGradient id="SVGID_3_" gradientUnits="userSpaceOnUse" x1="1847.2021" y1="23.1064" x2="1824.6162" y2="23.1064" gradientTransform="matrix(-1 0 0 1 1865.9121 0)">
						<stop  offset="0" style="stop-color:#691A23"/>
						<stop  offset="1" style="stop-color:#B85055"/>
					</linearGradient>
					<path fill="url(#SVGID_3_)" d="M41.295,23.11c0,4.7-3.032,9.015-7.449,10.619c-4.451,1.617-9.557,0.201-12.569-3.439
						c-3.019-3.648-3.42-8.947-0.966-13.002c2.455-4.055,7.314-6.197,11.963-5.244c4.554,0.935,8.168,4.718,8.886,9.311
						C41.251,21.935,41.295,22.522,41.295,23.11z M26.373,15.078c-3.775,1.703-5.904,5.952-4.979,9.99
						c0.71,3.11,3.141,5.652,6.207,6.518c3.136,0.887,6.58-0.074,8.813-2.441c2.414-2.566,3.074-6.429,1.622-9.646
						c-1.733-3.841-6.093-5.966-10.188-4.934C27.342,14.69,26.849,14.865,26.373,15.078C26.113,15.195,26.567,14.992,26.373,15.078z
						"/>
				</g>
			</g>
		</g>
		
			<linearGradient id="SVGID_4_" gradientUnits="userSpaceOnUse" x1="1840.0596" y1="23.1123" x2="1831.7529" y2="23.1123" gradientTransform="matrix(-1 0 0 1 1865.9121 0)">
			<stop  offset="0" style="stop-color:#691A23"/>
			<stop  offset="1" style="stop-color:#B85055"/>
		</linearGradient>
		<path fill="url(#SVGID_4_)" d="M30.008,18.956c1.731,0,3.322,1.123,3.909,2.751c0.591,1.638,0.067,3.511-1.273,4.618
			c-1.342,1.108-3.289,1.255-4.779,0.353c-1.483-0.896-2.272-2.668-1.936-4.37C26.307,20.386,28.049,18.956,30.008,18.956z"/>
		<g>
			<g>
				<g>
					
						<linearGradient id="SVGID_5_" gradientUnits="userSpaceOnUse" x1="1852.6074" y1="30.2026" x2="1819.2129" y2="30.2026" gradientTransform="matrix(-1 0 0 1 1865.9121 0)">
						<stop  offset="0" style="stop-color:#691A23"/>
						<stop  offset="1" style="stop-color:#B85055"/>
					</linearGradient>
					<path fill="url(#SVGID_5_)" d="M18.194,11.3c4.058-4.058,10.057-5.766,15.644-4.455c4.259,1,8.02,3.708,10.338,7.414
						c1.178,1.88,1.972,3.994,2.323,6.184c0.384,2.391,0.182,4.816-0.332,7.172c-0.966,4.434-2.99,8.605-5.298,12.484
						c-2.011,3.379-4.306,6.596-6.773,9.654c-0.751,0.93-1.518,1.844-2.307,2.74c-0.412,0.467-0.933,1.188-1.523,1.391
						c-0.097,0.035-0.242,0.104-0.346,0.107c-0.138,0.006-0.313-0.07-0.444-0.119c-0.312-0.113-0.578-0.363-0.802-0.605
						c-0.113-0.121-0.224-0.246-0.333-0.373c-0.662-0.746-1.304-1.512-1.935-2.287c-2.373-2.912-4.581-5.969-6.553-9.168
						c-2.385-3.873-4.498-8.012-5.683-12.422c-0.645-2.398-1.022-4.919-0.804-7.402c0.231-2.613,1.087-5.157,2.484-7.378
						C16.518,13.174,17.306,12.188,18.194,11.3 M19.922,26.802c1.764,4.806,6.841,7.774,11.892,6.911
						c3.835-0.654,7.09-3.446,8.352-7.123c1.29-3.76,0.345-8.024-2.399-10.896c-2.935-3.073-7.529-4.142-11.516-2.646
						c-4.778,1.792-7.699,6.872-6.824,11.906C19.536,25.584,19.703,26.201,19.922,26.802C20.013,27.048,19.5,25.65,19.922,26.802z"
						/>
					
						<linearGradient id="SVGID_6_" gradientUnits="userSpaceOnUse" x1="1852.6104" y1="30.2031" x2="1835.8779" y2="30.2031" gradientTransform="matrix(-1 0 0 1 1865.9121 0)">
						<stop  offset="0" style="stop-color:#691A23"/>
						<stop  offset="1" style="stop-color:#B85055"/>
					</linearGradient>
					<path fill="url(#SVGID_6_)" d="M13.301,23.107c0,4.259,1.468,8.479,3.258,12.291c1.705,3.631,3.823,7.064,6.14,10.336
						c1.589,2.242,3.276,4.42,5.068,6.504c0.298,0.348,0.596,0.697,0.909,1.033c0.22,0.234,0.48,0.477,0.78,0.596
						c0.096,0.039,0.464,0.209,0.552,0.094c0.044-0.061,0-0.33,0-0.4c0-2.057,0-4.109,0-6.166c0-2.895,0-5.789,0-8.682
						c0-1.096,0-2.189,0-3.283c0-0.344,0-0.689,0-1.033c0-0.098,0.056-0.418,0-0.5c-0.072-0.105-0.688-0.051-0.849-0.064
						c-0.655-0.051-1.308-0.164-1.942-0.336c-1.26-0.34-2.458-0.916-3.512-1.686c-2.148-1.571-3.675-3.913-4.214-6.521
						c-0.556-2.686-0.049-5.53,1.402-7.854c1.256-2.013,3.179-3.582,5.405-4.404c0.609-0.226,1.239-0.392,1.879-0.504
						c0.295-0.051,0.593-0.092,0.893-0.117c0.165-0.015,0.331-0.024,0.496-0.031c0.045-0.002,0.408,0.028,0.442-0.011
						c0.031-0.036,0-0.237,0-0.283c0-0.231,0-0.463,0-0.695c0-1.366,0-2.732,0-4.099c0-0.296,0-0.591,0-0.886
						c-3.724,0-7.389,1.263-10.316,3.565c-2.514,1.978-4.439,4.667-5.483,7.691C13.606,19.41,13.301,21.258,13.301,23.107z"/>
				</g>
				<g>
					
						<linearGradient id="SVGID_7_" gradientUnits="userSpaceOnUse" x1="1847.2021" y1="23.1064" x2="1824.6162" y2="23.1064" gradientTransform="matrix(-1 0 0 1 1865.9121 0)">
						<stop  offset="0" style="stop-color:#691A23"/>
						<stop  offset="1" style="stop-color:#B85055"/>
					</linearGradient>
					<path fill="url(#SVGID_7_)" d="M41.295,23.11c0,4.7-3.032,9.015-7.449,10.619c-4.451,1.617-9.557,0.201-12.569-3.439
						c-3.019-3.648-3.42-8.947-0.966-13.002c2.455-4.055,7.314-6.197,11.963-5.244c4.554,0.935,8.168,4.718,8.886,9.311
						C41.251,21.935,41.295,22.522,41.295,23.11z M26.373,15.078c-3.775,1.703-5.904,5.952-4.979,9.99
						c0.71,3.11,3.141,5.652,6.207,6.518c3.136,0.887,6.58-0.074,8.813-2.441c2.414-2.566,3.074-6.429,1.622-9.646
						c-1.733-3.841-6.093-5.966-10.188-4.934C27.342,14.69,26.849,14.865,26.373,15.078C26.113,15.195,26.567,14.992,26.373,15.078z
						"/>
				</g>
			</g>
		</g>
		
			<linearGradient id="SVGID_8_" gradientUnits="userSpaceOnUse" x1="1840.0596" y1="23.1123" x2="1831.7529" y2="23.1123" gradientTransform="matrix(-1 0 0 1 1865.9121 0)">
			<stop  offset="0" style="stop-color:#691A23"/>
			<stop  offset="1" style="stop-color:#B85055"/>
		</linearGradient>
		<path fill="url(#SVGID_8_)" d="M30.008,18.956c1.731,0,3.322,1.123,3.909,2.751c0.591,1.638,0.067,3.511-1.273,4.618
			c-1.342,1.108-3.289,1.255-4.779,0.353c-1.483-0.896-2.272-2.668-1.936-4.37C26.307,20.386,28.049,18.956,30.008,18.956z"/>
		<g>
			<g>
				<g>
					
						<linearGradient id="SVGID_9_" gradientUnits="userSpaceOnUse" x1="1852.6074" y1="30.2026" x2="1819.2129" y2="30.2026" gradientTransform="matrix(-1 0 0 1 1865.9121 0)">
						<stop  offset="0" style="stop-color:#FEFEFE"/>
						<stop  offset="1" style="stop-color:#CCCCCC"/>
					</linearGradient>
					<path fill="url(#SVGID_9_)" d="M18.194,11.3c4.058-4.058,10.057-5.766,15.644-4.455c4.259,1,8.02,3.708,10.338,7.414
						c1.178,1.88,1.972,3.994,2.323,6.184c0.384,2.391,0.182,4.816-0.332,7.172c-0.966,4.434-2.99,8.605-5.298,12.484
						c-2.011,3.379-4.306,6.596-6.773,9.654c-0.751,0.93-1.518,1.844-2.307,2.74c-0.412,0.467-0.933,1.188-1.523,1.391
						c-0.097,0.035-0.242,0.104-0.346,0.107c-0.138,0.006-0.313-0.07-0.444-0.119c-0.312-0.113-0.578-0.363-0.802-0.605
						c-0.113-0.121-0.224-0.246-0.333-0.373c-0.662-0.746-1.304-1.512-1.935-2.287c-2.373-2.912-4.581-5.969-6.553-9.168
						c-2.385-3.873-4.498-8.012-5.683-12.422c-0.645-2.398-1.022-4.919-0.804-7.402c0.231-2.613,1.087-5.157,2.484-7.378
						C16.518,13.174,17.306,12.188,18.194,11.3 M19.922,26.802c1.764,4.806,6.841,7.774,11.892,6.911
						c3.835-0.654,7.09-3.446,8.352-7.123c1.29-3.76,0.345-8.024-2.399-10.896c-2.935-3.073-7.529-4.142-11.516-2.646
						c-4.778,1.792-7.699,6.872-6.824,11.906C19.536,25.584,19.703,26.201,19.922,26.802C20.013,27.048,19.5,25.65,19.922,26.802z"
						/>
					
						<linearGradient id="SVGID_10_" gradientUnits="userSpaceOnUse" x1="1852.6104" y1="30.2031" x2="1835.8779" y2="30.2031" gradientTransform="matrix(-1 0 0 1 1865.9121 0)">
						<stop  offset="0" style="stop-color:#FEFEFE"/>
						<stop  offset="1" style="stop-color:#CCCCCC"/>
					</linearGradient>
					<path fill="url(#SVGID_10_)" d="M13.301,23.107c0,4.259,1.468,8.479,3.258,12.291c1.705,3.631,3.823,7.064,6.14,10.336
						c1.589,2.242,3.276,4.42,5.068,6.504c0.298,0.348,0.596,0.697,0.909,1.033c0.22,0.234,0.48,0.477,0.78,0.596
						c0.096,0.039,0.464,0.209,0.552,0.094c0.044-0.061,0-0.33,0-0.4c0-2.057,0-4.109,0-6.166c0-2.895,0-5.789,0-8.682
						c0-1.096,0-2.189,0-3.283c0-0.344,0-0.689,0-1.033c0-0.098,0.056-0.418,0-0.5c-0.072-0.105-0.688-0.051-0.849-0.064
						c-0.655-0.051-1.308-0.164-1.942-0.336c-1.26-0.34-2.458-0.916-3.512-1.686c-2.148-1.571-3.675-3.913-4.214-6.521
						c-0.556-2.686-0.049-5.53,1.402-7.854c1.256-2.013,3.179-3.582,5.405-4.404c0.609-0.226,1.239-0.392,1.879-0.504
						c0.295-0.051,0.593-0.092,0.893-0.117c0.165-0.015,0.331-0.024,0.496-0.031c0.045-0.002,0.408,0.028,0.442-0.011
						c0.031-0.036,0-0.237,0-0.283c0-0.231,0-0.463,0-0.695c0-1.366,0-2.732,0-4.099c0-0.296,0-0.591,0-0.886
						c-3.724,0-7.389,1.263-10.316,3.565c-2.514,1.978-4.439,4.667-5.483,7.691C13.606,19.41,13.301,21.258,13.301,23.107z"/>
				</g>
				<g>
					
						<linearGradient id="SVGID_11_" gradientUnits="userSpaceOnUse" x1="1847.2021" y1="23.1064" x2="1824.6162" y2="23.1064" gradientTransform="matrix(-1 0 0 1 1865.9121 0)">
						<stop  offset="0" style="stop-color:#FEFEFE"/>
						<stop  offset="1" style="stop-color:#CCCCCC"/>
					</linearGradient>
					<path fill="url(#SVGID_11_)" d="M41.295,23.11c0,4.7-3.032,9.015-7.449,10.619c-4.451,1.617-9.557,0.201-12.569-3.439
						c-3.019-3.648-3.42-8.947-0.966-13.002c2.455-4.055,7.314-6.197,11.963-5.244c4.554,0.935,8.168,4.718,8.886,9.311
						C41.251,21.935,41.295,22.522,41.295,23.11z M26.373,15.078c-3.775,1.703-5.904,5.952-4.979,9.99
						c0.71,3.11,3.141,5.652,6.207,6.518c3.136,0.887,6.58-0.074,8.813-2.441c2.414-2.566,3.074-6.429,1.622-9.646
						c-1.733-3.841-6.093-5.966-10.188-4.934C27.342,14.69,26.849,14.865,26.373,15.078C26.113,15.195,26.567,14.992,26.373,15.078z
						"/>
				</g>
			</g>
		</g>
		
			<linearGradient id="SVGID_12_" gradientUnits="userSpaceOnUse" x1="1840.0596" y1="23.1123" x2="1831.7529" y2="23.1123" gradientTransform="matrix(-1 0 0 1 1865.9121 0)">
			<stop  offset="0" style="stop-color:#CCCCCC"/>
			<stop  offset="1" style="stop-color:#FFFFFF"/>
		</linearGradient>
		<path fill="url(#SVGID_12_)" d="M30.008,18.956c1.731,0,3.322,1.123,3.909,2.751c0.591,1.638,0.067,3.511-1.273,4.618
			c-1.342,1.108-3.289,1.255-4.779,0.353c-1.483-0.896-2.272-2.668-1.936-4.37C26.307,20.386,28.049,18.956,30.008,18.956z"/>
	</g>
</g>
</svg>
